  0
SECTION
  2
HEADER
  9
$ACADVER
  1
AC1027
  9
$ACADMAINTVER
 70
105
  9
$DWGCODEPAGE
  3
ANSI_1252
  9
$LASTSAVEDBY
  1
ezdxf
  9
$REQUIREDVERSIONS
160
0
  9
$INSBASE
 10
0.0
 20
0.0
 30
0.0
  9
$EXTMIN
 10
1e+20
 20
1e+20
 30
1e+20
  9
$EXTMAX
 10
-1e+20
 20
-1e+20
 30
-1e+20
  9
$LIMMIN
 10
0.0
 20
0.0
  9
$LIMMAX
 10
420.0
 20
297.0
  9
$ORTHOMODE
 70
0
  9
$REGENMODE
 70
1
  9
$FILLMODE
 70
1
  9
$QTEXTMODE
 70
0
  9
$MIRRTEXT
 70
1
  9
$LTSCALE
 40
1.0
  9
$ATTMODE
 70
1
  9
$TEXTSIZE
 40
2.5
  9
$TRACEWID
 40
1.0
  9
$TEXTSTYLE
  7
Standard
  9
$CLAYER
  8
0
  9
$CELTYPE
  6
ByLayer
  9
$CECOLOR
 62
256
  9
$CELTSCALE
 40
1.0
  9
$DISPSILH
 70
0
  9
$DIMSCALE
 40
1.0
  9
$DIMASZ
 40
2.5
  9
$DIMEXO
 40
0.625
  9
$DIMDLI
 40
3.75
  9
$DIMRND
 40
0.0
  9
$DIMDLE
 40
0.0
  9
$DIMEXE
 40
1.25
  9
$DIMTP
 40
0.0
  9
$DIMTM
 40
0.0
  9
$DIMTXT
 40
2.5
  9
$DIMCEN
 40
2.5
  9
$DIMTSZ
 40
0.0
  9
$DIMTOL
 70
0
  9
$DIMLIM
 70
0
  9
$DIMTIH
 70
0
  9
$DIMTOH
 70
0
  9
$DIMSE1
 70
0
  9
$DIMSE2
 70
0
  9
$DIMTAD
 70
1
  9
$DIMZIN
 70
8
  9
$DIMBLK
  1

  9
$DIMASO
 70
1
  9
$DIMSHO
 70
1
  9
$DIMPOST
  1

  9
$DIMAPOST
  1

  9
$DIMALT
 70
0
  9
$DIMALTD
 70
3
  9
$DIMALTF
 40
0.03937007874
  9
$DIMLFAC
 40
1.0
  9
$DIMTOFL
 70
1
  9
$DIMTVP
 40
0.0
  9
$DIMTIX
 70
0
  9
$DIMSOXD
 70
0
  9
$DIMSAH
 70
0
  9
$DIMBLK1
  1

  9
$DIMBLK2
  1

  9
$DIMSTYLE
  2
ISO-25
  9
$DIMCLRD
 70
0
  9
$DIMCLRE
 70
0
  9
$DIMCLRT
 70
0
  9
$DIMTFAC
 40
1.0
  9
$DIMGAP
 40
0.625
  9
$DIMJUST
 70
0
  9
$DIMSD1
 70
0
  9
$DIMSD2
 70
0
  9
$DIMTOLJ
 70
0
  9
$DIMTZIN
 70
8
  9
$DIMALTZ
 70
0
  9
$DIMALTTZ
 70
0
  9
$DIMUPT
 70
0
  9
$DIMDEC
 70
2
  9
$DIMTDEC
 70
2
  9
$DIMALTU
 70
2
  9
$DIMALTTD
 70
3
  9
$DIMTXSTY
  7
Standard
  9
$DIMAUNIT
 70
0
  9
$DIMADEC
 70
0
  9
$DIMALTRND
 40
0.0
  9
$DIMAZIN
 70
0
  9
$DIMDSEP
 70
44
  9
$DIMATFIT
 70
3
  9
$DIMFRAC
 70
0
  9
$DIMLDRBLK
  1

  9
$DIMLUNIT
 70
2
  9
$DIMLWD
 70
-2
  9
$DIMLWE
 70
-2
  9
$DIMTMOVE
 70
0
  9
$DIMFXL
 40
1.0
  9
$DIMFXLON
 70
0
  9
$DIMJOGANG
 40
0.785398163397
  9
$DIMTFILL
 70
0
  9
$DIMTFILLCLR
 70
0
  9
$DIMARCSYM
 70
0
  9
$DIMLTYPE
  6

  9
$DIMLTEX1
  6

  9
$DIMLTEX2
  6

  9
$DIMTXTDIRECTION
 70
0
  9
$LUNITS
 70
2
  9
$LUPREC
 70
4
  9
$SKETCHINC
 40
1.0
  9
$FILLETRAD
 40
10.0
  9
$AUNITS
 70
0
  9
$AUPREC
 70
2
  9
$MENU
  1
.
  9
$ELEVATION
 40
0.0
  9
$PELEVATION
 40
0.0
  9
$THICKNESS
 40
0.0
  9
$LIMCHECK
 70
0
  9
$CHAMFERA
 40
0.0
  9
$CHAMFERB
 40
0.0
  9
$CHAMFERC
 40
0.0
  9
$CHAMFERD
 40
0.0
  9
$SKPOLY
 70
0
  9
$TDCREATE
 40
2461021.5852430556
  9
$TDUCREATE
 40
2458532.153996898
  9
$TDUPDATE
 40
2461021.5852430556
  9
$TDUUPDATE
 40
2458532.1544311
  9
$TDINDWG
 40
0.0
  9
$TDUSRTIMER
 40
0.0
  9
$USRTIMER
 70
1
  9
$ANGBASE
 50
0.0
  9
$ANGDIR
 70
0
  9
$PDMODE
 70
0
  9
$PDSIZE
 40
0.0
  9
$PLINEWID
 40
0.0
  9
$SPLFRAME
 70
0
  9
$SPLINETYPE
 70
6
  9
$SPLINESEGS
 70
8
  9
$HANDSEED
  5
18B
  9
$SURFTAB1
 70
6
  9
$SURFTAB2
 70
6
  9
$SURFTYPE
 70
6
  9
$SURFU
 70
6
  9
$SURFV
 70
6
  9
$UCSBASE
  2

  9
$UCSNAME
  2

  9
$UCSORG
 10
0.0
 20
0.0
 30
0.0
  9
$UCSXDIR
 10
1.0
 20
0.0
 30
0.0
  9
$UCSYDIR
 10
0.0
 20
1.0
 30
0.0
  9
$UCSORTHOREF
  2

  9
$UCSORTHOVIEW
 70
0
  9
$UCSORGTOP
 10
0.0
 20
0.0
 30
0.0
  9
$UCSORGBOTTOM
 10
0.0
 20
0.0
 30
0.0
  9
$UCSORGLEFT
 10
0.0
 20
0.0
 30
0.0
  9
$UCSORGRIGHT
 10
0.0
 20
0.0
 30
0.0
  9
$UCSORGFRONT
 10
0.0
 20
0.0
 30
0.0
  9
$UCSORGBACK
 10
0.0
 20
0.0
 30
0.0
  9
$PUCSBASE
  2

  9
$PUCSNAME
  2

  9
$PUCSORG
 10
0.0
 20
0.0
 30
0.0
  9
$PUCSXDIR
 10
1.0
 20
0.0
 30
0.0
  9
$PUCSYDIR
 10
0.0
 20
1.0
 30
0.0
  9
$PUCSORTHOREF
  2

  9
$PUCSORTHOVIEW
 70
0
  9
$PUCSORGTOP
 10
0.0
 20
0.0
 30
0.0
  9
$PUCSORGBOTTOM
 10
0.0
 20
0.0
 30
0.0
  9
$PUCSORGLEFT
 10
0.0
 20
0.0
 30
0.0
  9
$PUCSORGRIGHT
 10
0.0
 20
0.0
 30
0.0
  9
$PUCSORGFRONT
 10
0.0
 20
0.0
 30
0.0
  9
$PUCSORGBACK
 10
0.0
 20
0.0
 30
0.0
  9
$USERI1
 70
0
  9
$USERI2
 70
0
  9
$USERI3
 70
0
  9
$USERI4
 70
0
  9
$USERI5
 70
0
  9
$USERR1
 40
0.0
  9
$USERR2
 40
0.0
  9
$USERR3
 40
0.0
  9
$USERR4
 40
0.0
  9
$USERR5
 40
0.0
  9
$WORLDVIEW
 70
1
  9
$SHADEDGE
 70
3
  9
$SHADEDIF
 70
70
  9
$TILEMODE
 70
1
  9
$MAXACTVP
 70
64
  9
$PINSBASE
 10
0.0
 20
0.0
 30
0.0
  9
$PLIMCHECK
 70
0
  9
$PEXTMIN
 10
1e+20
 20
1e+20
 30
1e+20
  9
$PEXTMAX
 10
-1e+20
 20
-1e+20
 30
-1e+20
  9
$PLIMMIN
 10
0.0
 20
0.0
  9
$PLIMMAX
 10
420.0
 20
297.0
  9
$UNITMODE
 70
0
  9
$VISRETAIN
 70
1
  9
$PLINEGEN
 70
0
  9
$PSLTSCALE
 70
1
  9
$TREEDEPTH
 70
3020
  9
$CMLSTYLE
  2
Standard
  9
$CMLJUST
 70
0
  9
$CMLSCALE
 40
20.0
  9
$PROXYGRAPHICS
 70
1
  9
$MEASUREMENT
 70
1
  9
$CELWEIGHT
370
-1
  9
$ENDCAPS
280
0
  9
$JOINSTYLE
280
0
  9
$LWDISPLAY
290
0
  9
$INSUNITS
 70
6
  9
$HYPERLINKBASE
  1

  9
$STYLESHEET
  1

  9
$XEDIT
290
1
  9
$CEPSNTYPE
380
0
  9
$PSTYLEMODE
290
1
  9
$FINGERPRINTGUID
  2
{ECC4C5ED-373D-4FB0-912B-57C1F0E460FE}
  9
$VERSIONGUID
  2
{66C5F0D1-31D2-4487-AAAF-4E974F009A00}
  9
$EXTNAMES
290
1
  9
$PSVPSCALE
 40
0.0
  9
$OLESTARTUP
290
0
  9
$SORTENTS
280
127
  9
$INDEXCTL
280
0
  9
$HIDETEXT
280
1
  9
$XCLIPFRAME
280
1
  9
$HALOGAP
280
0
  9
$OBSCOLOR
 70
257
  9
$OBSLTYPE
280
0
  9
$INTERSECTIONDISPLAY
280
0
  9
$INTERSECTIONCOLOR
 70
257
  9
$DIMASSOC
280
2
  9
$PROJECTNAME
  1

  9
$CAMERADISPLAY
290
0
  9
$LENSLENGTH
 40
50.0
  9
$CAMERAHEIGHT
 40
0.0
  9
$STEPSPERSEC
 40
24.0
  9
$STEPSIZE
 40
100.0
  9
$3DDWFPREC
 40
2.0
  9
$PSOLWIDTH
 40
0.005
  9
$PSOLHEIGHT
 40
0.08
  9
$LOFTANG1
 40
1.570796326795
  9
$LOFTANG2
 40
1.570796326795
  9
$LOFTMAG1
 40
0.0
  9
$LOFTMAG2
 40
0.0
  9
$LOFTPARAM
 70
7
  9
$LOFTNORMALS
280
1
  9
$LATITUDE
 40
37.795
  9
$LONGITUDE
 40
-122.394
  9
$NORTHDIRECTION
 40
0.0
  9
$TIMEZONE
 70
-8000
  9
$LIGHTGLYPHDISPLAY
280
1
  9
$TILEMODELIGHTSYNCH
280
1
  9
$CMATERIAL
347
20
  9
$SOLIDHIST
280
0
  9
$SHOWHIST
280
1
  9
$DWFFRAME
280
2
  9
$DGNFRAME
280
2
  9
$REALWORLDSCALE
290
1
  9
$INTERFERECOLOR
 62
256
  9
$CSHADOW
280
0
  9
$SHADOWPLANELOCATION
 40
0.0
  0
ENDSEC
  0
SECTION
  2
CLASSES
  0
CLASS
  1
ACDBDICTIONARYWDFLT
  2
AcDbDictionaryWithDefault
  3
ObjectDBX Classes
 90
0
 91
0
280
0
281
0
  0
CLASS
  1
SUN
  2
AcDbSun
  3
SCENEOE
 90
1153
 91
0
280
0
281
0
  0
CLASS
  1
VISUALSTYLE
  2
AcDbVisualStyle
  3
ObjectDBX Classes
 90
4095
 91
0
280
0
281
0
  0
CLASS
  1
MATERIAL
  2
AcDbMaterial
  3
ObjectDBX Classes
 90
1153
 91
0
280
0
281
0
  0
CLASS
  1
SCALE
  2
AcDbScale
  3
ObjectDBX Classes
 90
1153
 91
0
280
0
281
0
  0
CLASS
  1
TABLESTYLE
  2
AcDbTableStyle
  3
ObjectDBX Classes
 90
4095
 91
0
280
0
281
0
  0
CLASS
  1
MLEADERSTYLE
  2
AcDbMLeaderStyle
  3
ACDB_MLEADERSTYLE_CLASS
 90
4095
 91
0
280
0
281
0
  0
CLASS
  1
DICTIONARYVAR
  2
AcDbDictionaryVar
  3
ObjectDBX Classes
 90
0
 91
0
280
0
281
0
  0
CLASS
  1
CELLSTYLEMAP
  2
AcDbCellStyleMap
  3
ObjectDBX Classes
 90
1152
 91
0
280
0
281
0
  0
CLASS
  1
MENTALRAYRENDERSETTINGS
  2
AcDbMentalRayRenderSettings
  3
SCENEOE
 90
1024
 91
0
280
0
281
0
  0
CLASS
  1
ACDBDETAILVIEWSTYLE
  2
AcDbDetailViewStyle
  3
ObjectDBX Classes
 90
1025
 91
0
280
0
281
0
  0
CLASS
  1
ACDBSECTIONVIEWSTYLE
  2
AcDbSectionViewStyle
  3
ObjectDBX Classes
 90
1025
 91
0
280
0
281
0
  0
CLASS
  1
RASTERVARIABLES
  2
AcDbRasterVariables
  3
ISM
 90
0
 91
0
280
0
281
0
  0
CLASS
  1
ACDBPLACEHOLDER
  2
AcDbPlaceHolder
  3
ObjectDBX Classes
 90
0
 91
0
280
0
281
0
  0
CLASS
  1
LAYOUT
  2
AcDbLayout
  3
ObjectDBX Classes
 90
0
 91
0
280
0
281
0
  0
ENDSEC
  0
SECTION
  2
TABLES
  0
TABLE
  2
VPORT
  5
8
330
0
100
AcDbSymbolTable
 70
1
  0
VPORT
  5
23
330
8
100
AcDbSymbolTableRecord
100
AcDbViewportTableRecord
  2
*Active
 70
0
 10
0.0
 20
0.0
 11
1.0
 21
1.0
 12
0.0
 22
0.0
 13
0.0
 23
0.0
 14
0.5
 24
0.5
 15
0.5
 25
0.5
 16
0.0
 26
0.0
 36
1.0
 17
0.0
 27
0.0
 37
0.0
 40
1000.0
 41
1.34
 42
50.0
 43
0.0
 44
0.0
 50
0.0
 51
0.0
 71
0
 72
1000
 73
1
 74
3
 75
0
 76
0
 77
0
 78
0
281
0
 65
0
146
0.0
  0
ENDTAB
  0
TABLE
  2
LTYPE
  5
2
330
0
100
AcDbSymbolTable
 70
3
  0
LTYPE
  5
24
330
2
100
AcDbSymbolTableRecord
100
AcDbLinetypeTableRecord
  2
ByBlock
 70
0
  3

 72
65
 73
0
 40
0.0
  0
LTYPE
  5
25
330
2
100
AcDbSymbolTableRecord
100
AcDbLinetypeTableRecord
  2
ByLayer
 70
0
  3

 72
65
 73
0
 40
0.0
  0
LTYPE
  5
26
330
2
100
AcDbSymbolTableRecord
100
AcDbLinetypeTableRecord
  2
Continuous
 70
0
  3

 72
65
 73
0
 40
0.0
  0
ENDTAB
  0
TABLE
  2
LAYER
  5
1
330
0
100
AcDbSymbolTable
 70
2
  0
LAYER
  5
27
330
1
100
AcDbSymbolTableRecord
100
AcDbLayerTableRecord
  2
0
 70
0
 62
7
  6
Continuous
370
-3
390
13
347
21
  0
LAYER
  5
28
330
1
100
AcDbSymbolTableRecord
100
AcDbLayerTableRecord
  2
Defpoints
 70
0
 62
7
  6
Continuous
290
0
370
-3
390
13
347
21
  0
ENDTAB
  0
TABLE
  2
STYLE
  5
5
330
0
100
AcDbSymbolTable
 70
1
  0
STYLE
  5
29
330
5
100
AcDbSymbolTableRecord
100
AcDbTextStyleTableRecord
  2
Standard
 70
0
 40
0.0
 41
1.0
 50
0.0
 71
0
 42
2.5
  3
txt
  4

  0
ENDTAB
  0
TABLE
  2
VIEW
  5
7
330
0
100
AcDbSymbolTable
 70
0
  0
ENDTAB
  0
TABLE
  2
UCS
  5
6
330
0
100
AcDbSymbolTable
 70
0
  0
ENDTAB
  0
TABLE
  2
APPID
  5
3
330
0
100
AcDbSymbolTable
 70
3
  0
APPID
  5
2A
330
3
100
AcDbSymbolTableRecord
100
AcDbRegAppTableRecord
  2
ACAD
 70
0
  0
APPID
  5
188
330
3
100
AcDbSymbolTableRecord
100
AcDbRegAppTableRecord
  2
HATCHBACKGROUNDCOLOR
 70
0
  0
APPID
  5
189
330
3
100
AcDbSymbolTableRecord
100
AcDbRegAppTableRecord
  2
EZDXF
 70
0
  0
ENDTAB
  0
TABLE
  2
DIMSTYLE
  5
4
330
0
100
AcDbSymbolTable
 70
1
100
AcDbDimStyleTable
  0
DIMSTYLE
105
2B
330
4
100
AcDbSymbolTableRecord
100
AcDbDimStyleTableRecord
  2
Standard
 70
0
 40
1.0
 41
2.5
 42
0.625
 43
3.75
 44
1.25
 45
0.0
 46
0.0
 47
0.0
 48
0.0
 49
2.5
140
2.5
141
2.5
142
0.0
143
0.03937007874
144
1.0
145
0.0
146
1.0
147
0.625
148
0.0
 69
0
 70
0
 71
0
 72
0
 73
0
 74
0
 75
0
 76
0
 77
1
 78
8
 79
3
170
0
171
3
172
1
173
0
174
0
175
0
176
0
177
0
178
0
179
2
271
2
272
2
273
2
274
3
275
0
276
0
277
2
278
44
279
0
280
0
281
0
282
0
283
0
284
8
285
0
286
0
288
0
289
3
290
0
371
-2
372
-2
  0
ENDTAB
  0
TABLE
  2
BLOCK_RECORD
  5
9
330
0
100
AcDbSymbolTable
 70
2
  0
BLOCK_RECORD
  5
17
330
9
100
AcDbSymbolTableRecord
100
AcDbBlockTableRecord
  2
*Model_Space
340
1A
 70
0
280
1
281
0
  0
BLOCK_RECORD
  5
1B
330
9
100
AcDbSymbolTableRecord
100
AcDbBlockTableRecord
  2
*Paper_Space
340
1E
 70
0
280
1
281
0
  0
ENDTAB
  0
ENDSEC
  0
SECTION
  2
BLOCKS
  0
BLOCK
  5
18
330
17
100
AcDbEntity
  8
0
100
AcDbBlockBegin
  2
*Model_Space
 70
0
 10
0.0
 20
0.0
 30
0.0
  3
*Model_Space
  1

  0
ENDBLK
  5
19
330
17
100
AcDbEntity
  8
0
100
AcDbBlockEnd
  0
BLOCK
  5
1C
330
1B
100
AcDbEntity
  8
0
100
AcDbBlockBegin
  2
*Paper_Space
 70
0
 10
0.0
 20
0.0
 30
0.0
  3
*Paper_Space
  1

  0
ENDBLK
  5
1D
330
1B
100
AcDbEntity
  8
0
100
AcDbBlockEnd
  0
ENDSEC
  0
SECTION
  2
ENTITIES
  0
LWPOLYLINE
  5
2F
330
17
100
AcDbEntity
  8
0
100
AcDbPolyline
 90
4
 70
1
 10
0.0
 20
0.0
 10
871.5709838867188
 20
0.0
 10
871.5709838867188
 20
199.375
 10
0.0
 20
199.375
  0
CIRCLE
  5
30
330
17
100
AcDbEntity
  8
0
100
AcDbCircle
 10
64.65080261230469
 20
83.35700225830078
 30
0.0
 40
32.57500457763672
  0
CIRCLE
  5
31
330
17
100
AcDbEntity
  8
0
100
AcDbCircle
 10
124.2738037109375
 20
141.9739990234375
 30
0.0
 40
22.35699462890625
  0
LINE
  5
32
330
17
100
AcDbEntity
  8
0
100
AcDbLine
 10
164.88681030273438
 20
125.14300537109375
 30
0.0
 11
163.0447998046875
 21
123.21700286865234
 31
0.0
  0
CIRCLE
  5
33
330
17
100
AcDbEntity
  8
0
100
AcDbCircle
 10
163.0447998046875
 20
123.21700286865234
 30
0.0
 40
7.23318174352356
  0
CIRCLE
  5
34
330
17
100
AcDbEntity
  8
0
100
AcDbCircle
 10
131.89279174804688
 20
134.94100952148438
 30
0.0
 40
27.13098907470703
  0
CIRCLE
  5
35
330
17
100
AcDbEntity
  8
0
100
AcDbCircle
 10
90.60980224609375
 20
94.24300384521484
 30
0.0
 40
26.545997619628906
  0
CIRCLE
  5
36
330
17
100
AcDbEntity
  8
0
100
AcDbCircle
 10
126.95280456542969
 20
55.22100067138672
 30
0.0
 40
10.300003051757812
  0
CIRCLE
  5
37
330
17
100
AcDbEntity
  8
0
100
AcDbCircle
 10
150.31680297851562
 20
63.34400177001953
 30
0.0
 40
12.484946140918971
  0
LINE
  5
38
330
17
100
AcDbEntity
  8
0
100
AcDbLine
 10
168.73880004882812
 20
30.769001007080078
 30
0.0
 11
93.3738021850586
 21
30.769001007080078
 31
0.0
  0
CIRCLE
  5
39
330
17
100
AcDbEntity
  8
0
100
AcDbCircle
 10
93.3738021850586
 20
30.769001007080078
 30
0.0
 40
14.083834438871401
  0
CIRCLE
  5
3A
330
17
100
AcDbEntity
  8
0
100
AcDbCircle
 10
104.76180267333984
 20
96.25300598144531
 30
0.0
 40
12.225997924804688
  0
CIRCLE
  5
3B
330
17
100
AcDbEntity
  8
0
100
AcDbCircle
 10
125.11080169677734
 20
117.02100372314453
 30
0.0
 40
5.609992980957031
  0
CIRCLE
  5
3C
330
17
100
AcDbEntity
  8
0
100
AcDbCircle
 10
138.42581176757812
 20
110.822998046875
 30
0.0
 40
3.764206958123018
  0
CIRCLE
  5
3D
330
17
100
AcDbEntity
  8
0
100
AcDbCircle
 10
148.1387939453125
 20
117.02100372314453
 30
0.0
 40
8.375
  0
LINE
  5
3E
330
17
100
AcDbEntity
  8
0
100
AcDbLine
 10
165.1387939453125
 20
102.36600494384766
 30
0.0
 11
165.1387939453125
 21
116.26699829101562
 31
0.0
  0
LINE
  5
3F
330
17
100
AcDbEntity
  8
0
100
AcDbLine
 10
165.1387939453125
 20
116.26699829101562
 30
0.0
 11
181.8018035888672
 21
116.26699829101562
 31
0.0
  0
LINE
  5
40
330
17
100
AcDbEntity
  8
0
100
AcDbLine
 10
181.8018035888672
 20
116.26699829101562
 30
0.0
 11
181.8018035888672
 21
112.4990005493164
 31
0.0
  0
LINE
  5
41
330
17
100
AcDbEntity
  8
0
100
AcDbLine
 10
181.8018035888672
 20
112.4990005493164
 30
0.0
 11
179.62579345703125
 21
112.4990005493164
 31
0.0
  0
CIRCLE
  5
42
330
17
100
AcDbEntity
  8
0
100
AcDbCircle
 10
179.62579345703125
 20
112.4990005493164
 30
0.0
 40
2.177001953125
  0
LINE
  5
43
330
17
100
AcDbEntity
  8
0
100
AcDbLine
 10
176.86180114746094
 20
108.7300033569336
 30
0.0
 11
176.86180114746094
 21
94.24300384521484
 31
0.0
  0
CIRCLE
  5
44
330
17
100
AcDbEntity
  8
0
100
AcDbCircle
 10
176.86180114746094
 20
94.24300384521484
 30
0.0
 40
7.621002197265625
  0
CIRCLE
  5
45
330
17
100
AcDbEntity
  8
0
100
AcDbCircle
 10
190.34381103515625
 20
78.66799926757812
 30
0.0
 40
2.0099945068359375
  0
CIRCLE
  5
46
330
17
100
AcDbEntity
  8
0
100
AcDbCircle
 10
193.69281005859375
 20
81.34700012207031
 30
0.0
 40
1.34100341796875
  0
CIRCLE
  5
47
330
17
100
AcDbEntity
  8
0
100
AcDbCircle
 10
191.34780883789062
 20
83.69200134277344
 30
0.0
 40
1.589996337890625
  0
CIRCLE
  5
48
330
17
100
AcDbEntity
  8
0
100
AcDbCircle
 10
188.8367919921875
 20
82.10100555419922
 30
0.0
 40
2.178985595703125
  0
CIRCLE
  5
49
330
17
100
AcDbEntity
  8
0
100
AcDbCircle
 10
183.97979736328125
 20
87.96200561523438
 30
0.0
 40
3.5179977416992188
  0
CIRCLE
  5
4A
330
17
100
AcDbEntity
  8
0
100
AcDbCircle
 10
191.51580810546875
 20
94.49400329589844
 30
0.0
 40
5.9459991455078125
  0
CIRCLE
  5
4B
330
17
100
AcDbEntity
  8
0
100
AcDbCircle
 10
201.3137969970703
 20
83.60700225830078
 30
0.0
 40
5.609001159667969
  0
CIRCLE
  5
4C
330
17
100
AcDbEntity
  8
0
100
AcDbCircle
 10
191.34780883789062
 20
73.72700500488281
 30
0.0
 40
5.94500732421875
  0
LINE
  5
4D
330
17
100
AcDbEntity
  8
0
100
AcDbLine
 10
176.86180114746094
 20
81.85000610351562
 30
0.0
 11
176.86180114746094
 21
79.84000396728516
 31
0.0
  0
CIRCLE
  5
4E
330
17
100
AcDbEntity
  8
0
100
AcDbCircle
 10
176.86180114746094
 20
79.84000396728516
 30
0.0
 40
3.2649993896484375
  0
LINE
  5
4F
330
17
100
AcDbEntity
  8
0
100
AcDbLine
 10
172.00379943847656
 20
74.39700317382812
 30
0.0
 11
159.69479370117188
 21
74.39700317382812
 31
0.0
  0
LINE
  5
50
330
17
100
AcDbEntity
  8
0
100
AcDbLine
 10
159.69479370117188
 20
74.39700317382812
 30
0.0
 11
159.69479370117188
 21
78.16500091552734
 31
0.0
  0
LINE
  5
51
330
17
100
AcDbEntity
  8
0
100
AcDbLine
 10
159.69479370117188
 20
78.16500091552734
 30
0.0
 11
162.37579345703125
 21
78.16500091552734
 31
0.0
  0
CIRCLE
  5
52
330
17
100
AcDbEntity
  8
0
100
AcDbCircle
 10
162.37579345703125
 20
78.16500091552734
 30
0.0
 40
1.673004150390625
  0
LINE
  5
53
330
17
100
AcDbEntity
  8
0
100
AcDbLine
 10
165.1387939453125
 20
81.93400573730469
 30
0.0
 11
165.1387939453125
 21
92.56800079345703
 31
0.0
  0
CIRCLE
  5
54
330
17
100
AcDbEntity
  8
0
100
AcDbCircle
 10
165.1387939453125
 20
92.56800079345703
 30
0.0
 40
9.893071244592091
  0
CIRCLE
  5
55
330
17
100
AcDbEntity
  8
0
100
AcDbCircle
 10
152.91180419921875
 20
110.32099914550781
 30
0.0
 40
1.6750030517578125
  0
LINE
  5
56
330
17
100
AcDbEntity
  8
0
100
AcDbLine
 10
149.56179809570312
 20
107.30599975585938
 30
0.0
 11
149.56179809570312
 21
81.93400573730469
 31
0.0
  0
CIRCLE
  5
57
330
17
100
AcDbEntity
  8
0
100
AcDbCircle
 10
149.56179809570312
 20
81.93400573730469
 30
0.0
 40
2.6800003051757812
  0
LINE
  5
58
330
17
100
AcDbEntity
  8
0
100
AcDbLine
 10
152.2427978515625
 20
78.16500091552734
 30
0.0
 11
154.4197998046875
 21
78.16500091552734
 31
0.0
  0
LINE
  5
59
330
17
100
AcDbEntity
  8
0
100
AcDbLine
 10
154.4197998046875
 20
78.16500091552734
 30
0.0
 11
154.4197998046875
 21
74.39700317382812
 31
0.0
  0
LINE
  5
5A
330
17
100
AcDbEntity
  8
0
100
AcDbLine
 10
154.4197998046875
 20
74.39700317382812
 30
0.0
 11
142.69479370117188
 21
74.39700317382812
 31
0.0
  0
CIRCLE
  5
5B
330
17
100
AcDbEntity
  8
0
100
AcDbCircle
 10
142.69479370117188
 20
74.39700317382812
 30
0.0
 40
2.2599945068359375
  0
CIRCLE
  5
5C
330
17
100
AcDbEntity
  8
0
100
AcDbCircle
 10
138.2578125
 20
77.3280029296875
 30
0.0
 40
3.2179620945177163
  0
CIRCLE
  5
5D
330
17
100
AcDbEntity
  8
0
100
AcDbCircle
 10
127.28780364990234
 20
73.72700500488281
 30
0.0
 40
11.724006652832031
  0
CIRCLE
  5
5E
330
17
100
AcDbEntity
  8
0
100
AcDbCircle
 10
117.74180603027344
 20
95.41600036621094
 30
0.0
 40
9.797996520996094
  0
CIRCLE
  5
5F
330
17
100
AcDbEntity
  8
0
100
AcDbCircle
 10
129.21380615234375
 20
80.25900268554688
 30
0.0
 40
3.0991305263890214
  0
LINE
  5
60
330
17
100
AcDbEntity
  8
0
100
AcDbLine
 10
137.83880615234375
 20
84.44499969482422
 30
0.0
 11
137.83880615234375
 21
104.04100036621094
 31
0.0
  0
CIRCLE
  5
61
330
17
100
AcDbEntity
  8
0
100
AcDbCircle
 10
137.83880615234375
 20
104.04100036621094
 30
0.0
 40
4.94486183294585
  0
CIRCLE
  5
62
330
17
100
AcDbEntity
  8
0
100
AcDbCircle
 10
128.29380798339844
 20
110.32099914550781
 30
0.0
 40
6.1970062255859375
  0
CIRCLE
  5
63
330
17
100
AcDbEntity
  8
0
100
AcDbCircle
 10
140.68580627441406
 20
154.78799438476562
 30
0.0
 40
12.588910529975548
  0
CIRCLE
  5
64
330
17
100
AcDbEntity
  8
0
100
AcDbCircle
 10
175.85580444335938
 20
168.60400390625
 30
0.0
 40
8.46851764576903
  0
CIRCLE
  5
65
330
17
100
AcDbEntity
  8
0
100
AcDbCircle
 10
243.93580627441406
 20
144.5709991455078
 30
0.0
 40
39.02400207519531
  0
CIRCLE
  5
66
330
17
100
AcDbEntity
  8
0
100
AcDbCircle
 10
353.30078125
 20
159.64401245117188
 30
0.0
 40
26.29400634765625
  0
CIRCLE
  5
67
330
17
100
AcDbEntity
  8
0
100
AcDbCircle
 10
394.080810546875
 20
132.8470001220703
 30
0.0
 40
5.025598206687085
  0
CIRCLE
  5
68
330
17
100
AcDbEntity
  8
0
100
AcDbCircle
 10
409.74078369140625
 20
140.21600341796875
 30
0.0
 40
13.06304931640625
  0
LINE
  5
69
330
17
100
AcDbEntity
  8
0
100
AcDbLine
 10
430.25677490234375
 20
117.69100189208984
 30
0.0
 11
430.25677490234375
 21
81.93400573730469
 31
0.0
  0
CIRCLE
  5
6A
330
17
100
AcDbEntity
  8
0
100
AcDbCircle
 10
430.25677490234375
 20
81.93400573730469
 30
0.0
 40
2.6800003051757812
  0
LINE
  5
6B
330
17
100
AcDbEntity
  8
0
100
AcDbLine
 10
433.02081298828125
 20
78.16500091552734
 30
0.0
 11
435.19781494140625
 21
78.16500091552734
 31
0.0
  0
LINE
  5
6C
330
17
100
AcDbEntity
  8
0
100
AcDbLine
 10
435.19781494140625
 20
78.16500091552734
 30
0.0
 11
435.19781494140625
 21
74.39700317382812
 31
0.0
  0
LINE
  5
6D
330
17
100
AcDbEntity
  8
0
100
AcDbLine
 10
435.19781494140625
 20
74.39700317382812
 30
0.0
 11
423.39080810546875
 21
74.39700317382812
 31
0.0
  0
CIRCLE
  5
6E
330
17
100
AcDbEntity
  8
0
100
AcDbCircle
 10
423.39080810546875
 20
74.39700317382812
 30
0.0
 40
2.9310302734375
  0
CIRCLE
  5
6F
330
17
100
AcDbEntity
  8
0
100
AcDbCircle
 10
418.7017822265625
 20
77.74700164794922
 30
0.0
 40
3.3254866665037173
  0
CIRCLE
  5
70
330
17
100
AcDbEntity
  8
0
100
AcDbCircle
 10
407.31280517578125
 20
73.72700500488281
 30
0.0
 40
11.7249755859375
  0
CIRCLE
  5
71
330
17
100
AcDbEntity
  8
0
100
AcDbCircle
 10
384.70379638671875
 20
96.25300598144531
 30
0.0
 40
12.225997924804688
  0
CIRCLE
  5
72
330
17
100
AcDbEntity
  8
0
100
AcDbCircle
 10
405.05181884765625
 20
117.02100372314453
 30
0.0
 40
5.7779541015625
  0
LINE
  5
73
330
17
100
AcDbEntity
  8
0
100
AcDbLine
 10
418.5338134765625
 20
110.572998046875
 30
0.0
 11
418.5338134765625
 21
118.69500732421875
 31
0.0
  0
CIRCLE
  5
74
330
17
100
AcDbEntity
  8
0
100
AcDbCircle
 10
418.5338134765625
 20
118.69500732421875
 30
0.0
 40
11.222000122070312
  0
CIRCLE
  5
75
330
17
100
AcDbEntity
  8
0
100
AcDbCircle
 10
406.642822265625
 20
134.27200317382812
 30
0.0
 40
7.4530029296875
  0
LINE
  5
76
330
17
100
AcDbEntity
  8
0
100
AcDbLine
 10
393.998779296875
 20
123.21700286865234
 30
0.0
 11
390.4818115234375
 21
123.21700286865234
 31
0.0
  0
CIRCLE
  5
77
330
17
100
AcDbEntity
  8
0
100
AcDbCircle
 10
390.4818115234375
 20
123.21700286865234
 30
0.0
 40
18.17507360009633
  0
CIRCLE
  5
78
330
17
100
AcDbEntity
  8
0
100
AcDbCircle
 10
355.226806640625
 20
151.68800354003906
 30
0.0
 40
38.602996826171875
  0
CIRCLE
  5
79
330
17
100
AcDbEntity
  8
0
100
AcDbCircle
 10
223.58779907226562
 20
124.7239990234375
 30
0.0
 40
51.58399963378906
  0
LINE
  5
7A
330
17
100
AcDbEntity
  8
0
100
AcDbLine
 10
200.30780029296875
 20
48.69000244140625
 30
0.0
 11
202.31781005859375
 21
48.69000244140625
 31
0.0
  0
CIRCLE
  5
7B
330
17
100
AcDbEntity
  8
0
100
AcDbCircle
 10
202.31781005859375
 20
48.69000244140625
 30
0.0
 40
2.093994140625
  0
LINE
  5
7C
330
17
100
AcDbEntity
  8
0
100
AcDbLine
 10
205.16580200195312
 20
51.871002197265625
 30
0.0
 11
205.16580200195312
 21
107.13999938964844
 31
0.0
  0
CIRCLE
  5
7D
330
17
100
AcDbEntity
  8
0
100
AcDbCircle
 10
205.16580200195312
 20
107.13999938964844
 30
0.0
 40
4.772003173828125
  0
LINE
  5
7E
330
17
100
AcDbEntity
  8
0
100
AcDbLine
 10
214.2928009033203
 20
116.26699829101562
 30
0.0
 11
243.76980590820312
 21
116.26699829101562
 31
0.0
  0
CIRCLE
  5
7F
330
17
100
AcDbEntity
  8
0
100
AcDbCircle
 10
243.76980590820312
 20
116.26699829101562
 30
0.0
 40
8.625
  0
CIRCLE
  5
80
330
17
100
AcDbEntity
  8
0
100
AcDbCircle
 10
257.5858154296875
 20
103.78900146484375
 30
0.0
 40
7.200996398925781
  0
CIRCLE
  5
81
330
17
100
AcDbEntity
  8
0
100
AcDbCircle
 10
247.5377960205078
 20
91.06100463867188
 30
0.0
 40
6.180624104943591
  0
CIRCLE
  5
82
330
17
100
AcDbEntity
  8
0
100
AcDbCircle
 10
236.90280151367188
 20
83.69200134277344
 30
0.0
 40
1.5909957885742188
  0
CIRCLE
  5
83
330
17
100
AcDbEntity
  8
0
100
AcDbCircle
 10
240.9217987060547
 20
80.84400177001953
 30
0.0
 40
4.10400390625
  0
LINE
  5
84
330
17
100
AcDbEntity
  8
0
100
AcDbLine
 10
252.6457977294922
 20
86.28900146484375
 30
0.0
 11
259.34478759765625
 21
74.39700317382812
 31
0.0
  0
LINE
  5
85
330
17
100
AcDbEntity
  8
0
100
AcDbLine
 10
259.34478759765625
 20
74.39700317382812
 30
0.0
 11
237.15380859375
 21
74.39700317382812
 31
0.0
  0
CIRCLE
  5
86
330
17
100
AcDbEntity
  8
0
100
AcDbCircle
 10
237.15380859375
 20
74.39700317382812
 30
0.0
 40
6.95001220703125
  0
CIRCLE
  5
87
330
17
100
AcDbEntity
  8
0
100
AcDbCircle
 10
225.93280029296875
 20
84.36299896240234
 30
0.0
 40
7.2010040283203125
  0
CIRCLE
  5
88
330
17
100
AcDbEntity
  8
0
100
AcDbCircle
 10
240.58680725097656
 20
99.10000610351562
 30
0.0
 40
4.046104244593401
  0
CIRCLE
  5
89
330
17
100
AcDbEntity
  8
0
100
AcDbCircle
 10
247.11880493164062
 20
105.63200378417969
 30
0.0
 40
2.6800003051757812
  0
CIRCLE
  5
8A
330
17
100
AcDbEntity
  8
0
100
AcDbCircle
 10
241.75880432128906
 20
110.23800659179688
 30
0.0
 40
8.373001098632812
  0
LINE
  5
8B
330
17
100
AcDbEntity
  8
0
100
AcDbLine
 10
228.19281005859375
 20
98.01100158691406
 30
0.0
 11
225.51380920410156
 21
98.01100158691406
 31
0.0
  0
LINE
  5
8C
330
17
100
AcDbEntity
  8
0
100
AcDbLine
 10
225.51380920410156
 20
98.01100158691406
 30
0.0
 11
225.51380920410156
 21
111.99600219726562
 31
0.0
  0
LINE
  5
8D
330
17
100
AcDbEntity
  8
0
100
AcDbLine
 10
225.51380920410156
 20
111.99600219726562
 30
0.0
 11
219.5688018798828
 21
111.99600219726562
 31
0.0
  0
CIRCLE
  5
8E
330
17
100
AcDbEntity
  8
0
100
AcDbCircle
 10
219.5688018798828
 20
111.99600219726562
 30
0.0
 40
2.1779937744140625
  0
LINE
  5
8F
330
17
100
AcDbEntity
  8
0
100
AcDbLine
 10
216.88980102539062
 20
108.81400299072266
 30
0.0
 11
216.88980102539062
 21
44.92100143432617
 31
0.0
  0
LINE
  5
90
330
17
100
AcDbEntity
  8
0
100
AcDbLine
 10
216.88980102539062
 20
44.92100143432617
 30
0.0
 11
200.30780029296875
 21
44.92100143432617
 31
0.0
  0
LINE
  5
91
330
17
100
AcDbEntity
  8
0
100
AcDbLine
 10
200.30780029296875
 20
44.92100143432617
 30
0.0
 11
200.30780029296875
 21
48.69000244140625
 31
0.0
  0
LINE
  5
92
330
17
100
AcDbEntity
  8
0
100
AcDbLine
 10
258.00482177734375
 20
48.69000244140625
 30
0.0
 11
260.0148010253906
 21
48.69000244140625
 31
0.0
  0
CIRCLE
  5
93
330
17
100
AcDbEntity
  8
0
100
AcDbCircle
 10
260.0148010253906
 20
48.69000244140625
 30
0.0
 40
2.093994140625
  0
LINE
  5
94
330
17
100
AcDbEntity
  8
0
100
AcDbLine
 10
262.86279296875
 20
51.871002197265625
 30
0.0
 11
262.86279296875
 21
102.86900329589844
 31
0.0
  0
CIRCLE
  5
95
330
17
100
AcDbEntity
  8
0
100
AcDbCircle
 10
262.86279296875
 20
102.86900329589844
 30
0.0
 40
8.708000183105469
  0
CIRCLE
  5
96
330
17
100
AcDbEntity
  8
0
100
AcDbCircle
 10
280.36480712890625
 20
117.02100372314453
 30
0.0
 40
10.634002685546875
  0
LINE
  5
97
330
17
100
AcDbEntity
  8
0
100
AcDbLine
 10
297.02880859375
 20
102.36600494384766
 30
0.0
 11
297.02880859375
 21
96.00199890136719
 31
0.0
  0
CIRCLE
  5
98
330
17
100
AcDbEntity
  8
0
100
AcDbCircle
 10
297.02880859375
 20
96.00199890136719
 30
0.0
 40
1.8530924892565277
  0
CIRCLE
  5
99
330
17
100
AcDbEntity
  8
0
100
AcDbCircle
 10
302.7228088378906
 20
97.59200286865234
 30
0.0
 40
9.97263081933245
  0
CIRCLE
  5
9A
330
17
100
AcDbEntity
  8
0
100
AcDbCircle
 10
323.82379150390625
 20
117.02100372314453
 30
0.0
 40
10.217041015625
  0
LINE
  5
9B
330
17
100
AcDbEntity
  8
0
100
AcDbLine
 10
344.33978271484375
 20
101.781005859375
 30
0.0
 11
342.414794921875
 21
100.10600280761719
 31
0.0
  0
CIRCLE
  5
9C
330
17
100
AcDbEntity
  8
0
100
AcDbCircle
 10
342.414794921875
 20
100.10600280761719
 30
0.0
 40
7.849827562641232
  0
CIRCLE
  5
9D
330
17
100
AcDbEntity
  8
0
100
AcDbCircle
 10
327.0908203125
 20
110.06999969482422
 30
0.0
 40
5.946044921875
  0
CIRCLE
  5
9E
330
17
100
AcDbEntity
  8
0
100
AcDbCircle
 10
315.19879150390625
 20
98.5979995727539
 30
0.0
 40
19.617686405943807
  0
CIRCLE
  5
9F
330
17
100
AcDbEntity
  8
0
100
AcDbCircle
 10
348.10882568359375
 20
81.34700012207031
 30
0.0
 40
1.0889892578125
  0
LINE
  5
A0
330
17
100
AcDbEntity
  8
0
100
AcDbLine
 10
350.28680419921875
 20
84.0260009765625
 30
0.0
 11
350.28680419921875
 21
116.26699829101562
 31
0.0
  0
LINE
  5
A1
330
17
100
AcDbEntity
  8
0
100
AcDbLine
 10
350.28680419921875
 20
116.26699829101562
 30
0.0
 11
366.8668212890625
 21
116.26699829101562
 31
0.0
  0
LINE
  5
A2
330
17
100
AcDbEntity
  8
0
100
AcDbLine
 10
366.8668212890625
 20
116.26699829101562
 30
0.0
 11
366.8668212890625
 21
112.4990005493164
 31
0.0
  0
LINE
  5
A3
330
17
100
AcDbEntity
  8
0
100
AcDbLine
 10
366.8668212890625
 20
112.4990005493164
 30
0.0
 11
364.35382080078125
 21
112.4990005493164
 31
0.0
  0
CIRCLE
  5
A4
330
17
100
AcDbEntity
  8
0
100
AcDbCircle
 10
364.35382080078125
 20
112.4990005493164
 30
0.0
 40
1.59002685546875
  0
LINE
  5
A5
330
17
100
AcDbEntity
  8
0
100
AcDbLine
 10
362.01080322265625
 20
108.73100280761719
 30
0.0
 11
362.01080322265625
 21
93.57400512695312
 31
0.0
  0
CIRCLE
  5
A6
330
17
100
AcDbEntity
  8
0
100
AcDbCircle
 10
362.01080322265625
 20
93.57400512695312
 30
0.0
 40
4.0200042724609375
  0
CIRCLE
  5
A7
330
17
100
AcDbEntity
  8
0
100
AcDbCircle
 10
367.45379638671875
 20
83.35700225830078
 30
0.0
 40
2.0714936890624034
  0
CIRCLE
  5
A8
330
17
100
AcDbEntity
  8
0
100
AcDbCircle
 10
374.73883056640625
 20
87.96200561523438
 30
0.0
 40
8.1209716796875
  0
CIRCLE
  5
A9
330
17
100
AcDbEntity
  8
0
100
AcDbCircle
 10
388.38677978515625
 20
72.052001953125
 30
0.0
 40
8.123001098632812
  0
CIRCLE
  5
AA
330
17
100
AcDbEntity
  8
0
100
AcDbCircle
 10
382.60882568359375
 20
61.16600036621094
 30
0.0
 40
2.093994140625
  0
CIRCLE
  5
AB
330
17
100
AcDbEntity
  8
0
100
AcDbCircle
 10
379.9298095703125
 20
63.92900085449219
 30
0.0
 40
5.4429931640625
  0
CIRCLE
  5
AC
330
17
100
AcDbEntity
  8
0
100
AcDbCircle
 10
380.51483154296875
 20
74.73200225830078
 30
0.0
 40
2.76202392578125
  0
CIRCLE
  5
AD
330
17
100
AcDbEntity
  8
0
100
AcDbCircle
 10
372.97979736328125
 20
71.04700469970703
 30
0.0
 40
3.76800537109375
  0
CIRCLE
  5
AE
330
17
100
AcDbEntity
  8
0
100
AcDbCircle
 10
366.36383056640625
 20
78.2490005493164
 30
0.0
 40
1.9274456929966688
  0
LINE
  5
AF
330
17
100
AcDbEntity
  8
0
100
AcDbLine
 10
362.0927734375
 20
82.35100555419922
 30
0.0
 11
362.01080322265625
 21
82.35100555419922
 31
0.0
  0
LINE
  5
B0
330
17
100
AcDbEntity
  8
0
100
AcDbLine
 10
362.01080322265625
 20
82.35100555419922
 30
0.0
 11
362.01080322265625
 21
81.85000610351562
 31
0.0
  0
CIRCLE
  5
B1
330
17
100
AcDbEntity
  8
0
100
AcDbCircle
 10
362.01080322265625
 20
81.85000610351562
 30
0.0
 40
4.8560028076171875
  0
CIRCLE
  5
B2
330
17
100
AcDbEntity
  8
0
100
AcDbCircle
 10
353.80181884765625
 20
73.72700500488281
 30
0.0
 40
7.20098876953125
  0
CIRCLE
  5
B3
330
17
100
AcDbEntity
  8
0
100
AcDbCircle
 10
336.7208251953125
 20
84.36299896240234
 30
0.0
 40
0.5099614862025782
  0
CIRCLE
  5
B4
330
17
100
AcDbEntity
  8
0
100
AcDbCircle
 10
336.88677978515625
 20
82.85400390625
 30
0.0
 40
5.5260009765625
  0
CIRCLE
  5
B5
330
17
100
AcDbEntity
  8
0
100
AcDbCircle
 10
325.41583251953125
 20
73.72700500488281
 30
0.0
 40
12.47802734375
  0
CIRCLE
  5
B6
330
17
100
AcDbEntity
  8
0
100
AcDbCircle
 10
302.9728088378906
 20
93.32200622558594
 30
0.0
 40
2.5784896401374953
  0
LINE
  5
B7
330
17
100
AcDbEntity
  8
0
100
AcDbLine
 10
297.02880859375
 20
91.31200408935547
 30
0.0
 11
297.02880859375
 21
74.39700317382812
 31
0.0
  0
LINE
  5
B8
330
17
100
AcDbEntity
  8
0
100
AcDbLine
 10
297.02880859375
 20
74.39700317382812
 30
0.0
 11
283.4627990722656
 21
74.39700317382812
 31
0.0
  0
LINE
  5
B9
330
17
100
AcDbEntity
  8
0
100
AcDbLine
 10
283.4627990722656
 20
74.39700317382812
 30
0.0
 11
283.4627990722656
 21
81.76599884033203
 31
0.0
  0
CIRCLE
  5
BA
330
17
100
AcDbEntity
  8
0
100
AcDbCircle
 10
283.4627990722656
 20
81.76599884033203
 30
0.0
 40
3.4330062866210938
  0
LINE
  5
BB
330
17
100
AcDbEntity
  8
0
100
AcDbLine
 10
291.5858154296875
 20
93.23899841308594
 30
0.0
 11
291.5858154296875
 21
101.27799987792969
 31
0.0
  0
CIRCLE
  5
BC
330
17
100
AcDbEntity
  8
0
100
AcDbCircle
 10
291.5858154296875
 20
101.27799987792969
 30
0.0
 40
6.866004943847656
  0
CIRCLE
  5
BD
330
17
100
AcDbEntity
  8
0
100
AcDbCircle
 10
282.9598083496094
 20
110.822998046875
 30
0.0
 40
5.946014404296875
  0
LINE
  5
BE
330
17
100
AcDbEntity
  8
0
100
AcDbLine
 10
274.5867919921875
 20
102.36600494384766
 30
0.0
 11
274.5867919921875
 21
44.92100143432617
 31
0.0
  0
LINE
  5
BF
330
17
100
AcDbEntity
  8
0
100
AcDbLine
 10
274.5867919921875
 20
44.92100143432617
 30
0.0
 11
258.00482177734375
 21
44.92100143432617
 31
0.0
  0
LINE
  5
C0
330
17
100
AcDbEntity
  8
0
100
AcDbLine
 10
258.00482177734375
 20
44.92100143432617
 30
0.0
 11
258.00482177734375
 21
48.69000244140625
 31
0.0
  0
CIRCLE
  5
C1
330
17
100
AcDbEntity
  8
0
100
AcDbCircle
 10
315.19879150390625
 20
94.3270034790039
 30
0.0
 40
10.32283493412585
  0
CIRCLE
  5
C2
330
17
100
AcDbEntity
  8
0
100
AcDbCircle
 10
326.08477783203125
 20
80.25900268554688
 30
0.0
 40
2.6800537109375
  0
CIRCLE
  5
C3
330
17
100
AcDbEntity
  8
0
100
AcDbCircle
 10
330.94281005859375
 20
84.44499969482422
 30
0.0
 40
5.7779998779296875
  0
CIRCLE
  5
C4
330
17
100
AcDbEntity
  8
0
100
AcDbCircle
 10
346.30877685546875
 20
36.12800216674805
 30
0.0
 40
2.212037468043634
  0
CIRCLE
  5
C5
330
17
100
AcDbEntity
  8
0
100
AcDbCircle
 10
347.5648193359375
 20
40.733001708984375
 30
0.0
 40
0.9764929563749649
  0
CIRCLE
  5
C6
330
17
100
AcDbEntity
  8
0
100
AcDbCircle
 10
348.23480224609375
 20
43.16200256347656
 30
0.0
 40
1.9525137897764133
  0
CIRCLE
  5
C7
330
17
100
AcDbEntity
  8
0
100
AcDbCircle
 10
349.40777587890625
 20
47.68400192260742
 30
0.0
 40
1.4635742273661663
  0
CIRCLE
  5
C8
330
17
100
AcDbEntity
  8
0
100
AcDbCircle
 10
352.75677490234375
 20
47.768001556396484
 30
0.0
 40
1.9475633122611222
  0
CIRCLE
  5
C9
330
17
100
AcDbEntity
  8
0
100
AcDbCircle
 10
357.78082275390625
 20
46.51100158691406
 30
0.0
 40
0.6768382220544418
  0
CIRCLE
  5
CA
330
17
100
AcDbEntity
  8
0
100
AcDbCircle
 10
358.78680419921875
 20
48.18700408935547
 30
0.0
 40
2.092998504638672
  0
CIRCLE
  5
CB
330
17
100
AcDbEntity
  8
0
100
AcDbCircle
 10
355.101806640625
 20
51.95500183105469
 30
0.0
 40
0.7905642982078019
  0
CIRCLE
  5
CC
330
17
100
AcDbEntity
  8
0
100
AcDbCircle
 10
353.50982666015625
 20
54.88600158691406
 30
0.0
 40
1.8420028686523438
  0
CIRCLE
  5
CD
330
17
100
AcDbEntity
  8
0
100
AcDbCircle
 10
356.85882568359375
 20
58.1510009765625
 30
0.0
 40
1.1729736328125
  0
CIRCLE
  5
CE
330
17
100
AcDbEntity
  8
0
100
AcDbCircle
 10
358.6187744140625
 20
59.99500274658203
 30
0.0
 40
1.5069999694824219
  0
CIRCLE
  5
CF
330
17
100
AcDbEntity
  8
0
100
AcDbCircle
 10
362.05181884765625
 20
63.34400177001953
 30
0.0
 40
2.177001953125
  0
CIRCLE
  5
D0
330
17
100
AcDbEntity
  8
0
100
AcDbCircle
 10
365.40081787109375
 20
59.99500274658203
 30
0.0
 40
1.0900001525878906
  0
CIRCLE
  5
D1
330
17
100
AcDbEntity
  8
0
100
AcDbCircle
 10
367.1588134765625
 20
58.1510009765625
 30
0.0
 40
1.927001953125
  0
CIRCLE
  5
D2
330
17
100
AcDbEntity
  8
0
100
AcDbCircle
 10
370.5087890625
 20
54.88600158691406
 30
0.0
 40
1.4239997863769531
  0
CIRCLE
  5
D3
330
17
100
AcDbEntity
  8
0
100
AcDbCircle
 10
368.91778564453125
 20
51.95500183105469
 30
0.0
 40
1.928007885029596
  0
CIRCLE
  5
D4
330
17
100
AcDbEntity
  8
0
100
AcDbCircle
 10
365.23382568359375
 20
48.18700408935547
 30
0.0
 40
0.6700019836425781
  0
CIRCLE
  5
D5
330
17
100
AcDbEntity
  8
0
100
AcDbCircle
 10
366.23883056640625
 20
46.51100158691406
 30
0.0
 40
2.02449009302167
  0
CIRCLE
  5
D6
330
17
100
AcDbEntity
  8
0
100
AcDbCircle
 10
371.2628173828125
 20
47.768001556396484
 30
0.0
 40
0.8625716142512057
  0
CIRCLE
  5
D7
330
17
100
AcDbEntity
  8
0
100
AcDbCircle
 10
374.61181640625
 20
47.68400192260742
 30
0.0
 40
1.8383513042993471
  0
CIRCLE
  5
D8
330
17
100
AcDbEntity
  8
0
100
AcDbCircle
 10
375.78582763671875
 20
43.16200256347656
 30
0.0
 40
1.1630265126095818
  0
CIRCLE
  5
D9
330
17
100
AcDbEntity
  8
0
100
AcDbCircle
 10
376.455810546875
 20
40.733001708984375
 30
0.0
 40
1.536196195389268
  0
CIRCLE
  5
DA
330
17
100
AcDbEntity
  8
0
100
AcDbCircle
 10
377.7108154296875
 20
36.12800216674805
 30
0.0
 40
2.2551011678966217
  0
CIRCLE
  5
DB
330
17
100
AcDbEntity
  8
0
100
AcDbCircle
 10
373.10479736328125
 20
34.87200164794922
 30
0.0
 40
1.0480321807814041
  0
CIRCLE
  5
DC
330
17
100
AcDbEntity
  8
0
100
AcDbCircle
 10
370.67681884765625
 20
34.28600311279297
 30
0.0
 40
1.9533707427496658
  0
CIRCLE
  5
DD
330
17
100
AcDbEntity
  8
0
100
AcDbCircle
 10
366.15380859375
 20
33.02900314331055
 30
0.0
 40
1.4222604661922684
  0
CIRCLE
  5
DE
330
17
100
AcDbEntity
  8
0
100
AcDbCircle
 10
364.39678955078125
 20
35.87700271606445
 30
0.0
 40
1.9333091956975517
  0
CIRCLE
  5
DF
330
17
100
AcDbEntity
  8
0
100
AcDbCircle
 10
362.97381591796875
 20
40.9010009765625
 30
0.0
 40
0.6758981903213738
  0
CIRCLE
  5
E0
330
17
100
AcDbEntity
  8
0
100
AcDbCircle
 10
361.0457763671875
 20
40.9010009765625
 30
0.0
 40
2.0249859328462256
  0
CIRCLE
  5
E1
330
17
100
AcDbEntity
  8
0
100
AcDbCircle
 10
359.622802734375
 20
35.87700271606445
 30
0.0
 40
0.8370018005371094
  0
CIRCLE
  5
E2
330
17
100
AcDbEntity
  8
0
100
AcDbCircle
 10
357.86480712890625
 20
33.02900314331055
 30
0.0
 40
1.8383513042993471
  0
CIRCLE
  5
E3
330
17
100
AcDbEntity
  8
0
100
AcDbCircle
 10
353.42578125
 20
34.28600311279297
 30
0.0
 40
1.1619771453416508
  0
CIRCLE
  5
E4
330
17
100
AcDbEntity
  8
0
100
AcDbCircle
 10
350.914794921875
 20
34.87200164794922
 30
0.0
 40
1.5379521075752205
  0
CIRCLE
  5
E5
330
17
100
AcDbEntity
  8
0
100
AcDbCircle
 10
397.68280029296875
 20
95.41600036621094
 30
0.0
 40
9.797996520996094
  0
CIRCLE
  5
E6
330
17
100
AcDbEntity
  8
0
100
AcDbCircle
 10
409.15380859375
 20
80.25900268554688
 30
0.0
 40
3.4360244711034467
  0
LINE
  5
E7
330
17
100
AcDbEntity
  8
0
100
AcDbLine
 10
418.5338134765625
 20
85.53400421142578
 30
0.0
 11
418.5338134765625
 21
102.45000457763672
 31
0.0
  0
CIRCLE
  5
E8
330
17
100
AcDbEntity
  8
0
100
AcDbCircle
 10
418.5338134765625
 20
102.45000457763672
 30
0.0
 40
5.894845022065581
  0
CIRCLE
  5
E9
330
17
100
AcDbEntity
  8
0
100
AcDbCircle
 10
408.23382568359375
 20
110.32099914550781
 30
0.0
 40
6.113037109375
  0
CIRCLE
  5
EA
330
17
100
AcDbEntity
  8
0
100
AcDbCircle
 10
649.3099975585938
 20
108.39610290527344
 30
0.0
 40
4.6729736328125
  0
CIRCLE
  5
EB
330
17
100
AcDbEntity
  8
0
100
AcDbCircle
 10
657.0269775390625
 20
100.72810363769531
 30
0.0
 40
4.640998840332031
  0
CIRCLE
  5
EC
330
17
100
AcDbEntity
  8
0
100
AcDbCircle
 10
649.3099975585938
 20
93.16709899902344
 30
0.0
 40
4.67401123046875
  0
CIRCLE
  5
ED
330
17
100
AcDbEntity
  8
0
100
AcDbCircle
 10
641.5919799804688
 20
100.72810363769531
 30
0.0
 40
4.644996643066406
  0
CIRCLE
  5
EE
330
17
100
AcDbEntity
  8
0
100
AcDbCircle
 10
690.4619750976562
 20
94.86009979248047
 30
0.0
 40
9.6729736328125
  0
CIRCLE
  5
EF
330
17
100
AcDbEntity
  8
0
100
AcDbCircle
 10
678.5070190429688
 20
70.88510131835938
 30
0.0
 40
13.28399658203125
  0
CIRCLE
  5
F0
330
17
100
AcDbEntity
  8
0
100
AcDbCircle
 10
690.4619750976562
 20
46.80110168457031
 30
0.0
 40
9.6700439453125
  0
CIRCLE
  5
F1
330
17
100
AcDbEntity
  8
0
100
AcDbCircle
 10
702.2000122070312
 20
70.88510131835938
 30
0.0
 40
13.284004211425781
  0
CIRCLE
  5
F2
330
17
100
AcDbEntity
  8
0
100
AcDbCircle
 10
690.5709838867188
 20
109.9801025390625
 30
0.0
 40
19.66802978515625
  0
CIRCLE
  5
F3
330
17
100
AcDbEntity
  8
0
100
AcDbCircle
 10
720.6740112304688
 20
70.88510131835938
 30
0.0
 40
24.2969970703125
  0
CIRCLE
  5
F4
330
17
100
AcDbEntity
  8
0
100
AcDbCircle
 10
690.5709838867188
 20
31.681106567382812
 30
0.0
 40
19.8909912109375
  0
CIRCLE
  5
F5
330
17
100
AcDbEntity
  8
0
100
AcDbCircle
 10
660.0330200195312
 20
70.88510131835938
 30
0.0
 40
24.29700469970703
  0
CIRCLE
  5
F6
330
17
100
AcDbEntity
  8
0
100
AcDbCircle
 10
608.3740234375
 20
94.86009979248047
 30
0.0
 40
9.6719970703125
  0
CIRCLE
  5
F7
330
17
100
AcDbEntity
  8
0
100
AcDbCircle
 10
596.4190063476562
 20
70.88510131835938
 30
0.0
 40
13.28399658203125
  0
CIRCLE
  5
F8
330
17
100
AcDbEntity
  8
0
100
AcDbCircle
 10
608.3740234375
 20
46.80110168457031
 30
0.0
 40
9.67095947265625
  0
CIRCLE
  5
F9
330
17
100
AcDbEntity
  8
0
100
AcDbCircle
 10
620.1119995117188
 20
70.88510131835938
 30
0.0
 40
13.284004211425781
  0
CIRCLE
  5
FA
330
17
100
AcDbEntity
  8
0
100
AcDbCircle
 10
608.4840087890625
 20
109.9801025390625
 30
0.0
 40
19.6669921875
  0
CIRCLE
  5
FB
330
17
100
AcDbEntity
  8
0
100
AcDbCircle
 10
638.5859985351562
 20
70.88510131835938
 30
0.0
 40
24.2969970703125
  0
CIRCLE
  5
FC
330
17
100
AcDbEntity
  8
0
100
AcDbCircle
 10
608.4840087890625
 20
31.681106567382812
 30
0.0
 40
19.8909912109375
  0
CIRCLE
  5
FD
330
17
100
AcDbEntity
  8
0
100
AcDbCircle
 10
577.9459838867188
 20
70.88510131835938
 30
0.0
 40
24.29700469970703
  0
CIRCLE
  5
FE
330
17
100
AcDbEntity
  8
0
100
AcDbCircle
 10
543.0659790039062
 20
96.98910522460938
 30
0.0
 40
6.758995056152344
  0
CIRCLE
  5
FF
330
17
100
AcDbEntity
  8
0
100
AcDbCircle
 10
555.8980102539062
 20
108.8091049194336
 30
0.0
 40
3.26495361328125
  0
LINE
  5
100
330
17
100
AcDbEntity
  8
0
100
AcDbLine
 10
563.3419799804688
 20
106.58910369873047
 30
0.0
 11
560.8610229492188
 21
102.506103515625
 31
0.0
  0
CIRCLE
  5
101
330
17
100
AcDbEntity
  8
0
100
AcDbCircle
 10
560.8610229492188
 20
102.506103515625
 30
0.0
 40
1.2496475215431955
  0
CIRCLE
  5
102
330
17
100
AcDbEntity
  8
0
100
AcDbCircle
 10
556.2249755859375
 20
104.23710632324219
 30
0.0
 40
4.14697265625
  0
CIRCLE
  5
103
330
17
100
AcDbEntity
  8
0
100
AcDbCircle
 10
549.073974609375
 20
96.98910522460938
 30
0.0
 40
4.2779998779296875
  0
CIRCLE
  5
104
330
17
100
AcDbEntity
  8
0
100
AcDbCircle
 10
556.2249755859375
 20
89.74110412597656
 30
0.0
 40
1.99102783203125
  0
LINE
  5
105
330
17
100
AcDbEntity
  8
0
100
AcDbLine
 10
560.8280029296875
 20
91.69910430908203
 30
0.0
 11
563.3419799804688
 21
87.38909912109375
 31
0.0
  0
CIRCLE
  5
106
330
17
100
AcDbEntity
  8
0
100
AcDbCircle
 10
563.3419799804688
 20
87.38909912109375
 30
0.0
 40
2.011203915320469
  0
CIRCLE
  5
107
330
17
100
AcDbEntity
  8
0
100
AcDbCircle
 10
555.8980102539062
 20
85.16910552978516
 30
0.0
 40
7.96697998046875
  0
LINE
  5
108
330
17
100
AcDbEntity
  8
0
100
AcDbLine
 10
529.125
 20
103.6511001586914
 30
0.0
 11
529.125
 21
85.59410095214844
 31
0.0
  0
LINE
  5
109
330
17
100
AcDbEntity
  8
0
100
AcDbLine
 10
529.125
 20
85.59410095214844
 30
0.0
 11
523.4769897460938
 21
85.59410095214844
 31
0.0
  0
LINE
  5
10A
330
17
100
AcDbEntity
  8
0
100
AcDbLine
 10
523.4769897460938
 20
85.59410095214844
 30
0.0
 11
523.4769897460938
 21
108.45010375976562
 31
0.0
  0
LINE
  5
10B
330
17
100
AcDbEntity
  8
0
100
AcDbLine
 10
523.4769897460938
 20
108.45010375976562
 30
0.0
 11
538.2680053710938
 21
108.45010375976562
 31
0.0
  0
LINE
  5
10C
330
17
100
AcDbEntity
  8
0
100
AcDbLine
 10
538.2680053710938
 20
108.45010375976562
 30
0.0
 11
538.2680053710938
 21
103.6511001586914
 31
0.0
  0
LINE
  5
10D
330
17
100
AcDbEntity
  8
0
100
AcDbLine
 10
538.2680053710938
 20
103.6511001586914
 30
0.0
 11
529.125
 21
103.6511001586914
 31
0.0
  0
LINE
  5
10E
330
17
100
AcDbEntity
  8
0
100
AcDbLine
 10
503.1369934082031
 20
99.79710388183594
 30
0.0
 11
505.74798583984375
 21
90.1321029663086
 31
0.0
  0
LINE
  5
10F
330
17
100
AcDbEntity
  8
0
100
AcDbLine
 10
505.74798583984375
 20
90.1321029663086
 30
0.0
 11
508.3280029296875
 21
99.79710388183594
 31
0.0
  0
LINE
  5
110
330
17
100
AcDbEntity
  8
0
100
AcDbLine
 10
508.3280029296875
 20
99.79710388183594
 30
0.0
 11
503.1369934082031
 21
99.79710388183594
 31
0.0
  0
LINE
  5
111
330
17
100
AcDbEntity
  8
0
100
AcDbLine
 10
510.67901611328125
 20
108.45010375976562
 30
0.0
 11
516.5889892578125
 21
108.45010375976562
 31
0.0
  0
LINE
  5
112
330
17
100
AcDbEntity
  8
0
100
AcDbLine
 10
516.5889892578125
 20
108.45010375976562
 30
0.0
 11
509.3079833984375
 21
85.59410095214844
 31
0.0
  0
LINE
  5
113
330
17
100
AcDbEntity
  8
0
100
AcDbLine
 10
509.3079833984375
 20
85.59410095214844
 30
0.0
 11
502.19000244140625
 21
85.59410095214844
 31
0.0
  0
LINE
  5
114
330
17
100
AcDbEntity
  8
0
100
AcDbLine
 10
502.19000244140625
 20
85.59410095214844
 30
0.0
 11
494.90802001953125
 21
108.45010375976562
 31
0.0
  0
LINE
  5
115
330
17
100
AcDbEntity
  8
0
100
AcDbLine
 10
494.90802001953125
 20
108.45010375976562
 30
0.0
 11
500.8179931640625
 21
108.45010375976562
 31
0.0
  0
LINE
  5
116
330
17
100
AcDbEntity
  8
0
100
AcDbLine
 10
500.8179931640625
 20
108.45010375976562
 30
0.0
 11
501.927978515625
 21
104.3351058959961
 31
0.0
  0
LINE
  5
117
330
17
100
AcDbEntity
  8
0
100
AcDbLine
 10
501.927978515625
 20
104.3351058959961
 30
0.0
 11
509.5690002441406
 21
104.3351058959961
 31
0.0
  0
LINE
  5
118
330
17
100
AcDbEntity
  8
0
100
AcDbLine
 10
509.5690002441406
 20
104.3351058959961
 30
0.0
 11
510.67901611328125
 21
108.45010375976562
 31
0.0
  0
LINE
  5
119
330
17
100
AcDbEntity
  8
0
100
AcDbLine
 10
797.6640014648438
 20
103.65410614013672
 30
0.0
 11
797.6640014648438
 21
85.61109924316406
 31
0.0
  0
LINE
  5
11A
330
17
100
AcDbEntity
  8
0
100
AcDbLine
 10
797.6640014648438
 20
85.61109924316406
 30
0.0
 11
791.947021484375
 21
85.61109924316406
 31
0.0
  0
LINE
  5
11B
330
17
100
AcDbEntity
  8
0
100
AcDbLine
 10
791.947021484375
 20
85.61109924316406
 30
0.0
 11
791.947021484375
 21
108.45010375976562
 31
0.0
  0
LINE
  5
11C
330
17
100
AcDbEntity
  8
0
100
AcDbLine
 10
791.947021484375
 20
108.45010375976562
 30
0.0
 11
806.9169921875
 21
108.45010375976562
 31
0.0
  0
LINE
  5
11D
330
17
100
AcDbEntity
  8
0
100
AcDbLine
 10
806.9169921875
 20
108.45010375976562
 30
0.0
 11
806.9169921875
 21
103.65410614013672
 31
0.0
  0
LINE
  5
11E
330
17
100
AcDbEntity
  8
0
100
AcDbLine
 10
806.9169921875
 20
103.65410614013672
 30
0.0
 11
797.6640014648438
 21
103.65410614013672
 31
0.0
  0
CIRCLE
  5
11F
330
17
100
AcDbEntity
  8
0
100
AcDbCircle
 10
772.5490112304688
 20
104.3071060180664
 30
0.0
 40
4.0980224609375
  0
CIRCLE
  5
120
330
17
100
AcDbEntity
  8
0
100
AcDbCircle
 10
766.27001953125
 20
97.03010559082031
 30
0.0
 40
4.111000061035156
  0
CIRCLE
  5
121
330
17
100
AcDbEntity
  8
0
100
AcDbCircle
 10
772.5490112304688
 20
89.7551040649414
 30
0.0
 40
4.09796142578125
  0
CIRCLE
  5
122
330
17
100
AcDbEntity
  8
0
100
AcDbCircle
 10
778.6959838867188
 20
97.03010559082031
 30
0.0
 40
3.9160003662109375
  0
CIRCLE
  5
123
330
17
100
AcDbEntity
  8
0
100
AcDbCircle
 10
772.5159912109375
 20
108.87409973144531
 30
0.0
 40
7.3370361328125
  0
CIRCLE
  5
124
330
17
100
AcDbEntity
  8
0
100
AcDbCircle
 10
784.7780151367188
 20
97.03010559082031
 30
0.0
 40
6.590003967285156
  0
CIRCLE
  5
125
330
17
100
AcDbEntity
  8
0
100
AcDbCircle
 10
772.5159912109375
 20
85.18710327148438
 30
0.0
 40
7.53497314453125
  0
CIRCLE
  5
126
330
17
100
AcDbEntity
  8
0
100
AcDbCircle
 10
760.18896484375
 20
97.03010559082031
 30
0.0
 40
6.394996643066406
  0
LINE
  5
127
330
17
100
AcDbEntity
  8
0
100
AcDbLine
 10
749.9140014648438
 20
85.61109924316406
 30
0.0
 11
744.8900146484375
 21
103.03410339355469
 31
0.0
  0
LINE
  5
128
330
17
100
AcDbEntity
  8
0
100
AcDbLine
 10
744.8900146484375
 20
103.03410339355469
 30
0.0
 11
739.9000244140625
 21
85.61109924316406
 31
0.0
  0
LINE
  5
129
330
17
100
AcDbEntity
  8
0
100
AcDbLine
 10
739.9000244140625
 20
85.61109924316406
 30
0.0
 11
734.0830078125
 21
85.61109924316406
 31
0.0
  0
LINE
  5
12A
330
17
100
AcDbEntity
  8
0
100
AcDbLine
 10
734.0830078125
 20
85.61109924316406
 30
0.0
 11
741.2879638671875
 21
108.45010375976562
 31
0.0
  0
LINE
  5
12B
330
17
100
AcDbEntity
  8
0
100
AcDbLine
 10
741.2879638671875
 20
108.45010375976562
 30
0.0
 11
748.5260009765625
 21
108.45010375976562
 31
0.0
  0
LINE
  5
12C
330
17
100
AcDbEntity
  8
0
100
AcDbLine
 10
748.5260009765625
 20
108.45010375976562
 30
0.0
 11
755.7310180664062
 21
85.61109924316406
 31
0.0
  0
LINE
  5
12D
330
17
100
AcDbEntity
  8
0
100
AcDbLine
 10
755.7310180664062
 20
85.61109924316406
 30
0.0
 11
749.9140014648438
 21
85.61109924316406
 31
0.0
  0
LINE
  5
12E
330
17
100
AcDbEntity
  8
0
100
AcDbLine
 10
765.0540161132812
 20
135.2530975341797
 30
0.0
 11
765.0540161132812
 21
130.87210083007812
 31
0.0
  0
LINE
  5
12F
330
17
100
AcDbEntity
  8
0
100
AcDbLine
 10
765.0540161132812
 20
130.87210083007812
 30
0.0
 11
751.3709716796875
 21
130.87210083007812
 31
0.0
  0
LINE
  5
130
330
17
100
AcDbEntity
  8
0
100
AcDbLine
 10
751.3709716796875
 20
130.87210083007812
 30
0.0
 11
751.3709716796875
 21
151.73910522460938
 31
0.0
  0
LINE
  5
131
330
17
100
AcDbEntity
  8
0
100
AcDbLine
 10
751.3709716796875
 20
151.73910522460938
 30
0.0
 11
765.0540161132812
 21
151.73910522460938
 31
0.0
  0
LINE
  5
132
330
17
100
AcDbEntity
  8
0
100
AcDbLine
 10
765.0540161132812
 20
151.73910522460938
 30
0.0
 11
765.0540161132812
 21
147.35610961914062
 31
0.0
  0
LINE
  5
133
330
17
100
AcDbEntity
  8
0
100
AcDbLine
 10
765.0540161132812
 20
147.35610961914062
 30
0.0
 11
756.5289916992188
 21
147.35610961914062
 31
0.0
  0
LINE
  5
134
330
17
100
AcDbEntity
  8
0
100
AcDbLine
 10
756.5289916992188
 20
147.35610961914062
 30
0.0
 11
756.5289916992188
 21
142.9141082763672
 31
0.0
  0
LINE
  5
135
330
17
100
AcDbEntity
  8
0
100
AcDbLine
 10
756.5289916992188
 20
142.9141082763672
 30
0.0
 11
764.875
 21
142.9141082763672
 31
0.0
  0
LINE
  5
136
330
17
100
AcDbEntity
  8
0
100
AcDbLine
 10
764.875
 20
142.9141082763672
 30
0.0
 11
764.875
 21
138.91810607910156
 31
0.0
  0
LINE
  5
137
330
17
100
AcDbEntity
  8
0
100
AcDbLine
 10
764.875
 20
138.91810607910156
 30
0.0
 11
756.5289916992188
 21
138.91810607910156
 31
0.0
  0
LINE
  5
138
330
17
100
AcDbEntity
  8
0
100
AcDbLine
 10
756.5289916992188
 20
138.91810607910156
 30
0.0
 11
756.5289916992188
 21
135.2530975341797
 31
0.0
  0
LINE
  5
139
330
17
100
AcDbEntity
  8
0
100
AcDbLine
 10
756.5289916992188
 20
135.2530975341797
 30
0.0
 11
765.0540161132812
 21
135.2530975341797
 31
0.0
  0
LWPOLYLINE
  5
13A
330
17
100
AcDbEntity
  8
0
100
AcDbPolyline
 90
4
 70
1
 10
738.3729858398438
 20
130.87210083007812
 10
743.5289916992188
 20
130.87210083007812
 10
743.5289916992188
 20
151.7371063232422
 10
738.3729858398438
 20
151.7371063232422
  0
CIRCLE
  5
13B
330
17
100
AcDbEntity
  8
0
100
AcDbCircle
 10
725.833984375
 20
137.81710815429688
 30
0.0
 40
1.8470001220703125
  0
LINE
  5
13C
330
17
100
AcDbEntity
  8
0
100
AcDbLine
 10
722.0770263671875
 20
140.61911010742188
 30
0.0
 11
719.843017578125
 21
140.61911010742188
 31
0.0
  0
LINE
  5
13D
330
17
100
AcDbEntity
  8
0
100
AcDbLine
 10
719.843017578125
 20
140.61911010742188
 30
0.0
 11
719.843017578125
 21
135.04310607910156
 31
0.0
  0
LINE
  5
13E
330
17
100
AcDbEntity
  8
0
100
AcDbLine
 10
719.843017578125
 20
135.04310607910156
 30
0.0
 11
722.1669921875
 21
135.04310607910156
 31
0.0
  0
CIRCLE
  5
13F
330
17
100
AcDbEntity
  8
0
100
AcDbCircle
 10
722.1669921875
 20
135.04310607910156
 30
0.0
 40
2.56298828125
  0
CIRCLE
  5
140
330
17
100
AcDbEntity
  8
0
100
AcDbCircle
 10
726.698974609375
 20
143.86810302734375
 30
0.0
 40
2.5450026873685503
  0
CIRCLE
  5
141
330
17
100
AcDbEntity
  8
0
100
AcDbCircle
 10
731.0809936523438
 20
137.81710815429688
 30
0.0
 40
4.4420013427734375
  0
LINE
  5
142
330
17
100
AcDbEntity
  8
0
100
AcDbLine
 10
722.5250244140625
 20
130.87210083007812
 30
0.0
 11
714.6849975585938
 21
130.87210083007812
 31
0.0
  0
LINE
  5
143
330
17
100
AcDbEntity
  8
0
100
AcDbLine
 10
714.6849975585938
 20
130.87210083007812
 30
0.0
 11
714.6849975585938
 21
151.73910522460938
 31
0.0
  0
LINE
  5
144
330
17
100
AcDbEntity
  8
0
100
AcDbLine
 10
714.6849975585938
 20
151.73910522460938
 30
0.0
 11
719.843017578125
 21
151.73910522460938
 31
0.0
  0
LINE
  5
145
330
17
100
AcDbEntity
  8
0
100
AcDbLine
 10
719.843017578125
 20
151.73910522460938
 30
0.0
 11
719.843017578125
 21
144.64210510253906
 31
0.0
  0
LINE
  5
146
330
17
100
AcDbEntity
  8
0
100
AcDbLine
 10
719.843017578125
 20
144.64210510253906
 30
0.0
 11
721.6900024414062
 21
144.64210510253906
 31
0.0
  0
LINE
  5
147
330
17
100
AcDbEntity
  8
0
100
AcDbLine
 10
721.6900024414062
 20
144.64210510253906
 30
0.0
 11
725.864013671875
 21
151.73910522460938
 31
0.0
  0
LINE
  5
148
330
17
100
AcDbEntity
  8
0
100
AcDbLine
 10
725.864013671875
 20
151.73910522460938
 30
0.0
 11
731.7369995117188
 21
151.73910522460938
 31
0.0
  0
LINE
  5
149
330
17
100
AcDbEntity
  8
0
100
AcDbLine
 10
731.7369995117188
 20
151.73910522460938
 30
0.0
 11
726.698974609375
 21
143.86810302734375
 31
0.0
  0
CIRCLE
  5
14A
330
17
100
AcDbEntity
  8
0
100
AcDbCircle
 10
702.7789916992188
 20
141.3050994873047
 30
0.0
 40
3.5770111083984375
  0
CIRCLE
  5
14B
330
17
100
AcDbEntity
  8
0
100
AcDbCircle
 10
697.2340087890625
 20
147.95111083984375
 30
0.0
 40
3.69500732421875
  0
CIRCLE
  5
14C
330
17
100
AcDbEntity
  8
0
100
AcDbCircle
 10
691.5700073242188
 20
141.3050994873047
 30
0.0
 40
3.7549896240234375
  0
CIRCLE
  5
14D
330
17
100
AcDbEntity
  8
0
100
AcDbCircle
 10
697.2340087890625
 20
134.65609741210938
 30
0.0
 40
3.697998046875
  0
CIRCLE
  5
14E
330
17
100
AcDbEntity
  8
0
100
AcDbCircle
 10
686.0859985351562
 20
141.3050994873047
 30
0.0
 40
5.8419952392578125
  0
CIRCLE
  5
14F
330
17
100
AcDbEntity
  8
0
100
AcDbCircle
 10
697.2050170898438
 20
152.1260986328125
 30
0.0
 40
6.61700439453125
  0
CIRCLE
  5
150
330
17
100
AcDbEntity
  8
0
100
AcDbCircle
 10
708.2639770507812
 20
141.3050994873047
 30
0.0
 40
6.022003173828125
  0
CIRCLE
  5
151
330
17
100
AcDbEntity
  8
0
100
AcDbCircle
 10
697.2050170898438
 20
130.4831085205078
 30
0.0
 40
6.7969970703125
  0
LINE
  5
152
330
17
100
AcDbEntity
  8
0
100
AcDbLine
 10
672.7999877929688
 20
147.35610961914062
 30
0.0
 11
672.7999877929688
 21
130.87210083007812
 31
0.0
  0
LINE
  5
153
330
17
100
AcDbEntity
  8
0
100
AcDbLine
 10
672.7999877929688
 20
130.87210083007812
 30
0.0
 11
667.6430053710938
 21
130.87210083007812
 31
0.0
  0
LINE
  5
154
330
17
100
AcDbEntity
  8
0
100
AcDbLine
 10
667.6430053710938
 20
130.87210083007812
 30
0.0
 11
667.6430053710938
 21
151.73910522460938
 31
0.0
  0
LINE
  5
155
330
17
100
AcDbEntity
  8
0
100
AcDbLine
 10
667.6430053710938
 20
151.73910522460938
 30
0.0
 11
681.14697265625
 21
151.73910522460938
 31
0.0
  0
LINE
  5
156
330
17
100
AcDbEntity
  8
0
100
AcDbLine
 10
681.14697265625
 20
151.73910522460938
 30
0.0
 11
681.14697265625
 21
147.35610961914062
 31
0.0
  0
LINE
  5
157
330
17
100
AcDbEntity
  8
0
100
AcDbLine
 10
681.14697265625
 20
147.35610961914062
 30
0.0
 11
672.7999877929688
 21
147.35610961914062
 31
0.0
  0
LINE
  5
158
330
17
100
AcDbEntity
  8
0
100
AcDbLine
 10
650.0659790039062
 20
143.83810424804688
 30
0.0
 11
652.4500122070312
 21
135.01510620117188
 31
0.0
  0
LINE
  5
159
330
17
100
AcDbEntity
  8
0
100
AcDbLine
 10
652.4500122070312
 20
135.01510620117188
 30
0.0
 11
654.8049926757812
 21
143.83810424804688
 31
0.0
  0
LINE
  5
15A
330
17
100
AcDbEntity
  8
0
100
AcDbLine
 10
654.8049926757812
 20
143.83810424804688
 30
0.0
 11
650.0659790039062
 21
143.83810424804688
 31
0.0
  0
LINE
  5
15B
330
17
100
AcDbEntity
  8
0
100
AcDbLine
 10
656.9520263671875
 20
151.73809814453125
 30
0.0
 11
662.3469848632812
 21
151.73809814453125
 31
0.0
  0
LINE
  5
15C
330
17
100
AcDbEntity
  8
0
100
AcDbLine
 10
662.3469848632812
 20
151.73809814453125
 30
0.0
 11
655.7000122070312
 21
130.87210083007812
 31
0.0
  0
LINE
  5
15D
330
17
100
AcDbEntity
  8
0
100
AcDbLine
 10
655.7000122070312
 20
130.87210083007812
 30
0.0
 11
649.2009887695312
 21
130.87210083007812
 31
0.0
  0
LINE
  5
15E
330
17
100
AcDbEntity
  8
0
100
AcDbLine
 10
649.2009887695312
 20
130.87210083007812
 30
0.0
 11
642.552978515625
 21
151.73809814453125
 31
0.0
  0
LINE
  5
15F
330
17
100
AcDbEntity
  8
0
100
AcDbLine
 10
642.552978515625
 20
151.73809814453125
 30
0.0
 11
647.9500122070312
 21
151.73809814453125
 31
0.0
  0
LINE
  5
160
330
17
100
AcDbEntity
  8
0
100
AcDbLine
 10
647.9500122070312
 20
151.73809814453125
 30
0.0
 11
648.9619750976562
 21
147.9821014404297
 31
0.0
  0
LINE
  5
161
330
17
100
AcDbEntity
  8
0
100
AcDbLine
 10
648.9619750976562
 20
147.9821014404297
 30
0.0
 11
655.93798828125
 21
147.9821014404297
 31
0.0
  0
LINE
  5
162
330
17
100
AcDbEntity
  8
0
100
AcDbLine
 10
655.93798828125
 20
147.9821014404297
 30
0.0
 11
656.9520263671875
 21
151.73809814453125
 31
0.0
  0
CIRCLE
  5
163
330
17
100
AcDbEntity
  8
0
100
AcDbCircle
 10
631.083984375
 20
130.4831085205078
 30
0.0
 40
7.27398681640625
  0
CIRCLE
  5
164
330
17
100
AcDbEntity
  8
0
100
AcDbCircle
 10
619.3699951171875
 20
141.27310180664062
 30
0.0
 40
6.1699981689453125
  0
CIRCLE
  5
165
330
17
100
AcDbEntity
  8
0
100
AcDbCircle
 10
631.083984375
 20
152.06610107421875
 30
0.0
 40
2.98101806640625
  0
LINE
  5
166
330
17
100
AcDbEntity
  8
0
100
AcDbLine
 10
637.8800048828125
 20
150.0391082763672
 30
0.0
 11
635.615966796875
 21
146.31210327148438
 31
0.0
  0
CIRCLE
  5
167
330
17
100
AcDbEntity
  8
0
100
AcDbCircle
 10
635.615966796875
 20
146.31210327148438
 30
0.0
 40
1.1398655722158728
  0
CIRCLE
  5
168
330
17
100
AcDbEntity
  8
0
100
AcDbCircle
 10
631.3820190429688
 20
147.89210510253906
 30
0.0
 40
3.7860107421875
  0
CIRCLE
  5
169
330
17
100
AcDbEntity
  8
0
100
AcDbCircle
 10
624.85498046875
 20
141.27310180664062
 30
0.0
 40
3.90399169921875
  0
CIRCLE
  5
16A
330
17
100
AcDbEntity
  8
0
100
AcDbCircle
 10
631.3820190429688
 20
134.6571044921875
 30
0.0
 40
1.8189697265625
  0
LINE
  5
16B
330
17
100
AcDbEntity
  8
0
100
AcDbLine
 10
635.583984375
 20
136.44410705566406
 30
0.0
 11
637.8800048828125
 21
132.5111083984375
 31
0.0
  0
CIRCLE
  5
16C
330
17
100
AcDbEntity
  8
0
100
AcDbCircle
 10
637.8800048828125
 20
132.5111083984375
 30
0.0
 40
1.8361360807768121
  0
LINE
  5
16D
330
17
100
AcDbEntity
  8
0
100
AcDbLine
 10
600.2470092773438
 20
130.87310791015625
 30
0.0
 11
597.2669677734375
 21
143.60009765625
 31
0.0
  0
LINE
  5
16E
330
17
100
AcDbEntity
  8
0
100
AcDbLine
 10
597.2669677734375
 20
143.60009765625
 30
0.0
 11
594.0479736328125
 21
130.87310791015625
 31
0.0
  0
LINE
  5
16F
330
17
100
AcDbEntity
  8
0
100
AcDbLine
 10
594.0479736328125
 20
130.87310791015625
 30
0.0
 11
590.2319946289062
 21
130.87310791015625
 31
0.0
  0
LINE
  5
170
330
17
100
AcDbEntity
  8
0
100
AcDbLine
 10
590.2319946289062
 20
130.87310791015625
 30
0.0
 11
586.9840087890625
 21
143.56910705566406
 31
0.0
  0
LINE
  5
171
330
17
100
AcDbEntity
  8
0
100
AcDbLine
 10
586.9840087890625
 20
143.56910705566406
 30
0.0
 11
584.0009765625
 21
130.87310791015625
 31
0.0
  0
LINE
  5
172
330
17
100
AcDbEntity
  8
0
100
AcDbLine
 10
584.0009765625
 20
130.87310791015625
 30
0.0
 11
578.6069946289062
 21
130.87310791015625
 31
0.0
  0
LINE
  5
173
330
17
100
AcDbEntity
  8
0
100
AcDbLine
 10
578.6069946289062
 20
130.87310791015625
 30
0.0
 11
584.5089721679688
 21
151.73809814453125
 31
0.0
  0
LINE
  5
174
330
17
100
AcDbEntity
  8
0
100
AcDbLine
 10
584.5089721679688
 20
151.73809814453125
 30
0.0
 11
588.8619995117188
 21
151.73809814453125
 31
0.0
  0
LINE
  5
175
330
17
100
AcDbEntity
  8
0
100
AcDbLine
 10
588.8619995117188
 20
151.73809814453125
 30
0.0
 11
592.1400146484375
 21
138.5321044921875
 31
0.0
  0
LINE
  5
176
330
17
100
AcDbEntity
  8
0
100
AcDbLine
 10
592.1400146484375
 20
138.5321044921875
 30
0.0
 11
595.3889770507812
 21
151.73809814453125
 31
0.0
  0
LINE
  5
177
330
17
100
AcDbEntity
  8
0
100
AcDbLine
 10
595.3889770507812
 20
151.73809814453125
 30
0.0
 11
599.77001953125
 21
151.73809814453125
 31
0.0
  0
LINE
  5
178
330
17
100
AcDbEntity
  8
0
100
AcDbLine
 10
599.77001953125
 20
151.73809814453125
 30
0.0
 11
605.6439819335938
 21
130.87310791015625
 31
0.0
  0
LINE
  5
179
330
17
100
AcDbEntity
  8
0
100
AcDbLine
 10
605.6439819335938
 20
130.87310791015625
 30
0.0
 11
600.2470092773438
 21
130.87310791015625
 31
0.0
  0
CIRCLE
  5
17A
330
17
100
AcDbEntity
  8
0
100
AcDbCircle
 10
568.7160034179688
 20
141.3050994873047
 30
0.0
 40
3.5770111083984375
  0
CIRCLE
  5
17B
330
17
100
AcDbEntity
  8
0
100
AcDbCircle
 10
563.1710205078125
 20
147.95111083984375
 30
0.0
 40
3.69500732421875
  0
CIRCLE
  5
17C
330
17
100
AcDbEntity
  8
0
100
AcDbCircle
 10
557.5070190429688
 20
141.3050994873047
 30
0.0
 40
3.7549896240234375
  0
CIRCLE
  5
17D
330
17
100
AcDbEntity
  8
0
100
AcDbCircle
 10
563.1710205078125
 20
134.65609741210938
 30
0.0
 40
3.697998046875
  0
CIRCLE
  5
17E
330
17
100
AcDbEntity
  8
0
100
AcDbCircle
 10
552.0239868164062
 20
141.3050994873047
 30
0.0
 40
5.8419952392578125
  0
CIRCLE
  5
17F
330
17
100
AcDbEntity
  8
0
100
AcDbCircle
 10
563.1430053710938
 20
152.1260986328125
 30
0.0
 40
6.615966796875
  0
CIRCLE
  5
180
330
17
100
AcDbEntity
  8
0
100
AcDbCircle
 10
574.2020263671875
 20
141.3050994873047
 30
0.0
 40
6.022003173828125
  0
CIRCLE
  5
181
330
17
100
AcDbEntity
  8
0
100
AcDbCircle
 10
563.1430053710938
 20
130.4831085205078
 30
0.0
 40
6.79803466796875
  0
LINE
  5
182
330
17
100
AcDbEntity
  8
0
100
AcDbLine
 10
547.0830078125
 20
147.35610961914062
 30
0.0
 11
547.0830078125
 21
151.73910522460938
 31
0.0
  0
LINE
  5
183
330
17
100
AcDbEntity
  8
0
100
AcDbLine
 10
547.0830078125
 20
151.73910522460938
 30
0.0
 11
533.5800170898438
 21
151.73910522460938
 31
0.0
  0
LINE
  5
184
330
17
100
AcDbEntity
  8
0
100
AcDbLine
 10
533.5800170898438
 20
151.73910522460938
 30
0.0
 11
533.5800170898438
 21
130.87210083007812
 31
0.0
  0
LINE
  5
185
330
17
100
AcDbEntity
  8
0
100
AcDbLine
 10
533.5800170898438
 20
130.87210083007812
 30
0.0
 11
538.7369995117188
 21
130.87210083007812
 31
0.0
  0
LINE
  5
186
330
17
100
AcDbEntity
  8
0
100
AcDbLine
 10
538.7369995117188
 20
130.87210083007812
 30
0.0
 11
538.7369995117188
 21
147.35610961914062
 31
0.0
  0
LINE
  5
187
330
17
100
AcDbEntity
  8
0
100
AcDbLine
 10
538.7369995117188
 20
147.35610961914062
 30
0.0
 11
547.0830078125
 21
147.35610961914062
 31
0.0
  0
ENDSEC
  0
SECTION
  2
OBJECTS
  0
DICTIONARY
  5
A
330
0
100
AcDbDictionary
281
1
  3
ACAD_COLOR
350
B
  3
ACAD_GROUP
350
C
  3
ACAD_LAYOUT
350
D
  3
ACAD_MATERIAL
350
E
  3
ACAD_MLEADERSTYLE
350
F
  3
ACAD_MLINESTYLE
350
10
  3
ACAD_PLOTSETTINGS
350
11
  3
ACAD_PLOTSTYLENAME
350
12
  3
ACAD_SCALELIST
350
14
  3
ACAD_TABLESTYLE
350
15
  3
ACAD_VISUALSTYLE
350
16
  3
EZDXF_META
350
2D
  0
DICTIONARY
  5
B
330
A
100
AcDbDictionary
281
1
  0
DICTIONARY
  5
C
330
A
100
AcDbDictionary
281
1
  0
DICTIONARY
  5
D
330
A
100
AcDbDictionary
281
1
  3
Model
350
1A
  3
Layout1
350
1E
  0
DICTIONARY
  5
E
330
A
100
AcDbDictionary
281
1
  3
ByBlock
350
1F
  3
ByLayer
350
20
  3
Global
350
21
  0
DICTIONARY
  5
F
330
A
100
AcDbDictionary
281
1
  3
Standard
350
2C
  0
DICTIONARY
  5
10
330
A
100
AcDbDictionary
281
1
  3
Standard
350
22
  0
DICTIONARY
  5
11
330
A
100
AcDbDictionary
281
1
  0
ACDBDICTIONARYWDFLT
  5
12
330
A
100
AcDbDictionary
281
1
  3
Normal
350
13
100
AcDbDictionaryWithDefault
340
13
  0
ACDBPLACEHOLDER
  5
13
330
12
  0
DICTIONARY
  5
14
330
A
100
AcDbDictionary
281
1
  0
DICTIONARY
  5
15
330
A
100
AcDbDictionary
281
1
  0
DICTIONARY
  5
16
330
A
100
AcDbDictionary
281
1
  0
LAYOUT
  5
1A
330
D
100
AcDbPlotSettings
  1

  4
A3
  6

 40
7.5
 41
20.0
 42
7.5
 43
20.0
 44
420.0
 45
297.0
 46
0.0
 47
0.0
 48
0.0
 49
0.0
140
0.0
141
0.0
142
1.0
143
1.0
 70
1024
 72
1
 73
0
 74
5
  7

 75
16
 76
0
 77
2
 78
300
147
1.0
148
0.0
149
0.0
100
AcDbLayout
  1
Model
 70
1
 71
0
 10
0.0
 20
0.0
 11
420.0
 21
297.0
 12
0.0
 22
0.0
 32
0.0
 14
1e+20
 24
1e+20
 34
1e+20
 15
-1e+20
 25
-1e+20
 35
-1e+20
146
0.0
 13
0.0
 23
0.0
 33
0.0
 16
1.0
 26
0.0
 36
0.0
 17
0.0
 27
1.0
 37
0.0
 76
1
330
17
  0
LAYOUT
  5
1E
330
D
100
AcDbPlotSettings
  1

  4
A3
  6

 40
7.5
 41
20.0
 42
7.5
 43
20.0
 44
420.0
 45
297.0
 46
0.0
 47
0.0
 48
0.0
 49
0.0
140
0.0
141
0.0
142
1.0
143
1.0
 70
0
 72
1
 73
0
 74
5
  7

 75
16
 76
0
 77
2
 78
300
147
1.0
148
0.0
149
0.0
100
AcDbLayout
  1
Layout1
 70
1
 71
1
 10
0.0
 20
0.0
 11
420.0
 21
297.0
 12
0.0
 22
0.0
 32
0.0
 14
1e+20
 24
1e+20
 34
1e+20
 15
-1e+20
 25
-1e+20
 35
-1e+20
146
0.0
 13
0.0
 23
0.0
 33
0.0
 16
1.0
 26
0.0
 36
0.0
 17
0.0
 27
1.0
 37
0.0
 76
1
330
1B
  0
MATERIAL
  5
1F
102
{ACAD_REACTORS
330
E
102
}
330
E
100
AcDbMaterial
  1
ByBlock
  2

 70
0
 40
1.0
 71
1
 41
1.0
 91
-1023410177
 42
1.0
 72
1
  3

 73
1
 74
1
 75
1
 44
0.5
 73
0
 45
1.0
 46
1.0
 77
1
  4

 78
1
 79
1
170
1
 48
1.0
171
1
  6

172
1
173
1
174
1
140
1.0
141
1.0
175
1
  7

176
1
177
1
178
1
143
1.0
179
1
  8

270
1
271
1
272
1
145
1.0
146
1.0
273
1
  9

274
1
275
1
276
1
 42
1.0
 72
1
  3

 73
1
 74
1
 75
1
 94
63
  0
MATERIAL
  5
20
102
{ACAD_REACTORS
330
E
102
}
330
E
100
AcDbMaterial
  1
ByLayer
  2

 70
0
 40
1.0
 71
1
 41
1.0
 91
-1023410177
 42
1.0
 72
1
  3

 73
1
 74
1
 75
1
 44
0.5
 73
0
 45
1.0
 46
1.0
 77
1
  4

 78
1
 79
1
170
1
 48
1.0
171
1
  6

172
1
173
1
174
1
140
1.0
141
1.0
175
1
  7

176
1
177
1
178
1
143
1.0
179
1
  8

270
1
271
1
272
1
145
1.0
146
1.0
273
1
  9

274
1
275
1
276
1
 42
1.0
 72
1
  3

 73
1
 74
1
 75
1
 94
63
  0
MATERIAL
  5
21
102
{ACAD_REACTORS
330
E
102
}
330
E
100
AcDbMaterial
  1
Global
  2

 70
0
 40
1.0
 71
1
 41
1.0
 91
-1023410177
 42
1.0
 72
1
  3

 73
1
 74
1
 75
1
 44
0.5
 73
0
 45
1.0
 46
1.0
 77
1
  4

 78
1
 79
1
170
1
 48
1.0
171
1
  6

172
1
173
1
174
1
140
1.0
141
1.0
175
1
  7

176
1
177
1
178
1
143
1.0
179
1
  8

270
1
271
1
272
1
145
1.0
146
1.0
273
1
  9

274
1
275
1
276
1
 42
1.0
 72
1
  3

 73
1
 74
1
 75
1
 94
63
  0
MLINESTYLE
  5
22
102
{ACAD_REACTORS
330
10
102
}
330
10
100
AcDbMlineStyle
  2
Standard
 70
0
  3

 62
256
 51
90.0
 52
90.0
 71
2
 49
0.5
 62
256
  6
BYLAYER
 49
-0.5
 62
256
  6
BYLAYER
  0
MLEADERSTYLE
  5
2C
102
{ACAD_REACTORS
330
F
102
}
330
F
100
AcDbMLeaderStyle
179
2
170
2
171
1
172
0
 90
2
 40
0.0
 41
0.0
173
1
 91
-1056964608
 92
-2
290
1
 42
2.0
291
1
 43
8.0
  3
Standard
 44
4.0
300

342
29
174
1
175
1
176
0
178
1
 93
-1056964608
 45
4.0
292
0
297
0
 46
4.0
 94
-1056964608
 47
1.0
 49
1.0
140
1.0
294
1
141
0.0
177
0
142
1.0
295
0
296
0
143
3.75
271
0
272
9
273
9
  0
DICTIONARY
  5
2D
330
A
100
AcDbDictionary
280
1
281
1
  3
CREATED_BY_EZDXF
350
2E
  3
WRITTEN_BY_EZDXF
350
18A
  0
DICTIONARYVAR
  5
2E
330
2D
100
DictionaryVariables
280
0
  1
1.4.3 @ 2025-12-11T13:02:45.629486+00:00
  0
DICTIONARYVAR
  5
18A
330
2D
100
DictionaryVariables
280
0
  1
1.4.3 @ 2025-12-11T13:02:45.686262+00:00
  0
ENDSEC
  0
EOF
