999
"DXF R12 Output" (www.mydxf.blogspot.com)
 0 
SECTION
 2 
HEADER
 9 
$ACADVER
 1 
AC1009
 9 
$EXTMIN
 10 
 0 
 20 
 0 
 9 
$EXTMAX
 10 
 8.5 
 20 
 11 
 0 
ENDSEC
 0 
SECTION
 2 
ENTITIES
0
POLYLINE
8
Layer 1
62
7
70
1
10
0.000000
20
0.000000
66
1
0
VERTEX
8
Layer 1
10
0.000000
20
0.000090
70
0
0
VERTEX
8
Layer 1
10
307.470203
20
0.000090
70
0
0
VERTEX
8
Layer 1
10
307.470203
20
70.335004
70
0
0
VERTEX
8
Layer 1
10
0.000000
20
70.335004
70
0
0
VERTEX
8
Layer 1
10
0.000000
20
0.000090
70
0
0
SEQEND
8
Layer 1
0
POLYLINE
8
Layer 1
62
7
70
0
10
0.000000
20
0.000000
66
1
0
VERTEX
8
Layer 1
10
22.807400
20
40.928500
70
0
0
VERTEX
8
Layer 1
10
22.906979
20
38.802493
70
0
0
VERTEX
8
Layer 1
10
23.201071
20
36.740583
70
0
0
VERTEX
8
Layer 1
10
23.682710
20
34.752853
70
0
0
VERTEX
8
Layer 1
10
24.344929
20
32.849383
70
0
0
VERTEX
8
Layer 1
10
25.180762
20
31.040256
70
0
0
VERTEX
8
Layer 1
10
26.183242
20
29.335553
70
0
0
VERTEX
8
Layer 1
10
27.345404
20
27.745355
70
0
0
VERTEX
8
Layer 1
10
28.660279
20
26.279744
70
0
0
VERTEX
8
Layer 1
10
30.120903
20
24.948801
70
0
0
VERTEX
8
Layer 1
10
31.720307
20
23.762609
70
0
0
VERTEX
8
Layer 1
10
33.451527
20
22.731248
70
0
0
VERTEX
8
Layer 1
10
35.307595
20
21.864800
70
0
0
VERTEX
8
Layer 1
10
37.281546
20
21.173347
70
0
0
VERTEX
8
Layer 1
10
39.366411
20
20.666970
70
0
0
VERTEX
8
Layer 1
10
41.555226
20
20.355751
70
0
0
VERTEX
8
Layer 1
10
43.841023
20
20.249771
70
0
0
VERTEX
8
Layer 1
10
46.642336
20
20.415235
70
0
0
VERTEX
8
Layer 1
10
49.136989
20
20.870090
70
0
0
VERTEX
8
Layer 1
10
51.333969
20
21.552032
70
0
0
VERTEX
8
Layer 1
10
53.242266
20
22.398756
70
0
0
VERTEX
8
Layer 1
10
54.870865
20
23.347955
70
0
0
VERTEX
8
Layer 1
10
56.228754
20
24.337326
70
0
0
VERTEX
8
Layer 1
10
58.168355
20
26.187360
70
0
0
VERTEX
8
Layer 1
10
57.518540
20
26.866809
70
0
0
VERTEX
8
Layer 1
10
55.780711
20
25.497560
70
0
0
VERTEX
8
Layer 1
10
53.386419
20
24.156159
70
0
0
VERTEX
8
Layer 1
10
51.935317
20
23.587616
70
0
0
VERTEX
8
Layer 1
10
50.310760
20
23.136093
70
0
0
VERTEX
8
Layer 1
10
48.509636
20
22.838276
70
0
0
VERTEX
8
Layer 1
10
46.528831
20
22.730851
70
0
0
VERTEX
8
Layer 1
10
44.787990
20
22.812247
70
0
0
VERTEX
8
Layer 1
10
43.155068
20
23.049684
70
0
0
VERTEX
8
Layer 1
10
41.630672
20
23.433037
70
0
0
VERTEX
8
Layer 1
10
40.215407
20
23.952182
70
0
0
VERTEX
8
Layer 1
10
38.909880
20
24.596993
70
0
0
VERTEX
8
Layer 1
10
37.714697
20
25.357346
70
0
0
VERTEX
8
Layer 1
10
35.657787
20
27.184176
70
0
0
VERTEX
8
Layer 1
10
34.049527
20
29.351673
70
0
0
VERTEX
8
Layer 1
10
32.894766
20
31.778837
70
0
0
VERTEX
8
Layer 1
10
32.198353
20
34.384669
70
0
0
VERTEX
8
Layer 1
10
31.965138
20
37.088170
70
0
0
VERTEX
8
Layer 1
10
32.041942
20
38.786043
70
0
0
VERTEX
8
Layer 1
10
32.265227
20
40.368407
70
0
0
VERTEX
8
Layer 1
10
32.624306
20
41.836085
70
0
0
VERTEX
8
Layer 1
10
33.108488
20
43.189900
70
0
0
VERTEX
8
Layer 1
10
34.409411
20
45.559237
70
0
0
VERTEX
8
Layer 1
10
36.082487
20
47.483008
70
0
0
VERTEX
8
Layer 1
10
38.042204
20
48.967804
70
0
0
VERTEX
8
Layer 1
10
40.203054
20
50.020214
70
0
0
VERTEX
8
Layer 1
10
42.479527
20
50.646827
70
0
0
VERTEX
8
Layer 1
10
44.786113
20
50.854234
70
0
0
VERTEX
8
Layer 1
10
47.282798
20
50.676555
70
0
0
VERTEX
8
Layer 1
10
49.405595
20
50.141624
70
0
0
VERTEX
8
Layer 1
10
51.279221
20
49.246596
70
0
0
VERTEX
8
Layer 1
10
53.028394
20
47.988626
70
0
0
VERTEX
8
Layer 1
10
59.527252
20
59.480337
70
0
0
VERTEX
8
Layer 1
10
32.940214
20
59.480337
70
0
0
VERTEX
8
Layer 1
10
31.240978
20
58.390038
70
0
0
VERTEX
8
Layer 1
10
29.499888
20
56.872521
70
0
0
VERTEX
8
Layer 1
10
27.799677
20
54.965869
70
0
0
VERTEX
8
Layer 1
10
26.223075
20
52.708165
70
0
0
VERTEX
8
Layer 1
10
24.852815
20
50.137493
70
0
0
VERTEX
8
Layer 1
10
23.771628
20
47.291936
70
0
0
VERTEX
8
Layer 1
10
23.062246
20
44.209577
70
0
0
VERTEX
8
Layer 1
10
22.807400
20
40.928500
70
0
0
SEQEND
8
Layer 1
0
POLYLINE
8
Layer 1
62
7
70
0
10
0.000000
20
0.000000
66
1
0
VERTEX
8
Layer 1
10
36.957638
20
36.379088
70
0
0
VERTEX
8
Layer 1
10
37.090395
20
34.825961
70
0
0
VERTEX
8
Layer 1
10
37.476898
20
33.414758
70
0
0
VERTEX
8
Layer 1
10
38.099501
20
32.165562
70
0
0
VERTEX
8
Layer 1
10
38.940554
20
31.098457
70
0
0
VERTEX
8
Layer 1
10
39.982408
20
30.233526
70
0
0
VERTEX
8
Layer 1
10
41.207416
20
29.590854
70
0
0
VERTEX
8
Layer 1
10
42.597929
20
29.190522
70
0
0
VERTEX
8
Layer 1
10
44.136297
20
29.052615
70
0
0
VERTEX
8
Layer 1
10
45.551374
20
29.219732
70
0
0
VERTEX
8
Layer 1
10
46.816962
20
29.680470
70
0
0
VERTEX
8
Layer 1
10
47.916523
20
30.373908
70
0
0
VERTEX
8
Layer 1
10
48.833523
20
31.239127
70
0
0
VERTEX
8
Layer 1
10
49.335530
20
30.373908
70
0
0
VERTEX
8
Layer 1
10
50.103476
20
29.680470
70
0
0
VERTEX
8
Layer 1
10
51.093076
20
29.219732
70
0
0
VERTEX
8
Layer 1
10
52.260046
20
29.052615
70
0
0
VERTEX
8
Layer 1
10
53.324811
20
29.156011
70
0
0
VERTEX
8
Layer 1
10
54.302305
20
29.453276
70
0
0
VERTEX
8
Layer 1
10
55.191148
20
29.925025
70
0
0
VERTEX
8
Layer 1
10
55.989957
20
30.551873
70
0
0
VERTEX
8
Layer 1
10
57.311956
20
32.193328
70
0
0
VERTEX
8
Layer 1
10
58.257255
20
34.222562
70
0
0
VERTEX
8
Layer 1
10
58.257255
20
29.318609
70
0
0
VERTEX
8
Layer 1
10
64.135578
20
29.318609
70
0
0
VERTEX
8
Layer 1
10
64.135578
20
30.647873
70
0
0
VERTEX
8
Layer 1
10
63.367936
20
30.647873
70
0
0
VERTEX
8
Layer 1
10
62.891582
20
30.722722
70
0
0
VERTEX
8
Layer 1
10
62.592399
20
30.958272
70
0
0
VERTEX
8
Layer 1
10
62.437216
20
31.371027
70
0
0
VERTEX
8
Layer 1
10
62.392860
20
31.977489
70
0
0
VERTEX
8
Layer 1
10
62.392860
20
37.088170
70
0
0
VERTEX
8
Layer 1
10
62.495433
20
38.096159
70
0
0
VERTEX
8
Layer 1
10
62.787006
20
39.080902
70
0
0
VERTEX
8
Layer 1
10
63.243355
20
40.008140
70
0
0
VERTEX
8
Layer 1
10
63.840260
20
40.843613
70
0
0
VERTEX
8
Layer 1
10
64.553498
20
41.553062
70
0
0
VERTEX
8
Layer 1
10
65.358849
20
42.102228
70
0
0
VERTEX
8
Layer 1
10
66.232090
20
42.456851
70
0
0
VERTEX
8
Layer 1
10
67.148999
20
42.582671
70
0
0
VERTEX
8
Layer 1
10
67.632745
20
42.509762
70
0
0
VERTEX
8
Layer 1
10
68.005630
20
42.309490
70
0
0
VERTEX
8
Layer 1
10
68.245563
20
42.009536
70
0
0
VERTEX
8
Layer 1
10
68.330450
20
41.637582
70
0
0
VERTEX
8
Layer 1
10
68.105334
20
41.046548
70
0
0
VERTEX
8
Layer 1
10
67.503188
20
40.810320
70
0
0
VERTEX
8
Layer 1
10
67.161330
20
40.898018
70
0
0
VERTEX
8
Layer 1
10
66.938436
20
41.090954
70
0
0
VERTEX
8
Layer 1
10
66.617365
20
41.371588
70
0
0
VERTEX
8
Layer 1
10
66.025344
20
41.239616
70
0
0
VERTEX
8
Layer 1
10
65.472383
20
40.847361
70
0
0
VERTEX
8
Layer 1
10
65.063553
20
40.200313
70
0
0
VERTEX
8
Layer 1
10
64.903927
20
39.303962
70
0
0
VERTEX
8
Layer 1
10
65.103273
20
38.420333
70
0
0
VERTEX
8
Layer 1
10
65.657061
20
37.686391
70
0
0
VERTEX
8
Layer 1
10
66.498914
20
37.185150
70
0
0
VERTEX
8
Layer 1
10
67.562454
20
36.999623
70
0
0
VERTEX
8
Layer 1
10
68.313220
20
37.078603
70
0
0
VERTEX
8
Layer 1
10
68.987464
20
37.304703
70
0
0
VERTEX
8
Layer 1
10
70.077313
20
38.133227
70
0
0
VERTEX
8
Layer 1
10
70.773860
20
39.355120
70
0
0
VERTEX
8
Layer 1
10
71.018963
20
40.840306
70
0
0
VERTEX
8
Layer 1
10
70.743814
20
42.219680
70
0
0
VERTEX
8
Layer 1
10
69.992250
20
43.325046
70
0
0
VERTEX
8
Layer 1
10
68.875099
20
44.059401
70
0
0
VERTEX
8
Layer 1
10
67.503188
20
44.325743
70
0
0
VERTEX
8
Layer 1
10
65.957038
20
44.089873
70
0
0
VERTEX
8
Layer 1
10
64.527205
20
43.457955
70
0
0
VERTEX
8
Layer 1
10
63.307782
20
42.543530
70
0
0
VERTEX
8
Layer 1
10
62.392860
20
41.460135
70
0
0
VERTEX
8
Layer 1
10
62.392860
20
42.169217
70
0
0
VERTEX
8
Layer 1
10
62.287154
20
42.955165
70
0
0
VERTEX
8
Layer 1
10
61.968161
20
43.561231
70
0
0
VERTEX
8
Layer 1
10
61.433069
20
43.951330
70
0
0
VERTEX
8
Layer 1
10
60.679069
20
44.089382
70
0
0
VERTEX
8
Layer 1
10
56.336737
20
44.089382
70
0
0
VERTEX
8
Layer 1
10
56.336737
20
42.760118
70
0
0
VERTEX
8
Layer 1
10
57.282532
20
42.760118
70
0
0
VERTEX
8
Layer 1
10
57.683822
20
42.685318
70
0
0
VERTEX
8
Layer 1
10
57.991217
20
42.449851
70
0
0
VERTEX
8
Layer 1
10
58.187951
20
42.037113
70
0
0
VERTEX
8
Layer 1
10
58.257255
20
41.430502
70
0
0
VERTEX
8
Layer 1
10
58.257255
20
37.679071
70
0
0
VERTEX
8
Layer 1
10
57.500091
20
35.267140
70
0
0
VERTEX
8
Layer 1
10
56.477187
20
33.273548
70
0
0
VERTEX
8
Layer 1
10
55.890277
20
32.501976
70
0
0
VERTEX
8
Layer 1
10
55.265965
20
31.917004
70
0
0
VERTEX
8
Layer 1
10
54.613931
20
31.545973
70
0
0
VERTEX
8
Layer 1
10
53.943851
20
31.416221
70
0
0
VERTEX
8
Layer 1
10
53.131361
20
31.660034
70
0
0
VERTEX
8
Layer 1
10
52.863609
20
31.989654
70
0
0
VERTEX
8
Layer 1
10
52.762048
20
32.479844
70
0
0
VERTEX
8
Layer 1
10
52.762048
20
41.430502
70
0
0
VERTEX
8
Layer 1
10
52.946815
20
42.449851
70
0
0
VERTEX
8
Layer 1
10
53.235916
20
42.685318
70
0
0
VERTEX
8
Layer 1
10
53.707843
20
42.760118
70
0
0
VERTEX
8
Layer 1
10
54.475839
20
42.760118
70
0
0
VERTEX
8
Layer 1
10
54.475839
20
44.089382
70
0
0
VERTEX
8
Layer 1
10
50.339528
20
44.089382
70
0
0
VERTEX
8
Layer 1
10
49.791842
20
44.019201
70
0
0
VERTEX
8
Layer 1
10
49.346549
20
43.816068
70
0
0
VERTEX
8
Layer 1
10
49.006428
20
43.491094
70
0
0
VERTEX
8
Layer 1
10
48.774257
20
43.055393
70
0
0
VERTEX
8
Layer 1
10
48.040640
20
43.553029
70
0
0
VERTEX
8
Layer 1
10
47.160346
20
43.956473
70
0
0
VERTEX
8
Layer 1
10
46.119516
20
44.226965
70
0
0
VERTEX
8
Layer 1
10
44.904293
20
44.325743
70
0
0
VERTEX
8
Layer 1
10
43.375363
20
44.206028
70
0
0
VERTEX
8
Layer 1
10
41.917771
20
43.844340
70
0
0
VERTEX
8
Layer 1
10
40.572362
20
43.236863
70
0
0
VERTEX
8
Layer 1
10
39.379982
20
42.379780
70
0
0
VERTEX
8
Layer 1
10
38.381474
20
41.269278
70
0
0
VERTEX
8
Layer 1
10
37.617684
20
39.901539
70
0
0
VERTEX
8
Layer 1
10
37.129457
20
38.272747
70
0
0
VERTEX
8
Layer 1
10
36.957638
20
36.379088
70
0
0
SEQEND
8
Layer 1
0
POLYLINE
8
Layer 1
62
7
70
0
10
0.000000
20
0.000000
66
1
0
VERTEX
8
Layer 1
10
41.536684
20
36.674362
70
0
0
VERTEX
8
Layer 1
10
41.619728
20
37.896514
70
0
0
VERTEX
8
Layer 1
10
41.857540
20
38.968052
70
0
0
VERTEX
8
Layer 1
10
42.233142
20
39.885173
70
0
0
VERTEX
8
Layer 1
10
42.729555
20
40.644074
70
0
0
VERTEX
8
Layer 1
10
43.329800
20
41.240950
70
0
0
VERTEX
8
Layer 1
10
44.016899
20
41.672000
70
0
0
VERTEX
8
Layer 1
10
44.773872
20
41.933418
70
0
0
VERTEX
8
Layer 1
10
45.583741
20
42.021403
70
0
0
VERTEX
8
Layer 1
10
46.412282
20
41.940237
70
0
0
VERTEX
8
Layer 1
10
47.227065
20
41.659674
70
0
0
VERTEX
8
Layer 1
10
47.980861
20
41.190795
70
0
0
VERTEX
8
Layer 1
10
48.626443
20
40.544679
70
0
0
VERTEX
8
Layer 1
10
48.626443
20
33.631661
70
0
0
VERTEX
8
Layer 1
10
47.946620
20
32.637502
70
0
0
VERTEX
8
Layer 1
10
47.153158
20
31.947944
70
0
0
VERTEX
8
Layer 1
10
46.254525
20
31.546385
70
0
0
VERTEX
8
Layer 1
10
45.259187
20
31.416221
70
0
0
VERTEX
8
Layer 1
10
44.471569
20
31.517358
70
0
0
VERTEX
8
Layer 1
10
43.755260
20
31.809926
70
0
0
VERTEX
8
Layer 1
10
43.120649
20
32.277655
70
0
0
VERTEX
8
Layer 1
10
42.578126
20
32.904278
70
0
0
VERTEX
8
Layer 1
10
42.138078
20
33.673529
70
0
0
VERTEX
8
Layer 1
10
41.810896
20
34.569138
70
0
0
VERTEX
8
Layer 1
10
41.536684
20
36.674362
70
0
0
SEQEND
8
Layer 1
0
POLYLINE
8
Layer 1
62
7
70
0
10
0.000000
20
0.000000
66
1
0
VERTEX
8
Layer 1
10
49.630799
20
15.729286
70
0
0
VERTEX
8
Layer 1
10
51.304106
20
15.764665
70
0
0
VERTEX
8
Layer 1
10
52.986061
20
15.640778
70
0
0
VERTEX
8
Layer 1
10
54.654854
20
15.345168
70
0
0
VERTEX
8
Layer 1
10
56.288671
20
14.865379
70
0
0
VERTEX
8
Layer 1
10
57.865703
20
14.188956
70
0
0
VERTEX
8
Layer 1
10
59.364137
20
13.303443
70
0
0
VERTEX
8
Layer 1
10
60.762162
20
12.196382
70
0
0
VERTEX
8
Layer 1
10
62.037966
20
10.855319
70
0
0
VERTEX
8
Layer 1
10
63.083362
20
11.821865
70
0
0
VERTEX
8
Layer 1
10
64.640044
20
13.064982
70
0
0
VERTEX
8
Layer 1
10
66.731902
20
14.459705
70
0
0
VERTEX
8
Layer 1
10
69.382828
20
15.881068
70
0
0
VERTEX
8
Layer 1
10
72.616712
20
17.204106
70
0
0
VERTEX
8
Layer 1
10
76.457445
20
18.303853
70
0
0
VERTEX
8
Layer 1
10
80.928919
20
19.055342
70
0
0
VERTEX
8
Layer 1
10
86.055024
20
19.333609
70
0
0
VERTEX
8
Layer 1
10
91.213454
20
19.105126
70
0
0
VERTEX
8
Layer 1
10
96.341737
20
18.502764
70
0
0
VERTEX
8
Layer 1
10
101.406984
20
17.651148
70
0
0
VERTEX
8
Layer 1
10
106.376303
20
16.674905
70
0
0
VERTEX
8
Layer 1
10
115.895593
20
14.847046
70
0
0
VERTEX
8
Layer 1
10
120.379783
20
14.244683
70
0
0
VERTEX
8
Layer 1
10
124.636481
20
14.016201
70
0
0
VERTEX
8
Layer 1
10
127.886343
20
14.217615
70
0
0
VERTEX
8
Layer 1
10
130.689611
20
14.791169
70
0
0
VERTEX
8
Layer 1
10
133.062212
20
15.690830
70
0
0
VERTEX
8
Layer 1
10
135.020075
20
16.870564
70
0
0
VERTEX
8
Layer 1
10
136.579130
20
18.284338
70
0
0
VERTEX
8
Layer 1
10
137.755304
20
19.886118
70
0
0
VERTEX
8
Layer 1
10
138.564527
20
21.629872
70
0
0
VERTEX
8
Layer 1
10
139.022727
20
23.469566
70
0
0
VERTEX
8
Layer 1
10
140.002460
20
22.452637
70
0
0
VERTEX
8
Layer 1
10
141.297742
20
21.604743
70
0
0
VERTEX
8
Layer 1
10
142.836638
20
21.039357
70
0
0
VERTEX
8
Layer 1
10
144.547215
20
20.869953
70
0
0
VERTEX
8
Layer 1
10
146.181298
20
21.039340
70
0
0
VERTEX
8
Layer 1
10
147.622223
20
21.521658
70
0
0
VERTEX
8
Layer 1
10
148.862371
20
22.278143
70
0
0
VERTEX
8
Layer 1
10
149.894124
20
23.270027
70
0
0
VERTEX
8
Layer 1
10
150.709860
20
24.458546
70
0
0
VERTEX
8
Layer 1
10
151.301963
20
25.804933
70
0
0
VERTEX
8
Layer 1
10
151.662812
20
27.270425
70
0
0
VERTEX
8
Layer 1
10
151.784788
20
28.816254
70
0
0
VERTEX
8
Layer 1
10
151.784788
20
41.430502
70
0
0
VERTEX
8
Layer 1
10
151.829144
20
42.037113
70
0
0
VERTEX
8
Layer 1
10
151.984327
20
42.449851
70
0
0
VERTEX
8
Layer 1
10
152.283510
20
42.685318
70
0
0
VERTEX
8
Layer 1
10
152.759863
20
42.760118
70
0
0
VERTEX
8
Layer 1
10
153.527859
20
42.760118
70
0
0
VERTEX
8
Layer 1
10
153.527859
20
44.089382
70
0
0
VERTEX
8
Layer 1
10
149.362621
20
44.089382
70
0
0
VERTEX
8
Layer 1
10
148.692846
20
44.008607
70
0
0
VERTEX
8
Layer 1
10
148.214200
20
43.775499
70
0
0
VERTEX
8
Layer 1
10
147.896221
20
43.403881
70
0
0
VERTEX
8
Layer 1
10
147.708450
20
42.907579
70
0
0
VERTEX
8
Layer 1
10
146.968406
20
43.453314
70
0
0
VERTEX
8
Layer 1
10
146.065082
20
43.904791
70
0
0
VERTEX
8
Layer 1
10
144.978997
20
44.212203
70
0
0
VERTEX
8
Layer 1
10
143.690672
20
44.325743
70
0
0
VERTEX
8
Layer 1
10
142.160383
20
44.206028
70
0
0
VERTEX
8
Layer 1
10
140.699427
20
43.844340
70
0
0
VERTEX
8
Layer 1
10
139.349322
20
43.236863
70
0
0
VERTEX
8
Layer 1
10
138.151588
20
42.379780
70
0
0
VERTEX
8
Layer 1
10
137.147744
20
41.269278
70
0
0
VERTEX
8
Layer 1
10
136.379308
20
39.901539
70
0
0
VERTEX
8
Layer 1
10
135.887800
20
38.272747
70
0
0
VERTEX
8
Layer 1
10
135.714737
20
36.379088
70
0
0
VERTEX
8
Layer 1
10
135.847493
20
34.825961
70
0
0
VERTEX
8
Layer 1
10
136.233992
20
33.414758
70
0
0
VERTEX
8
Layer 1
10
136.856581
20
32.165562
70
0
0
VERTEX
8
Layer 1
10
137.697609
20
31.098457
70
0
0
VERTEX
8
Layer 1
10
138.739421
20
30.233526
70
0
0
VERTEX
8
Layer 1
10
139.964366
20
29.590854
70
0
0
VERTEX
8
Layer 1
10
141.354791
20
29.190522
70
0
0
VERTEX
8
Layer 1
10
142.893044
20
29.052615
70
0
0
VERTEX
8
Layer 1
10
144.346545
20
29.225277
70
0
0
VERTEX
8
Layer 1
10
145.636634
20
29.702607
70
0
0
VERTEX
8
Layer 1
10
146.743963
20
30.423617
70
0
0
VERTEX
8
Layer 1
10
147.649183
20
31.327321
70
0
0
VERTEX
8
Layer 1
10
147.649183
20
28.462066
70
0
0
VERTEX
8
Layer 1
10
147.575559
20
27.089317
70
0
0
VERTEX
8
Layer 1
10
147.359305
20
25.933295
70
0
0
VERTEX
8
Layer 1
10
147.007345
20
24.983613
70
0
0
VERTEX
8
Layer 1
10
146.526603
20
24.229889
70
0
0
VERTEX
8
Layer 1
10
145.924004
20
23.661736
70
0
0
VERTEX
8
Layer 1
10
145.206472
20
23.268770
70
0
0
VERTEX
8
Layer 1
10
144.380934
20
23.040606
70
0
0
VERTEX
8
Layer 1
10
143.454312
20
22.966859
70
0
0
VERTEX
8
Layer 1
10
142.510170
20
23.045984
70
0
0
VERTEX
8
Layer 1
10
141.656378
20
23.272965
70
0
0
VERTEX
8
Layer 1
10
140.902988
20
23.632212
70
0
0
VERTEX
8
Layer 1
10
140.260048
20
24.108137
70
0
0
VERTEX
8
Layer 1
10
139.737610
20
24.685148
70
0
0
VERTEX
8
Layer 1
10
139.345722
20
25.347657
70
0
0
VERTEX
8
Layer 1
10
139.094435
20
26.080074
70
0
0
VERTEX
8
Layer 1
10
138.993799
20
26.866809
70
0
0
VERTEX
8
Layer 1
10
137.753083
20
26.866809
70
0
0
VERTEX
8
Layer 1
10
137.631745
20
24.594673
70
0
0
VERTEX
8
Layer 1
10
137.159745
20
22.592948
70
0
0
VERTEX
8
Layer 1
10
136.307655
20
20.871665
70
0
0
VERTEX
8
Layer 1
10
135.046048
20
19.440853
70
0
0
VERTEX
8
Layer 1
10
133.345499
20
18.310540
70
0
0
VERTEX
8
Layer 1
10
131.176581
20
17.490757
70
0
0
VERTEX
8
Layer 1
10
128.509866
20
16.991532
70
0
0
VERTEX
8
Layer 1
10
125.315930
20
16.822895
70
0
0
VERTEX
8
Layer 1
10
122.775093
20
16.929722
70
0
0
VERTEX
8
Layer 1
10
120.250254
20
17.231626
70
0
0
VERTEX
8
Layer 1
10
115.193528
20
18.309188
70
0
0
VERTEX
8
Layer 1
10
110.035674
20
19.832639
70
0
0
VERTEX
8
Layer 1
10
104.666613
20
21.579034
70
0
0
VERTEX
8
Layer 1
10
98.976265
20
23.325429
70
0
0
VERTEX
8
Layer 1
10
92.854553
20
24.848880
70
0
0
VERTEX
8
Layer 1
10
89.597535
20
25.457332
70
0
0
VERTEX
8
Layer 1
10
86.191397
20
25.926443
70
0
0
VERTEX
8
Layer 1
10
82.622378
20
26.228346
70
0
0
VERTEX
8
Layer 1
10
78.876718
20
26.335174
70
0
0
VERTEX
8
Layer 1
10
75.549393
20
26.216065
70
0
0
VERTEX
8
Layer 1
10
72.395342
20
25.879452
70
0
0
VERTEX
8
Layer 1
10
69.420277
20
25.356408
70
0
0
VERTEX
8
Layer 1
10
66.629910
20
24.678004
70
0
0
VERTEX
8
Layer 1
10
64.029952
20
23.875312
70
0
0
VERTEX
8
Layer 1
10
61.626113
20
22.979405
70
0
0
VERTEX
8
Layer 1
10
57.429640
20
21.032230
70
0
0
VERTEX
8
Layer 1
10
54.086183
20
19.085055
70
0
0
VERTEX
8
Layer 1
10
51.641430
20
17.386456
70
0
0
VERTEX
8
Layer 1
10
49.630799
20
15.729286
70
0
0
SEQEND
8
Layer 1
0
POLYLINE
8
Layer 1
62
7
70
0
10
0.000000
20
0.000000
66
1
0
VERTEX
8
Layer 1
10
70.664069
20
53.158220
70
0
0
VERTEX
8
Layer 1
10
71.373151
20
53.158220
70
0
0
VERTEX
8
Layer 1
10
71.841782
20
53.086711
70
0
0
VERTEX
8
Layer 1
10
72.152524
20
52.874014
70
0
0
VERTEX
8
Layer 1
10
72.324756
20
52.522874
70
0
0
VERTEX
8
Layer 1
10
72.377860
20
52.036037
70
0
0
VERTEX
8
Layer 1
10
72.377860
20
32.538405
70
0
0
VERTEX
8
Layer 1
10
72.561073
20
31.325105
70
0
0
VERTEX
8
Layer 1
10
73.134743
20
30.297212
70
0
0
VERTEX
8
Layer 1
10
74.134921
20
29.584967
70
0
0
VERTEX
8
Layer 1
10
74.806216
20
29.387912
70
0
0
VERTEX
8
Layer 1
10
75.597656
20
29.318609
70
0
0
VERTEX
8
Layer 1
10
85.996463
20
29.318609
70
0
0
VERTEX
8
Layer 1
10
87.079480
20
29.395068
70
0
0
VERTEX
8
Layer 1
10
88.041661
20
29.620057
70
0
0
VERTEX
8
Layer 1
10
88.875742
20
29.986995
70
0
0
VERTEX
8
Layer 1
10
89.574460
20
30.489299
70
0
0
VERTEX
8
Layer 1
10
90.130552
20
31.120390
70
0
0
VERTEX
8
Layer 1
10
90.536753
20
31.873685
70
0
0
VERTEX
8
Layer 1
10
90.785801
20
32.742602
70
0
0
VERTEX
8
Layer 1
10
90.870430
20
33.720560
70
0
0
VERTEX
8
Layer 1
10
90.792029
20
34.602875
70
0
0
VERTEX
8
Layer 1
10
90.569975
20
35.356784
70
0
0
VERTEX
8
Layer 1
10
89.773823
20
36.552742
70
0
0
VERTEX
8
Layer 1
10
88.639799
20
37.455146
70
0
0
VERTEX
8
Layer 1
10
87.325727
20
38.210706
70
0
0
VERTEX
8
Layer 1
10
84.729906
20
39.510513
70
0
0
VERTEX
8
Layer 1
10
83.890186
20
40.113420
70
0
0
VERTEX
8
Layer 1
10
83.656411
20
40.444246
70
0
0
VERTEX
8
Layer 1
10
83.573944
20
40.810320
70
0
0
VERTEX
8
Layer 1
10
83.658456
20
41.204090
70
0
0
VERTEX
8
Layer 1
10
83.917460
20
41.523150
70
0
0
VERTEX
8
Layer 1
10
84.359159
20
41.736971
70
0
0
VERTEX
8
Layer 1
10
84.991755
20
41.815029
70
0
0
VERTEX
8
Layer 1
10
86.107550
20
41.660347
70
0
0
VERTEX
8
Layer 1
10
87.226024
20
41.242472
70
0
0
VERTEX
8
Layer 1
10
88.261352
20
40.630657
70
0
0
VERTEX
8
Layer 1
10
89.127712
20
39.894158
70
0
0
VERTEX
8
Layer 1
10
91.490965
20
44.089382
70
0
0
VERTEX
8
Layer 1
10
83.662491
20
44.089382
70
0
0
VERTEX
8
Layer 1
10
82.009620
20
43.826734
70
0
0
VERTEX
8
Layer 1
10
80.763810
20
43.096006
70
0
0
VERTEX
8
Layer 1
10
79.977713
20
41.983022
70
0
0
VERTEX
8
Layer 1
10
79.703980
20
40.573606
70
0
0
VERTEX
8
Layer 1
10
79.792834
20
39.688721
70
0
0
VERTEX
8
Layer 1
10
80.054778
20
38.922241
70
0
0
VERTEX
8
Layer 1
10
80.482889
20
38.248538
70
0
0
VERTEX
8
Layer 1
10
81.070241
20
37.641985
70
0
0
VERTEX
8
Layer 1
10
82.694972
20
36.527822
70
0
0
VERTEX
8
Layer 1
10
84.873574
20
35.374732
70
0
0
VERTEX
8
Layer 1
10
86.502257
20
34.399700
70
0
0
VERTEX
8
Layer 1
10
86.996553
20
33.812586
70
0
0
VERTEX
8
Layer 1
10
87.177914
20
33.070392
70
0
0
VERTEX
8
Layer 1
10
87.073558
20
32.417645
70
0
0
VERTEX
8
Layer 1
10
86.742058
20
31.903406
70
0
0
VERTEX
8
Layer 1
10
86.155764
20
31.566438
70
0
0
VERTEX
8
Layer 1
10
85.287029
20
31.445501
70
0
0
VERTEX
8
Layer 1
10
84.233326
20
31.630843
70
0
0
VERTEX
8
Layer 1
10
83.293117
20
32.119471
70
0
0
VERTEX
8
Layer 1
10
82.474723
20
32.810290
70
0
0
VERTEX
8
Layer 1
10
81.786467
20
33.602204
70
0
0
VERTEX
8
Layer 1
10
80.833655
20
35.084936
70
0
0
VERTEX
8
Layer 1
10
80.501256
20
35.758906
70
0
0
VERTEX
8
Layer 1
10
79.556167
20
35.758906
70
0
0
VERTEX
8
Layer 1
10
79.556167
20
30.825319
70
0
0
VERTEX
8
Layer 1
10
77.458907
20
30.825319
70
0
0
VERTEX
8
Layer 1
10
76.987090
20
30.896834
70
0
0
VERTEX
8
Layer 1
10
76.698232
20
31.109570
70
0
0
VERTEX
8
Layer 1
10
76.513818
20
31.947856
70
0
0
VERTEX
8
Layer 1
10
76.513818
20
54.487837
70
0
0
VERTEX
8
Layer 1
10
70.664069
20
54.487837
70
0
0
VERTEX
8
Layer 1
10
70.664069
20
53.158220
70
0
0
SEQEND
8
Layer 1
0
POLYLINE
8
Layer 1
62
7
70
0
10
0.000000
20
0.000000
66
1
0
VERTEX
8
Layer 1
10
91.018244
20
53.158220
70
0
0
VERTEX
8
Layer 1
10
43.870656
20
40.928500
70
0
0
VERTEX
8
Layer 1
10
44.339288
20
40.856991
70
0
0
VERTEX
8
Layer 1
10
44.650029
20
40.644294
70
0
0
VERTEX
8
Layer 1
10
44.822261
20
40.293154
70
0
0
VERTEX
8
Layer 1
10
44.875365
20
39.806316
70
0
0
VERTEX
8
Layer 1
10
44.875365
20
21.815395
70
0
0
VERTEX
8
Layer 1
10
44.960119
20
20.718879
70
0
0
VERTEX
8
Layer 1
10
45.221076
20
19.739324
70
0
0
VERTEX
8
Layer 1
10
45.668283
20
18.885745
70
0
0
VERTEX
8
Layer 1
10
46.311785
20
18.167152
70
0
0
VERTEX
8
Layer 1
10
47.161629
20
17.592558
70
0
0
VERTEX
8
Layer 1
10
48.227860
20
17.170975
70
0
0
VERTEX
8
Layer 1
10
49.520525
20
16.911417
70
0
0
VERTEX
8
Layer 1
10
51.049668
20
16.822895
70
0
0
VERTEX
8
Layer 1
10
52.379339
20
16.911764
70
0
0
VERTEX
8
Layer 1
10
53.550846
20
17.173748
70
0
0
VERTEX
8
Layer 1
10
54.558296
20
17.601915
70
0
0
VERTEX
8
Layer 1
10
55.395793
20
18.189332
70
0
0
VERTEX
8
Layer 1
10
56.057441
20
18.929067
70
0
0
VERTEX
8
Layer 1
10
56.537346
20
19.814185
70
0
0
VERTEX
8
Layer 1
10
56.829612
20
20.837754
70
0
0
VERTEX
8
Layer 1
10
56.928344
20
21.992842
70
0
0
VERTEX
8
Layer 1
10
56.928344
20
24.237915
70
0
0
VERTEX
8
Layer 1
10
58.937056
20
23.676999
70
0
0
VERTEX
8
Layer 1
10
59.095768
20
22.372973
70
0
0
VERTEX
8
Layer 1
10
59.481198
20
21.122679
70
0
0
VERTEX
8
Layer 1
10
60.090242
20
19.963144
70
0
0
VERTEX
8
Layer 1
10
60.919795
20
18.931399
70
0
0
VERTEX
8
Layer 1
10
61.966753
20
18.064472
70
0
0
VERTEX
8
Layer 1
10
63.228010
20
17.399393
70
0
0
VERTEX
8
Layer 1
10
64.700462
20
16.973191
70
0
0
VERTEX
8
Layer 1
10
66.381004
20
16.822895
70
0
0
VERTEX
8
Layer 1
10
67.677155
20
16.936403
70
0
0
VERTEX
8
Layer 1
10
68.862140
20
17.260068
70
0
0
VERTEX
8
Layer 1
10
69.935619
20
17.768602
70
0
0
VERTEX
8
Layer 1
10
70.897255
20
18.436717
70
0
0
VERTEX
8
Layer 1
10
71.746708
20
19.239124
70
0
0
VERTEX
8
Layer 1
10
72.483638
20
20.150536
70
0
0
VERTEX
8
Layer 1
10
73.618577
20
22.199216
70
0
0
VERTEX
8
Layer 1
10
72.939481
20
22.790118
70
0
0
VERTEX
8
Layer 1
10
71.741583
20
21.268894
70
0
0
VERTEX
8
Layer 1
10
70.446847
20
20.168588
70
0
0
VERTEX
8
Layer 1
10
69.046940
20
19.500279
70
0
0
VERTEX
8
Layer 1
10
67.533526
20
19.275048
70
0
0
VERTEX
8
Layer 1
10
66.038832
20
19.529378
70
0
0
VERTEX
8
Layer 1
10
64.771282
20
20.290516
70
0
0
VERTEX
8
Layer 1
10
64.255553
20
20.860270
70
0
0
VERTEX
8
Layer 1
10
63.836049
20
21.555685
70
0
0
VERTEX
8
Layer 1
10
63.525916
20
22.376412
70
0
0
VERTEX
8
Layer 1
10
63.338302
20
23.322105
70
0
0
VERTEX
8
Layer 1
10
65.743215
20
23.676988
70
0
0
VERTEX
8
Layer 1
10
67.798804
20
24.410224
70
0
0
VERTEX
8
Layer 1
10
69.543491
20
25.390613
70
0
0
VERTEX
8
Layer 1
10
71.015700
20
26.486956
70
0
0
VERTEX
8
Layer 1
10
73.296370
20
28.502702
70
0
0
VERTEX
8
Layer 1
10
74.181676
20
29.159705
70
0
0
VERTEX
8
Layer 1
10
74.948193
20
29.407862
70
0
0
VERTEX
8
Layer 1
10
75.476433
20
29.223183
70
0
0
VERTEX
8
Layer 1
10
75.650512
20
28.934291
70
0
0
VERTEX
8
Layer 1
10
75.716542
20
28.462772
70
0
0
VERTEX
8
Layer 1
10
75.716542
20
29.318609
70
0
0
VERTEX
8
Layer 1
10
81.565584
20
29.318609
70
0
0
VERTEX
8
Layer 1
10
81.565584
20
30.647873
70
0
0
VERTEX
8
Layer 1
10
80.679056
20
30.647873
70
0
0
VERTEX
8
Layer 1
10
80.313270
20
30.718549
70
0
0
VERTEX
8
Layer 1
10
80.055434
20
30.947116
70
0
0
VERTEX
8
Layer 1
10
79.852499
20
31.977136
70
0
0
VERTEX
8
Layer 1
10
79.852499
20
37.324177
70
0
0
VERTEX
8
Layer 1
10
80.036191
20
38.452452
70
0
0
VERTEX
8
Layer 1
10
80.502359
20
39.569647
70
0
0
VERTEX
8
Layer 1
10
81.123637
20
40.465188
70
0
0
VERTEX
8
Layer 1
10
81.772664
20
40.928500
70
0
0
VERTEX
8
Layer 1
10
82.032738
20
40.375522
70
0
0
VERTEX
8
Layer 1
10
82.547804
20
39.850325
70
0
0
VERTEX
8
Layer 1
10
83.317795
20
39.458081
70
0
0
VERTEX
8
Layer 1
10
84.342645
20
39.303962
70
0
0
VERTEX
8
Layer 1
10
85.372067
20
39.446972
70
0
0
VERTEX
8
Layer 1
10
86.303572
20
39.844394
70
0
0
VERTEX
8
Layer 1
10
87.125036
20
40.448820
70
0
0
VERTEX
8
Layer 1
10
87.824333
20
41.212838
70
0
0
VERTEX
8
Layer 1
10
88.389338
20
42.089040
70
0
0
VERTEX
8
Layer 1
10
88.807925
20
43.030015
70
0
0
VERTEX
8
Layer 1
10
89.067969
20
43.988353
70
0
0
VERTEX
8
Layer 1
10
89.157345
20
44.916644
70
0
0
VERTEX
8
Layer 1
10
88.926166
20
46.725624
70
0
0
VERTEX
8
Layer 1
10
88.371005
20
47.911412
70
0
0
VERTEX
8
Layer 1
10
87.699428
20
48.559899
70
0
0
VERTEX
8
Layer 1
10
87.119000
20
48.756974
70
0
0
VERTEX
8
Layer 1
10
86.659684
20
48.658649
70
0
0
VERTEX
8
Layer 1
10
86.369437
20
48.413546
70
0
0
VERTEX
8
Layer 1
10
86.173910
20
47.782252
70
0
0
VERTEX
8
Layer 1
10
86.795874
20
47.618496
70
0
0
VERTEX
8
Layer 1
10
87.228107
20
47.186775
70
0
0
VERTEX
8
Layer 1
10
87.480308
20
46.576412
70
0
0
VERTEX
8
Layer 1
10
87.562176
20
45.876727
70
0
0
VERTEX
8
Layer 1
10
87.483409
20
45.177042
70
0
0
VERTEX
8
Layer 1
10
87.253706
20
44.566678
70
0
0
VERTEX
8
Layer 1
10
86.882765
20
44.134958
70
0
0
VERTEX
8
Layer 1
10
86.380285
20
43.971202
70
0
0
VERTEX
8
Layer 1
10
85.769931
20
44.174324
70
0
0
VERTEX
8
Layer 1
10
85.261938
20
44.621193
70
0
0
VERTEX
8
Layer 1
10
84.648574
20
45.068062
70
0
0
VERTEX
8
Layer 1
10
83.722110
20
45.271185
70
0
0
VERTEX
8
Layer 1
10
82.796644
20
45.119320
70
0
0
VERTEX
8
Layer 1
10
82.056650
20
44.654487
70
0
0
VERTEX
8
Layer 1
10
81.565893
20
43.862827
70
0
0
VERTEX
8
Layer 1
10
81.388138
20
42.730485
70
0
0
VERTEX
8
Layer 1
10
80.490849
20
41.940397
70
0
0
VERTEX
8
Layer 1
10
79.881427
20
41.283394
70
0
0
VERTEX
8
Layer 1
10
79.852499
20
41.283394
70
0
0
VERTEX
8
Layer 1
10
79.852499
20
41.460135
70
0
0
VERTEX
8
Layer 1
10
79.645177
20
42.630594
70
0
0
VERTEX
8
Layer 1
10
79.058310
20
43.535346
70
0
0
VERTEX
8
Layer 1
10
78.144551
20
44.118894
70
0
0
VERTEX
8
Layer 1
10
76.956553
20
44.325743
70
0
0
VERTEX
8
Layer 1
10
76.049448
20
44.240873
70
0
0
VERTEX
8
Layer 1
10
75.221623
20
44.001259
70
0
0
VERTEX
8
Layer 1
10
73.733185
20
43.147776
70
0
0
VERTEX
8
Layer 1
10
72.349985
20
41.945242
70
0
0
VERTEX
8
Layer 1
10
70.930769
20
40.573606
70
0
0
VERTEX
8
Layer 1
10
70.989330
20
41.105947
70
0
0
VERTEX
8
Layer 1
10
70.909947
20
41.804002
70
0
0
VERTEX
8
Layer 1
10
70.681030
20
42.431462
70
0
0
VERTEX
8
Layer 1
10
69.829972
20
43.446887
70
0
0
VERTEX
8
Layer 1
10
68.546917
20
44.096790
70
0
0
VERTEX
8
Layer 1
10
66.942625
20
44.325743
70
0
0
VERTEX
8
Layer 1
10
65.360404
20
44.191075
70
0
0
VERTEX
8
Layer 1
10
63.923273
20
43.802304
70
0
0
VERTEX
8
Layer 1
10
62.643337
20
43.182280
70
0
0
VERTEX
8
Layer 1
10
61.532701
20
42.353851
70
0
0
VERTEX
8
Layer 1
10
60.603470
20
41.339868
70
0
0
VERTEX
8
Layer 1
10
59.867748
20
40.163178
70
0
0
VERTEX
8
Layer 1
10
59.337640
20
38.846631
70
0
0
VERTEX
8
Layer 1
10
59.025251
20
37.413077
70
0
0
VERTEX
8
Layer 1
10
56.928344
20
38.122159
70
0
0
VERTEX
8
Layer 1
10
56.928344
20
44.089382
70
0
0
VERTEX
8
Layer 1
10
99.999241
20
44.089382
70
0
0
VERTEX
8
Layer 1
10
99.999241
20
41.489768
70
0
0
VERTEX
8
Layer 1
10
100.172752
20
40.520910
70
0
0
VERTEX
8
Layer 1
10
100.700738
20
39.477175
70
0
0
VERTEX
8
Layer 1
10
101.594377
20
38.427884
70
0
0
VERTEX
8
Layer 1
10
102.864848
20
37.442358
70
0
0
VERTEX
8
Layer 1
10
102.864848
20
34.606383
70
0
0
VERTEX
8
Layer 1
10
102.655227
20
33.058398
70
0
0
VERTEX
8
Layer 1
10
102.052271
20
32.014443
70
0
0
VERTEX
8
Layer 1
10
101.094840
20
31.424644
70
0
0
VERTEX
8
Layer 1
10
99.821794
20
31.239127
70
0
0
VERTEX
8
Layer 1
10
98.475332
20
31.451835
70
0
0
VERTEX
8
Layer 1
10
97.558289
20
32.054968
70
0
0
VERTEX
8
Layer 1
10
97.034547
20
32.996039
70
0
0
VERTEX
8
Layer 1
10
96.867992
20
34.222562
70
0
0
VERTEX
8
Layer 1
10
96.867992
20
54.487837
70
0
0
VERTEX
8
Layer 1
10
91.018244
20
54.487837
70
0
0
VERTEX
8
Layer 1
10
91.018244
20
53.158220
70
0
0
SEQEND
8
Layer 1
0
POLYLINE
8
Layer 1
62
7
70
0
10
0.000000
20
0.000000
66
1
0
VERTEX
8
Layer 1
10
111.194972
20
37.058536
70
0
0
VERTEX
8
Layer 1
10
111.366164
20
38.315127
70
0
0
VERTEX
8
Layer 1
10
111.683055
20
39.367059
70
0
0
VERTEX
8
Layer 1
10
112.116917
20
40.225772
70
0
0
VERTEX
8
Layer 1
10
112.639020
20
40.902703
70
0
0
VERTEX
8
Layer 1
10
113.220639
20
41.409293
70
0
0
VERTEX
8
Layer 1
10
113.833044
20
41.756980
70
0
0
VERTEX
8
Layer 1
10
115.035302
20
42.021403
70
0
0
VERTEX
8
Layer 1
10
115.701941
20
41.923568
70
0
0
VERTEX
8
Layer 1
10
116.246738
20
41.637449
70
0
0
VERTEX
8
Layer 1
10
116.614266
20
41.174126
70
0
0
VERTEX
8
Layer 1
10
116.749093
20
40.544679
70
0
0
VERTEX
8
Layer 1
10
116.634022
20
39.814488
70
0
0
VERTEX
8
Layer 1
10
116.304974
20
39.156611
70
0
0
VERTEX
8
Layer 1
10
115.786196
20
38.576952
70
0
0
VERTEX
8
Layer 1
10
115.101933
20
38.081413
70
0
0
VERTEX
8
Layer 1
10
113.333941
20
37.366312
70
0
0
VERTEX
8
Layer 1
10
111.194972
20
37.058536
70
0
0
SEQEND
8
Layer 1
0
POLYLINE
8
Layer 1
62
7
70
0
10
0.000000
20
0.000000
66
1
0
VERTEX
8
Layer 1
10
122.169864
20
57.589805
70
0
0
VERTEX
8
Layer 1
10
122.010696
20
57.086684
70
0
0
VERTEX
8
Layer 1
10
122.070205
20
56.622358
70
0
0
VERTEX
8
Layer 1
10
122.290316
20
56.235621
70
0
0
VERTEX
8
Layer 1
10
122.612952
20
55.965267
70
0
0
VERTEX
8
Layer 1
10
122.919383
20
55.603097
70
0
0
VERTEX
8
Layer 1
10
122.849313
20
55.108372
70
0
0
VERTEX
8
Layer 1
10
122.685470
20
54.655665
70
0
0
VERTEX
8
Layer 1
10
122.712788
20
54.211127
70
0
0
VERTEX
8
Layer 1
10
122.911820
20
53.816397
70
0
0
VERTEX
8
Layer 1
10
123.263120
20
53.513114
70
0
0
VERTEX
8
Layer 1
10
123.920256
20
53.343252
70
0
0
VERTEX
8
Layer 1
10
124.444570
20
53.483481
70
0
0
VERTEX
8
Layer 1
10
125.330746
20
53.948882
70
0
0
VERTEX
8
Layer 1
10
125.765566
20
54.048629
70
0
0
VERTEX
8
Layer 1
10
126.216922
20
53.926921
70
0
0
VERTEX
8
Layer 1
10
126.472024
20
53.675347
70
0
0
VERTEX
8
Layer 1
10
126.571816
20
53.335667
70
0
0
VERTEX
8
Layer 1
10
126.447622
20
52.870498
70
0
0
VERTEX
8
Layer 1
10
126.132300
20
52.538215
70
0
0
VERTEX
8
Layer 1
10
125.271832
20
52.006403
70
0
0
VERTEX
8
Layer 1
10
124.902254
20
51.622494
70
0
0
VERTEX
8
Layer 1
10
124.710211
20
50.972414
70
0
0
VERTEX
8
Layer 1
10
124.799315
20
50.518302
70
0
0
VERTEX
8
Layer 1
10
125.046276
20
50.152825
70
0
0
VERTEX
8
Layer 1
10
125.420567
20
49.909188
70
0
0
VERTEX
8
Layer 1
10
125.891662
20
49.820597
70
0
0
VERTEX
8
Layer 1
10
126.357283
20
49.639534
70
0
0
VERTEX
8
Layer 1
10
126.512549
20
49.170076
70
0
0
VERTEX
8
Layer 1
10
126.589614
20
48.761191
70
0
0
VERTEX
8
Layer 1
10
126.818980
20
48.379988
70
0
0
VERTEX
8
Layer 1
10
127.197901
20
48.098467
70
0
0
VERTEX
8
Layer 1
10
127.723633
20
47.988626
70
0
0
VERTEX
8
Layer 1
10
128.232232
20
48.098467
70
0
0
VERTEX
8
Layer 1
10
128.602356
20
48.379988
70
0
0
VERTEX
8
Layer 1
10
128.828481
20
48.761191
70
0
0
VERTEX
8
Layer 1
10
128.905083
20
49.170076
70
0
0
VERTEX
8
Layer 1
10
129.060261
20
49.639534
70
0
0
VERTEX
8
Layer 1
10
129.525265
20
49.820597
70
0
0
VERTEX
8
Layer 1
10
129.996713
20
49.909188
70
0
0
VERTEX
8
Layer 1
10
130.371092
20
50.152825
70
0
0
VERTEX
8
Layer 1
10
130.618008
20
50.518302
70
0
0
VERTEX
8
Layer 1
10
130.707068
20
50.972414
70
0
0
VERTEX
8
Layer 1
10
130.515201
20
51.622494
70
0
0
VERTEX
8
Layer 1
10
130.145799
20
52.006403
70
0
0
VERTEX
8
Layer 1
10
129.285509
20
52.538215
70
0
0
VERTEX
8
Layer 1
10
128.970308
20
52.870498
70
0
0
VERTEX
8
Layer 1
10
128.846169
20
53.335667
70
0
0
VERTEX
8
Layer 1
10
128.945784
20
53.675347
70
0
0
VERTEX
8
Layer 1
10
129.200710
20
53.926921
70
0
0
VERTEX
8
Layer 1
10
129.656233
20
54.048629
70
0
0
VERTEX
8
Layer 1
10
130.097998
20
53.948882
70
0
0
VERTEX
8
Layer 1
10
130.973062
20
53.483481
70
0
0
VERTEX
8
Layer 1
10
131.497509
20
53.343252
70
0
0
VERTEX
8
Layer 1
10
132.154512
20
53.513114
70
0
0
VERTEX
8
Layer 1
10
132.505817
20
53.816397
70
0
0
VERTEX
8
Layer 1
10
132.704888
20
54.211127
70
0
0
VERTEX
8
Layer 1
10
132.732311
20
54.655665
70
0
0
VERTEX
8
Layer 1
10
132.568672
20
55.108372
70
0
0
VERTEX
8
Layer 1
10
132.498337
20
55.603097
70
0
0
VERTEX
8
Layer 1
10
132.805032
20
55.965267
70
0
0
VERTEX
8
Layer 1
10
133.127515
20
56.235621
70
0
0
VERTEX
8
Layer 1
10
133.347604
20
56.622358
70
0
0
VERTEX
8
Layer 1
10
133.407091
20
57.086684
70
0
0
VERTEX
8
Layer 1
10
133.247768
20
57.589805
70
0
0
VERTEX
8
Layer 1
10
132.885780
20
57.983036
70
0
0
VERTEX
8
Layer 1
10
132.457415
20
58.165757
70
0
0
VERTEX
8
Layer 1
10
132.018004
20
58.171275
70
0
0
VERTEX
8
Layer 1
10
131.622877
20
58.032893
70
0
0
VERTEX
8
Layer 1
10
131.139308
20
57.937026
70
0
0
VERTEX
8
Layer 1
10
130.766334
20
58.239620
70
0
0
VERTEX
8
Layer 1
10
130.446426
20
58.603884
70
0
0
VERTEX
8
Layer 1
10
130.046184
20
58.804769
70
0
0
VERTEX
8
Layer 1
10
129.607114
20
58.833939
70
0
0
VERTEX
8
Layer 1
10
129.170724
20
58.683061
70
0
0
VERTEX
8
Layer 1
10
128.694916
20
58.202667
70
0
0
VERTEX
8
Layer 1
10
128.550895
20
57.678352
70
0
0
VERTEX
8
Layer 1
10
128.510237
20
56.670336
70
0
0
VERTEX
8
Layer 1
10
128.380636
20
56.236955
70
0
0
VERTEX
8
Layer 1
10
128.048893
20
55.906000
70
0
0
VERTEX
8
Layer 1
10
127.708816
20
55.817365
70
0
0
VERTEX
8
Layer 1
10
127.368739
20
55.906000
70
0
0
VERTEX
8
Layer 1
10
127.036996
20
56.236955
70
0
0
VERTEX
8
Layer 1
10
126.907395
20
56.670336
70
0
0
VERTEX
8
Layer 1
10
126.866737
20
57.678352
70
0
0
VERTEX
8
Layer 1
10
126.722672
20
58.202667
70
0
0
VERTEX
8
Layer 1
10
126.246555
20
58.683061
70
0
0
VERTEX
8
Layer 1
10
125.810826
20
58.833939
70
0
0
VERTEX
8
Layer 1
10
125.375064
20
58.804769
70
0
0
VERTEX
8
Layer 1
10
124.983553
20
58.603884
70
0
0
VERTEX
8
Layer 1
10
124.680578
20
58.239620
70
0
0
VERTEX
8
Layer 1
10
124.281984
20
57.937026
70
0
0
VERTEX
8
Layer 1
10
123.794755
20
58.032893
70
0
0
VERTEX
8
Layer 1
10
123.399480
20
58.171275
70
0
0
VERTEX
8
Layer 1
10
122.960085
20
58.165757
70
0
0
VERTEX
8
Layer 1
10
122.531802
20
57.983036
70
0
0
VERTEX
8
Layer 1
10
122.169864
20
57.589805
70
0
0
SEQEND
8
Layer 1
0
POLYLINE
8
Layer 1
62
7
70
0
10
0.000000
20
0.000000
66
1
0
VERTEX
8
Layer 1
10
140.293430
20
36.674362
70
0
0
VERTEX
8
Layer 1
10
140.376459
20
37.896514
70
0
0
VERTEX
8
Layer 1
10
140.614231
20
38.968052
70
0
0
VERTEX
8
Layer 1
10
140.989777
20
39.885173
70
0
0
VERTEX
8
Layer 1
10
141.486125
20
40.644074
70
0
0
VERTEX
8
Layer 1
10
142.086305
20
41.240950
70
0
0
VERTEX
8
Layer 1
10
142.773347
20
41.672000
70
0
0
VERTEX
8
Layer 1
10
143.530281
20
41.933418
70
0
0
VERTEX
8
Layer 1
10
144.340135
20
42.021403
70
0
0
VERTEX
8
Layer 1
10
145.260398
20
41.917565
70
0
0
VERTEX
8
Layer 1
10
146.161082
20
41.567203
70
0
0
VERTEX
8
Layer 1
10
146.978554
20
40.978716
70
0
0
VERTEX
8
Layer 1
10
147.649183
20
40.160504
70
0
0
VERTEX
8
Layer 1
10
99.792514
20
21.963208
70
0
0
VERTEX
8
Layer 1
10
99.104312
20
20.719129
70
0
0
VERTEX
8
Layer 1
10
98.252730
20
19.854660
70
0
0
VERTEX
8
Layer 1
10
97.262639
20
19.350288
70
0
0
VERTEX
8
Layer 1
10
96.158911
20
19.186501
70
0
0
VERTEX
8
Layer 1
10
95.379816
20
19.287638
70
0
0
VERTEX
8
Layer 1
10
94.667540
20
19.580205
70
0
0
VERTEX
8
Layer 1
10
94.033507
20
20.047935
70
0
0
VERTEX
8
Layer 1
10
93.489138
20
20.674558
70
0
0
VERTEX
8
Layer 1
10
93.045857
20
21.443808
70
0
0
VERTEX
8
Layer 1
10
92.715085
20
22.339418
70
0
0
VERTEX
8
Layer 1
10
92.436760
20
24.444642
70
0
0
SEQEND
8
Layer 1
0
POLYLINE
8
Layer 1
62
7
70
0
10
0.000000
20
0.000000
66
1
0
VERTEX
8
Layer 1
10
229.062000
20
32.095400
70
0
0
VERTEX
8
Layer 1
10
230.182844
20
32.287636
70
0
0
VERTEX
8
Layer 1
10
231.041388
20
32.833454
70
0
0
VERTEX
8
Layer 1
10
231.590832
20
33.686518
70
0
0
VERTEX
8
Layer 1
10
231.784380
20
34.800494
70
0
0
VERTEX
8
Layer 1
10
231.590832
20
35.907977
70
0
0
VERTEX
8
Layer 1
10
231.041388
20
36.748132
70
0
0
VERTEX
8
Layer 1
10
230.182844
20
37.281305
70
0
0
VERTEX
8
Layer 1
10
229.062000
20
37.467841
70
0
0
VERTEX
8
Layer 1
10
227.940952
20
37.281305
70
0
0
VERTEX
8
Layer 1
10
227.082304
20
36.748132
70
0
0
VERTEX
8
Layer 1
10
226.532820
20
35.907977
70
0
0
VERTEX
8
Layer 1
10
226.339267
20
34.800494
70
0
0
VERTEX
8
Layer 1
10
226.532820
20
33.686518
70
0
0
VERTEX
8
Layer 1
10
227.082304
20
32.833454
70
0
0
VERTEX
8
Layer 1
10
227.940952
20
32.287636
70
0
0
VERTEX
8
Layer 1
10
229.062000
20
32.095400
70
0
0
SEQEND
8
Layer 1
0
POLYLINE
8
Layer 1
62
7
70
0
10
0.000000
20
0.000000
66
1
0
VERTEX
8
Layer 1
10
243.579479
20
36.870589
70
0
0
VERTEX
8
Layer 1
10
242.418525
20
37.041801
70
0
0
VERTEX
8
Layer 1
10
241.480891
20
37.533116
70
0
0
VERTEX
8
Layer 1
10
240.745457
20
38.311057
70
0
0
VERTEX
8
Layer 1
10
240.191100
20
39.342145
70
0
0
VERTEX
8
Layer 1
10
239.796700
20
40.592904
70
0
0
VERTEX
8
Layer 1
10
239.541136
20
42.029854
70
0
0
VERTEX
8
Layer 1
10
239.362030
20
45.328418
70
0
0
VERTEX
8
Layer 1
10
239.541136
20
48.632990
70
0
0
VERTEX
8
Layer 1
10
239.796700
20
50.076099
70
0
0
VERTEX
8
Layer 1
10
240.191100
20
51.333917
70
0
0
VERTEX
8
Layer 1
10
240.745457
20
52.372066
70
0
0
VERTEX
8
Layer 1
10
241.480891
20
53.156165
70
0
0
VERTEX
8
Layer 1
10
242.418525
20
53.651836
70
0
0
VERTEX
8
Layer 1
10
243.579479
20
53.824699
70
0
0
VERTEX
8
Layer 1
10
244.736840
20
53.651836
70
0
0
VERTEX
8
Layer 1
10
245.665659
20
53.156165
70
0
0
VERTEX
8
Layer 1
10
246.388815
20
52.372066
70
0
0
VERTEX
8
Layer 1
10
246.929185
20
51.333917
70
0
0
VERTEX
8
Layer 1
10
247.309648
20
50.076099
70
0
0
VERTEX
8
Layer 1
10
247.553082
20
48.632990
70
0
0
VERTEX
8
Layer 1
10
247.720376
20
45.328418
70
0
0
VERTEX
8
Layer 1
10
247.553082
20
42.029854
70
0
0
VERTEX
8
Layer 1
10
247.309648
20
40.592904
70
0
0
VERTEX
8
Layer 1
10
246.929185
20
39.342145
70
0
0
VERTEX
8
Layer 1
10
246.388815
20
38.311057
70
0
0
VERTEX
8
Layer 1
10
245.665659
20
37.533116
70
0
0
VERTEX
8
Layer 1
10
244.736840
20
37.041801
70
0
0
VERTEX
8
Layer 1
10
243.579479
20
36.870589
70
0
0
SEQEND
8
Layer 1
0
POLYLINE
8
Layer 1
62
7
70
0
10
0.000000
20
0.000000
66
1
0
VERTEX
8
Layer 1
10
243.617932
20
31.536601
70
0
0
VERTEX
8
Layer 1
10
246.066330
20
31.780738
70
0
0
VERTEX
8
Layer 1
10
248.204397
20
32.496783
70
0
0
VERTEX
8
Layer 1
10
250.027164
20
33.660188
70
0
0
VERTEX
8
Layer 1
10
251.529662
20
35.246404
70
0
0
VERTEX
8
Layer 1
10
252.706921
20
37.230884
70
0
0
VERTEX
8
Layer 1
10
253.553973
20
39.589078
70
0
0
VERTEX
8
Layer 1
10
254.065848
20
42.296439
70
0
0
VERTEX
8
Layer 1
10
254.237578
20
45.328418
70
0
0
VERTEX
8
Layer 1
10
254.068988
20
48.383623
70
0
0
VERTEX
8
Layer 1
10
253.564738
20
51.105467
70
0
0
VERTEX
8
Layer 1
10
252.727106
20
53.471140
70
0
0
VERTEX
8
Layer 1
10
251.558369
20
55.457836
70
0
0
VERTEX
8
Layer 1
10
250.060805
20
57.042747
70
0
0
VERTEX
8
Layer 1
10
248.236692
20
58.203064
70
0
0
VERTEX
8
Layer 1
10
246.088309
20
58.915980
70
0
0
VERTEX
8
Layer 1
10
243.617932
20
59.158688
70
0
0
VERTEX
8
Layer 1
10
241.140353
20
58.915980
70
0
0
VERTEX
8
Layer 1
10
238.974301
20
58.203064
70
0
0
VERTEX
8
Layer 1
10
237.125573
20
57.042747
70
0
0
VERTEX
8
Layer 1
10
235.599972
20
55.457836
70
0
0
VERTEX
8
Layer 1
10
234.403297
20
53.471140
70
0
0
VERTEX
8
Layer 1
10
233.541347
20
51.105467
70
0
0
VERTEX
8
Layer 1
10
233.019924
20
48.383623
70
0
0
VERTEX
8
Layer 1
10
232.844828
20
45.328418
70
0
0
VERTEX
8
Layer 1
10
233.019924
20
42.274865
70
0
0
VERTEX
8
Layer 1
10
233.541347
20
39.557378
70
0
0
VERTEX
8
Layer 1
10
234.403297
20
37.197862
70
0
0
VERTEX
8
Layer 1
10
235.599972
20
35.218226
70
0
0
VERTEX
8
Layer 1
10
237.125573
20
33.640375
70
0
0
VERTEX
8
Layer 1
10
238.974301
20
32.486216
70
0
0
VERTEX
8
Layer 1
10
241.140353
20
31.777656
70
0
0
VERTEX
8
Layer 1
10
243.617932
20
31.536601
70
0
0
SEQEND
8
Layer 1
0
POLYLINE
8
Layer 1
62
7
70
0
10
0.000000
20
0.000000
66
1
0
VERTEX
8
Layer 1
10
214.620721
20
36.870589
70
0
0
VERTEX
8
Layer 1
10
213.459868
20
37.041801
70
0
0
VERTEX
8
Layer 1
10
212.522282
20
37.533116
70
0
0
VERTEX
8
Layer 1
10
211.786853
20
38.311057
70
0
0
VERTEX
8
Layer 1
10
211.232474
20
39.342145
70
0
0
VERTEX
8
Layer 1
10
210.838035
20
40.592904
70
0
0
VERTEX
8
Layer 1
10
210.582427
20
42.029854
70
0
0
VERTEX
8
Layer 1
10
210.403272
20
45.328418
70
0
0
VERTEX
8
Layer 1
10
210.582427
20
48.632990
70
0
0
VERTEX
8
Layer 1
10
210.838035
20
50.076099
70
0
0
VERTEX
8
Layer 1
10
211.232474
20
51.333917
70
0
0
VERTEX
8
Layer 1
10
211.786853
20
52.372066
70
0
0
VERTEX
8
Layer 1
10
212.522282
20
53.156165
70
0
0
VERTEX
8
Layer 1
10
213.459868
20
53.651836
70
0
0
VERTEX
8
Layer 1
10
214.620721
20
53.824699
70
0
0
VERTEX
8
Layer 1
10
215.778183
20
53.651836
70
0
0
VERTEX
8
Layer 1
10
216.707049
20
53.156165
70
0
0
VERTEX
8
Layer 1
10
217.430211
20
52.372066
70
0
0
VERTEX
8
Layer 1
10
217.970559
20
51.333917
70
0
0
VERTEX
8
Layer 1
10
218.350983
20
50.076099
70
0
0
VERTEX
8
Layer 1
10
218.594373
20
48.632990
70
0
0
VERTEX
8
Layer 1
10
218.761617
20
45.328418
70
0
0
VERTEX
8
Layer 1
10
218.594373
20
42.029854
70
0
0
VERTEX
8
Layer 1
10
218.350983
20
40.592904
70
0
0
VERTEX
8
Layer 1
10
217.970559
20
39.342145
70
0
0
VERTEX
8
Layer 1
10
217.430211
20
38.311057
70
0
0
VERTEX
8
Layer 1
10
216.707049
20
37.533116
70
0
0
VERTEX
8
Layer 1
10
215.778183
20
37.041801
70
0
0
VERTEX
8
Layer 1
10
214.620721
20
36.870589
70
0
0
SEQEND
8
Layer 1
0
POLYLINE
8
Layer 1
62
7
70
0
10
0.000000
20
0.000000
66
1
0
VERTEX
8
Layer 1
10
214.659526
20
31.536601
70
0
0
VERTEX
8
Layer 1
10
217.107808
20
31.780738
70
0
0
VERTEX
8
Layer 1
10
219.245787
20
32.496783
70
0
0
VERTEX
8
Layer 1
10
221.068491
20
33.660188
70
0
0
VERTEX
8
Layer 1
10
222.570947
20
35.246404
70
0
0
VERTEX
8
Layer 1
10
223.748181
20
37.230884
70
0
0
VERTEX
8
Layer 1
10
224.595220
20
39.589078
70
0
0
VERTEX
8
Layer 1
10
225.107091
20
42.296439
70
0
0
VERTEX
8
Layer 1
10
225.278819
20
45.328418
70
0
0
VERTEX
8
Layer 1
10
225.110245
20
48.383623
70
0
0
VERTEX
8
Layer 1
10
224.606035
20
51.105467
70
0
0
VERTEX
8
Layer 1
10
223.768459
20
53.471140
70
0
0
VERTEX
8
Layer 1
10
222.599787
20
55.457836
70
0
0
VERTEX
8
Layer 1
10
221.102288
20
57.042747
70
0
0
VERTEX
8
Layer 1
10
219.278232
20
58.203064
70
0
0
VERTEX
8
Layer 1
10
217.129888
20
58.915980
70
0
0
VERTEX
8
Layer 1
10
214.659526
20
59.158688
70
0
0
VERTEX
8
Layer 1
10
212.181948
20
58.915980
70
0
0
VERTEX
8
Layer 1
10
210.015895
20
58.203064
70
0
0
VERTEX
8
Layer 1
10
208.167168
20
57.042747
70
0
0
VERTEX
8
Layer 1
10
206.641566
20
55.457836
70
0
0
VERTEX
8
Layer 1
10
205.444891
20
53.471140
70
0
0
VERTEX
8
Layer 1
10
204.582942
20
51.105467
70
0
0
VERTEX
8
Layer 1
10
204.061519
20
48.383623
70
0
0
VERTEX
8
Layer 1
10
203.886422
20
45.328418
70
0
0
VERTEX
8
Layer 1
10
204.061519
20
42.274865
70
0
0
VERTEX
8
Layer 1
10
204.582942
20
39.557378
70
0
0
VERTEX
8
Layer 1
10
205.444891
20
37.197862
70
0
0
VERTEX
8
Layer 1
10
206.641566
20
35.218226
70
0
0
VERTEX
8
Layer 1
10
208.167168
20
33.640375
70
0
0
VERTEX
8
Layer 1
10
210.015895
20
32.486216
70
0
0
VERTEX
8
Layer 1
10
212.181948
20
31.777656
70
0
0
VERTEX
8
Layer 1
10
214.659526
20
31.536601
70
0
0
SEQEND
8
Layer 1
0
POLYLINE
8
Layer 1
62
7
70
0
10
0.000000
20
0.000000
66
1
0
VERTEX
8
Layer 1
10
191.581560
20
36.119527
70
0
0
VERTEX
8
Layer 1
10
191.660795
20
35.255766
70
0
0
VERTEX
8
Layer 1
10
191.893641
20
34.462065
70
0
0
VERTEX
8
Layer 1
10
192.272810
20
33.752328
70
0
0
VERTEX
8
Layer 1
10
192.791012
20
33.140458
70
0
0
VERTEX
8
Layer 1
10
193.440960
20
32.640357
70
0
0
VERTEX
8
Layer 1
10
194.215366
20
32.265929
70
0
0
VERTEX
8
Layer 1
10
195.106940
20
32.031077
70
0
0
VERTEX
8
Layer 1
10
196.108395
20
31.949703
70
0
0
VERTEX
8
Layer 1
10
197.637330
20
32.185711
70
0
0
VERTEX
8
Layer 1
10
198.734467
20
32.732868
70
0
0
VERTEX
8
Layer 1
10
197.859227
20
34.173257
70
0
0
VERTEX
8
Layer 1
10
197.183703
20
33.746749
70
0
0
VERTEX
8
Layer 1
10
196.223753
20
33.562600
70
0
0
VERTEX
8
Layer 1
10
195.212391
20
33.749891
70
0
0
VERTEX
8
Layer 1
10
194.413786
20
34.275121
70
0
0
VERTEX
8
Layer 1
10
193.889488
20
35.083322
70
0
0
VERTEX
8
Layer 1
10
193.701045
20
36.119527
70
0
0
VERTEX
8
Layer 1
10
193.882989
20
37.155733
70
0
0
VERTEX
8
Layer 1
10
194.396456
20
37.963934
70
0
0
VERTEX
8
Layer 1
10
195.192894
20
38.489163
70
0
0
VERTEX
8
Layer 1
10
196.223753
20
38.676455
70
0
0
VERTEX
8
Layer 1
10
197.186746
20
38.469198
70
0
0
VERTEX
8
Layer 1
10
197.847585
20
37.985718
70
0
0
VERTEX
8
Layer 1
10
198.734467
20
39.506186
70
0
0
VERTEX
8
Layer 1
10
197.637330
20
40.053079
70
0
0
VERTEX
8
Layer 1
10
196.108395
20
40.289351
70
0
0
VERTEX
8
Layer 1
10
195.106940
20
40.207978
70
0
0
VERTEX
8
Layer 1
10
194.215366
20
39.973125
70
0
0
VERTEX
8
Layer 1
10
193.440960
20
39.598697
70
0
0
VERTEX
8
Layer 1
10
192.791012
20
39.098597
70
0
0
VERTEX
8
Layer 1
10
192.272810
20
38.486726
70
0
0
VERTEX
8
Layer 1
10
191.893641
20
37.776989
70
0
0
VERTEX
8
Layer 1
10
191.660795
20
36.983289
70
0
0
VERTEX
8
Layer 1
10
191.581560
20
36.119527
70
0
0
SEQEND
8
Layer 1
0
POLYLINE
8
Layer 1
62
7
70
0
10
0.000000
20
0.000000
66
1
0
VERTEX
8
Layer 1
10
186.663496
20
33.769327
70
0
0
VERTEX
8
Layer 1
10
186.663496
20
40.139421
70
0
0
VERTEX
8
Layer 1
10
184.671012
20
40.139421
70
0
0
VERTEX
8
Layer 1
10
184.671012
20
32.076350
70
0
0
VERTEX
8
Layer 1
10
189.888936
20
32.076350
70
0
0
VERTEX
8
Layer 1
10
189.888936
20
33.769327
70
0
0
VERTEX
8
Layer 1
10
186.663496
20
33.769327
70
0
0
SEQEND
8
Layer 1
0
POLYLINE
8
Layer 1
62
7
70
0
10
0.000000
20
0.000000
66
1
0
VERTEX
8
Layer 1
10
177.495528
20
35.128929
70
0
0
VERTEX
8
Layer 1
10
178.416628
20
38.538519
70
0
0
VERTEX
8
Layer 1
10
179.326793
20
35.128929
70
0
0
VERTEX
8
Layer 1
10
177.495528
20
35.128929
70
0
0
SEQEND
8
Layer 1
0
POLYLINE
8
Layer 1
62
7
70
0
10
0.000000
20
0.000000
66
1
0
VERTEX
8
Layer 1
10
180.156172
20
32.076350
70
0
0
VERTEX
8
Layer 1
10
224.639588
20
30.402423
70
0
0
VERTEX
8
Layer 1
10
222.071018
20
38.465494
70
0
0
VERTEX
8
Layer 1
10
219.559952
20
38.465494
70
0
0
VERTEX
8
Layer 1
10
216.991029
20
30.402423
70
0
0
VERTEX
8
Layer 1
10
219.075941
20
30.402423
70
0
0
VERTEX
8
Layer 1
10
219.467524
20
31.854101
70
0
0
VERTEX
8
Layer 1
10
222.163093
20
31.854101
70
0
0
VERTEX
8
Layer 1
10
180.156172
20
32.076350
70
0
0
SEQEND
8
Layer 1
0
POLYLINE
8
Layer 1
62
7
70
1
10
0.000000
20
0.000000
66
1
0
VERTEX
8
Layer 1
10
281.397879
20
33.768269
70
0
0
VERTEX
8
Layer 1
10
323.796383
20
38.459497
70
0
0
VERTEX
8
Layer 1
10
321.779557
20
38.459497
70
0
0
VERTEX
8
Layer 1
10
321.779557
20
32.076350
70
0
0
VERTEX
8
Layer 1
10
327.060628
20
32.076350
70
0
0
VERTEX
8
Layer 1
10
327.060628
20
33.768269
70
0
0
VERTEX
8
Layer 1
10
281.397879
20
33.768269
70
0
0
SEQEND
8
Layer 1
0
POLYLINE
8
Layer 1
62
7
70
0
10
0.000000
20
0.000000
66
1
0
VERTEX
8
Layer 1
10
272.537885
20
33.537905
70
0
0
VERTEX
8
Layer 1
10
271.581881
20
33.744754
70
0
0
VERTEX
8
Layer 1
10
270.888211
20
34.303431
70
0
0
VERTEX
8
Layer 1
10
270.465606
20
35.121135
70
0
0
VERTEX
8
Layer 1
10
270.322798
20
36.105063
70
0
0
VERTEX
8
Layer 1
10
270.465606
20
37.117903
70
0
0
VERTEX
8
Layer 1
10
270.888211
20
37.932140
70
0
0
VERTEX
8
Layer 1
10
271.581881
20
38.474452
70
0
0
VERTEX
8
Layer 1
10
272.537885
20
38.671516
70
0
0
VERTEX
8
Layer 1
10
273.486612
20
38.474452
70
0
0
VERTEX
8
Layer 1
10
274.164275
20
37.932140
70
0
0
VERTEX
8
Layer 1
10
274.570872
20
37.117903
70
0
0
VERTEX
8
Layer 1
10
274.706405
20
36.105063
70
0
0
VERTEX
8
Layer 1
10
274.570872
20
35.121135
70
0
0
VERTEX
8
Layer 1
10
274.164275
20
34.303431
70
0
0
VERTEX
8
Layer 1
10
273.486612
20
33.744754
70
0
0
VERTEX
8
Layer 1
10
272.537885
20
33.537905
70
0
0
SEQEND
8
Layer 1
0
POLYLINE
8
Layer 1
62
7
70
0
10
0.000000
20
0.000000
66
1
0
VERTEX
8
Layer 1
10
272.526243
20
31.926773
70
0
0
VERTEX
8
Layer 1
10
273.455248
20
32.010463
70
0
0
VERTEX
8
Layer 1
10
274.294091
20
32.251019
70
0
0
VERTEX
8
Layer 1
10
275.032385
20
32.632663
70
0
0
VERTEX
8
Layer 1
10
275.659741
20
33.139620
70
0
0
VERTEX
8
Layer 1
10
276.165768
20
33.756114
70
0
0
VERTEX
8
Layer 1
10
276.540079
20
34.466370
70
0
0
VERTEX
8
Layer 1
10
276.772284
20
35.254612
70
0
0
VERTEX
8
Layer 1
10
276.851995
20
36.105063
70
0
0
VERTEX
8
Layer 1
10
276.772762
20
36.952056
70
0
0
VERTEX
8
Layer 1
10
276.541716
20
37.738641
70
0
0
VERTEX
8
Layer 1
10
276.168838
20
38.448630
70
0
0
VERTEX
8
Layer 1
10
275.664106
20
39.065833
70
0
0
VERTEX
8
Layer 1
10
275.037501
20
39.574060
70
0
0
VERTEX
8
Layer 1
10
274.299003
20
39.957124
70
0
0
VERTEX
8
Layer 1
10
273.458590
20
40.198834
70
0
0
VERTEX
8
Layer 1
10
272.526243
20
40.283001
70
0
0
VERTEX
8
Layer 1
10
271.576199
20
40.198834
70
0
0
VERTEX
8
Layer 1
10
270.725344
20
39.957124
70
0
0
VERTEX
8
Layer 1
10
269.982150
20
39.574060
70
0
0
VERTEX
8
Layer 1
10
269.355087
20
39.065833
70
0
0
VERTEX
8
Layer 1
10
268.852625
20
38.448630
70
0
0
VERTEX
8
Layer 1
10
268.483237
20
37.738641
70
0
0
VERTEX
8
Layer 1
10
268.255392
20
36.952056
70
0
0
VERTEX
8
Layer 1
10
268.177561
20
36.105063
70
0
0
VERTEX
8
Layer 1
10
268.255392
20
35.277806
70
0
0
VERTEX
8
Layer 1
10
268.483237
20
34.500452
70
0
0
VERTEX
8
Layer 1
10
268.852625
20
33.791616
70
0
0
VERTEX
8
Layer 1
10
269.355087
20
33.169915
70
0
0
VERTEX
8
Layer 1
10
269.982150
20
32.653964
70
0
0
VERTEX
8
Layer 1
10
270.725344
20
32.262379
70
0
0
VERTEX
8
Layer 1
10
271.576199
20
32.013777
70
0
0
VERTEX
8
Layer 1
10
272.526243
20
31.926773
70
0
0
SEQEND
8
Layer 1
0
POLYLINE
8
Layer 1
62
7
70
0
10
0.000000
20
0.000000
66
1
0
VERTEX
8
Layer 1
10
264.552777
20
40.133424
70
0
0
VERTEX
8
Layer 1
10
262.780426
20
33.986990
70
0
0
VERTEX
8
Layer 1
10
261.020068
20
40.133424
70
0
0
VERTEX
8
Layer 1
10
258.967965
20
40.133424
70
0
0
VERTEX
8
Layer 1
10
261.509723
20
32.076350
70
0
0
VERTEX
8
Layer 1
10
264.063123
20
32.076350
70
0
0
VERTEX
8
Layer 1
10
266.604881
20
40.133424
70
0
0
VERTEX
8
Layer 1
10
264.552777
20
40.133424
70
0
0
SEQEND
8
Layer 1
0
POLYLINE
8
Layer 1
62
7
70
0
10
0.000000
20
0.000000
66
1
0
VERTEX
8
Layer 1
10
269.893821
20
22.620868
70
0
0
VERTEX
8
Layer 1
10
277.878928
20
17.570865
70
0
0
VERTEX
8
Layer 1
10
273.051881
20
17.570865
70
0
0
VERTEX
8
Layer 1
10
273.051881
20
10.209468
70
0
0
VERTEX
8
Layer 1
10
277.878928
20
10.209468
70
0
0
VERTEX
8
Layer 1
10
277.878928
20
11.755689
70
0
0
VERTEX
8
Layer 1
10
274.871505
20
11.755689
70
0
0
VERTEX
8
Layer 1
10
274.871505
20
13.322725
70
0
0
VERTEX
8
Layer 1
10
277.815781
20
13.322725
70
0
0
VERTEX
8
Layer 1
10
277.815781
20
14.732422
70
0
0
VERTEX
8
Layer 1
10
274.871505
20
14.732422
70
0
0
VERTEX
8
Layer 1
10
274.871505
20
16.025349
70
0
0
VERTEX
8
Layer 1
10
269.893821
20
22.620868
70
0
0
SEQEND
8
Layer 1
0
POLYLINE
8
Layer 1
62
7
70
0
10
0.000000
20
0.000000
66
1
0
VERTEX
8
Layer 1
10
260.481378
20
16.805692
70
0
0
VERTEX
8
Layer 1
10
262.300296
20
16.805692
70
0
0
VERTEX
8
Layer 1
10
262.300296
20
24.166384
70
0
0
VERTEX
8
Layer 1
10
260.481378
20
24.166384
70
0
0
VERTEX
8
Layer 1
10
260.481378
20
16.805692
70
0
0
SEQEND
8
Layer 1
0
POLYLINE
8
Layer 1
62
7
70
0
10
0.000000
20
0.000000
66
1
0
VERTEX
8
Layer 1
10
256.057907
20
21.716348
70
0
0
VERTEX
8
Layer 1
10
255.982429
20
21.287013
70
0
0
VERTEX
8
Layer 1
10
255.746185
20
20.977765
70
0
0
VERTEX
8
Layer 1
10
255.334455
20
20.790689
70
0
0
VERTEX
8
Layer 1
10
254.732524
20
20.727867
70
0
0
VERTEX
8
Layer 1
10
253.944420
20
20.727867
70
0
0
VERTEX
8
Layer 1
10
253.944420
20
22.694951
70
0
0
VERTEX
8
Layer 1
10
254.764274
20
22.694951
70
0
0
VERTEX
8
Layer 1
10
255.347850
20
22.635260
70
0
0
VERTEX
8
Layer 1
10
255.750153
20
22.454225
70
0
0
VERTEX
8
Layer 1
10
255.982925
20
22.148902
70
0
0
VERTEX
8
Layer 1
10
256.057907
20
21.716348
70
0
0
SEQEND
8
Layer 1
0
POLYLINE
8
Layer 1
62
7
70
0
10
0.000000
20
0.000000
66
1
0
VERTEX
8
Layer 1
10
256.363059
20
19.581694
70
0
0
VERTEX
8
Layer 1
10
256.963872
20
19.876936
70
0
0
VERTEX
8
Layer 1
10
257.455345
20
20.333638
70
0
0
VERTEX
8
Layer 1
10
257.787143
20
20.948033
70
0
0
VERTEX
8
Layer 1
10
257.908928
20
21.716348
70
0
0
VERTEX
8
Layer 1
10
257.716808
20
22.760259
70
0
0
VERTEX
8
Layer 1
10
257.145078
20
23.529004
70
0
0
VERTEX
8
Layer 1
10
256.200683
20
24.003930
70
0
0
VERTEX
8
Layer 1
10
254.890568
20
24.166384
70
0
0
VERTEX
8
Layer 1
10
252.124796
20
24.166384
70
0
0
VERTEX
8
Layer 1
10
252.124796
20
16.804986
70
0
0
VERTEX
8
Layer 1
10
253.944420
20
16.804986
70
0
0
VERTEX
8
Layer 1
10
253.944420
20
19.308645
70
0
0
VERTEX
8
Layer 1
10
254.595999
20
19.308645
70
0
0
VERTEX
8
Layer 1
10
256.068490
20
16.804986
70
0
0
VERTEX
8
Layer 1
10
258.140350
20
16.804986
70
0
0
VERTEX
8
Layer 1
10
256.363059
20
19.581694
70
0
0
SEQEND
8
Layer 1
0
POLYLINE
8
Layer 1
62
7
70
0
10
0.000000
20
0.000000
66
1
0
VERTEX
8
Layer 1
10
247.924633
20
20.485862
70
0
0
VERTEX
8
Layer 1
10
247.802440
20
19.587168
70
0
0
VERTEX
8
Layer 1
10
247.435773
20
18.840377
70
0
0
VERTEX
8
Layer 1
10
246.824498
20
18.330190
70
0
0
VERTEX
8
Layer 1
10
245.968485
20
18.141306
70
0
0
VERTEX
8
Layer 1
10
245.106359
20
18.330190
70
0
0
VERTEX
8
Layer 1
10
244.480604
20
18.840377
70
0
0
VERTEX
8
Layer 1
10
244.099257
20
19.587168
70
0
0
VERTEX
8
Layer 1
10
243.970356
20
20.485862
70
0
0
VERTEX
8
Layer 1
10
244.099257
20
21.411212
70
0
0
VERTEX
8
Layer 1
10
244.480604
20
22.155423
70
0
0
VERTEX
8
Layer 1
10
245.106359
20
22.651257
70
0
0
VERTEX
8
Layer 1
10
245.968485
20
22.831476
70
0
0
VERTEX
8
Layer 1
10
246.824498
20
22.651257
70
0
0
VERTEX
8
Layer 1
10
247.435773
20
22.155423
70
0
0
VERTEX
8
Layer 1
10
247.802440
20
21.411212
70
0
0
VERTEX
8
Layer 1
10
247.924633
20
20.485862
70
0
0
SEQEND
8
Layer 1
0
POLYLINE
8
Layer 1
62
7
70
0
10
0.000000
20
0.000000
66
1
0
VERTEX
8
Layer 1
10
242.035727
20
20.485862
70
0
0
VERTEX
8
Layer 1
10
242.311428
20
19.019941
70
0
0
VERTEX
8
Layer 1
10
243.097806
20
17.804316
70
0
0
VERTEX
8
Layer 1
10
243.663410
20
17.332903
70
0
0
VERTEX
8
Layer 1
10
244.333777
20
16.975113
70
0
0
VERTEX
8
Layer 1
10
245.101270
20
16.747961
70
0
0
VERTEX
8
Layer 1
10
245.958254
20
16.668462
70
0
0
VERTEX
8
Layer 1
10
246.796098
20
16.744937
70
0
0
VERTEX
8
Layer 1
10
247.552636
20
16.964745
70
0
0
VERTEX
8
Layer 1
10
248.218496
20
17.313463
70
0
0
VERTEX
8
Layer 1
10
248.784307
20
17.776667
70
0
0
VERTEX
8
Layer 1
10
249.578292
20
18.988836
70
0
0
VERTEX
8
Layer 1
10
249.859615
20
20.485862
70
0
0
VERTEX
8
Layer 1
10
249.579780
20
21.978627
70
0
0
VERTEX
8
Layer 1
10
248.788276
20
23.191397
70
0
0
VERTEX
8
Layer 1
10
248.223147
20
23.655804
70
0
0
VERTEX
8
Layer 1
10
247.557100
20
24.005838
70
0
0
VERTEX
8
Layer 1
10
246.799136
20
24.226705
70
0
0
VERTEX
8
Layer 1
10
245.958254
20
24.303614
70
0
0
VERTEX
8
Layer 1
10
245.101270
20
24.226705
70
0
0
VERTEX
8
Layer 1
10
244.333777
20
24.005838
70
0
0
VERTEX
8
Layer 1
10
243.663410
20
23.655804
70
0
0
VERTEX
8
Layer 1
10
243.097806
20
23.191397
70
0
0
VERTEX
8
Layer 1
10
242.311428
20
21.978627
70
0
0
VERTEX
8
Layer 1
10
242.035727
20
20.485862
70
0
0
SEQEND
8
Layer 1
0
POLYLINE
8
Layer 1
62
7
70
0
10
0.000000
20
0.000000
66
1
0
VERTEX
8
Layer 1
10
237.348732
20
18.351208
70
0
0
VERTEX
8
Layer 1
10
237.348732
20
24.166384
70
0
0
VERTEX
8
Layer 1
10
235.529461
20
24.166384
70
0
0
VERTEX
8
Layer 1
10
235.529461
20
16.804986
70
0
0
VERTEX
8
Layer 1
10
240.293361
20
16.804986
70
0
0
VERTEX
8
Layer 1
10
240.293361
20
18.351208
70
0
0
VERTEX
8
Layer 1
10
237.348732
20
18.351208
70
0
0
SEQEND
8
Layer 1
0
POLYLINE
8
Layer 1
62
7
70
0
10
0.000000
20
0.000000
66
1
0
VERTEX
8
Layer 1
10
229.328699
20
19.592278
70
0
0
VERTEX
8
Layer 1
10
230.169720
20
22.704829
70
0
0
VERTEX
8
Layer 1
10
231.000510
20
19.592278
70
0
0
VERTEX
8
Layer 1
10
229.328699
20
19.592278
70
0
0
SEQEND
8
Layer 1
0
POLYLINE
8
Layer 1
62
7
70
0
10
0.000000
20
0.000000
66
1
0
VERTEX
8
Layer 1
10
231.757922
20
16.805339
70
0
0
VERTEX
8
Layer 1
10
243.931903
20
21.074647
70
0
0
VERTEX
8
Layer 1
10
231.316245
20
24.166384
70
0
0
VERTEX
8
Layer 1
10
229.023547
20
24.166384
70
0
0
VERTEX
8
Layer 1
10
226.678286
20
16.805339
70
0
0
VERTEX
8
Layer 1
10
228.582223
20
16.805339
70
0
0
VERTEX
8
Layer 1
10
228.939234
20
18.130370
70
0
0
VERTEX
8
Layer 1
10
231.400206
20
18.130370
70
0
0
VERTEX
8
Layer 1
10
231.757922
20
16.805339
70
0
0
SEQEND
8
Layer 1
0
POLYLINE
8
Layer 1
62
7
70
0
10
0.000000
20
0.000000
66
1
0
VERTEX
8
Layer 1
10
222.632286
20
24.303614
70
0
0
VERTEX
8
Layer 1
10
221.717970
20
24.229331
70
0
0
VERTEX
8
Layer 1
10
220.904021
20
24.014944
70
0
0
VERTEX
8
Layer 1
10
220.197079
20
23.673143
70
0
0
VERTEX
8
Layer 1
10
219.603784
20
23.216620
70
0
0
VERTEX
8
Layer 1
10
219.130775
20
22.658068
70
0
0
VERTEX
8
Layer 1
10
218.784691
20
22.010178
70
0
0
VERTEX
8
Layer 1
10
218.572172
20
21.285642
70
0
0
VERTEX
8
Layer 1
10
218.499857
20
20.497151
70
0
0
VERTEX
8
Layer 1
10
218.572172
20
19.708614
70
0
0
VERTEX
8
Layer 1
10
218.784691
20
18.983958
70
0
0
VERTEX
8
Layer 1
10
219.130775
20
18.335898
70
0
0
VERTEX
8
Layer 1
10
219.603784
20
17.777152
70
0
0
VERTEX
8
Layer 1
10
220.197079
20
17.320435
70
0
0
VERTEX
8
Layer 1
10
220.904021
20
16.978465
70
0
0
VERTEX
8
Layer 1
10
221.717970
20
16.763957
70
0
0
VERTEX
8
Layer 1
10
222.632286
20
16.689628
70
0
0
VERTEX
8
Layer 1
10
224.028269
20
16.905219
70
0
0
VERTEX
8
Layer 1
10
225.029759
20
17.404707
70
0
0
VERTEX
8
Layer 1
10
224.231072
20
18.719507
70
0
0
VERTEX
8
Layer 1
10
223.614285
20
18.330350
70
0
0
VERTEX
8
Layer 1
10
222.737414
20
18.162120
70
0
0
VERTEX
8
Layer 1
10
221.814174
20
18.333145
70
0
0
VERTEX
8
Layer 1
10
221.085271
20
18.812773
70
0
0
VERTEX
8
Layer 1
10
220.606795
20
19.550832
70
0
0
VERTEX
8
Layer 1
10
220.434838
20
20.497151
70
0
0
VERTEX
8
Layer 1
10
220.600892
20
21.442858
70
0
0
VERTEX
8
Layer 1
10
221.069528
20
22.180602
70
0
0
VERTEX
8
Layer 1
10
221.796464
20
22.660115
70
0
0
VERTEX
8
Layer 1
10
222.737414
20
22.831123
70
0
0
VERTEX
8
Layer 1
10
223.616975
20
22.642123
70
0
0
VERTEX
8
Layer 1
10
224.219783
20
22.200711
70
0
0
VERTEX
8
Layer 1
10
225.029759
20
23.588183
70
0
0
VERTEX
8
Layer 1
10
224.028269
20
24.087847
70
0
0
VERTEX
8
Layer 1
10
222.632286
20
24.303614
70
0
0
SEQEND
8
Layer 1
0
POLYLINE
8
Layer 1
62
7
70
0
10
0.000000
20
0.000000
66
1
0
VERTEX
8
Layer 1
10
211.753702
20
24.166031
70
0
0
VERTEX
8
Layer 1
10
210.702427
20
19.676238
70
0
0
VERTEX
8
Layer 1
10
209.566837
20
24.166031
70
0
0
VERTEX
8
Layer 1
10
218.491390
20
28.435339
70
0
0
VERTEX
8
Layer 1
10
217.345570
20
23.956482
70
0
0
VERTEX
8
Layer 1
10
216.293236
20
28.435339
70
0
0
VERTEX
8
Layer 1
10
214.390357
20
28.435339
70
0
0
VERTEX
8
Layer 1
10
216.472447
20
21.074647
70
0
0
VERTEX
8
Layer 1
10
218.008085
20
21.074647
70
0
0
VERTEX
8
Layer 1
10
219.164488
20
25.733420
70
0
0
VERTEX
8
Layer 1
10
220.310661
20
21.074647
70
0
0
VERTEX
8
Layer 1
10
221.856177
20
21.074647
70
0
0
VERTEX
8
Layer 1
10
223.928389
20
28.435339
70
0
0
VERTEX
8
Layer 1
10
211.753702
20
24.166031
70
0
0
SEQEND
8
Layer 1
0
POLYLINE
8
Layer 1
62
7
70
0
10
0.000000
20
0.000000
66
1
0
VERTEX
8
Layer 1
10
200.630290
20
20.485862
70
0
0
VERTEX
8
Layer 1
10
200.508097
20
19.587168
70
0
0
VERTEX
8
Layer 1
10
200.141430
20
18.840377
70
0
0
VERTEX
8
Layer 1
10
199.530155
20
18.330190
70
0
0
VERTEX
8
Layer 1
10
198.674142
20
18.141306
70
0
0
VERTEX
8
Layer 1
10
197.812016
20
18.330190
70
0
0
VERTEX
8
Layer 1
10
197.186261
20
18.840377
70
0
0
VERTEX
8
Layer 1
10
196.804914
20
19.587168
70
0
0
VERTEX
8
Layer 1
10
196.676013
20
20.485862
70
0
0
VERTEX
8
Layer 1
10
196.804914
20
21.411212
70
0
0
VERTEX
8
Layer 1
10
197.186261
20
22.155423
70
0
0
VERTEX
8
Layer 1
10
197.812016
20
22.651257
70
0
0
VERTEX
8
Layer 1
10
198.674142
20
22.831476
70
0
0
VERTEX
8
Layer 1
10
199.530155
20
22.651257
70
0
0
VERTEX
8
Layer 1
10
200.141430
20
22.155423
70
0
0
VERTEX
8
Layer 1
10
200.508097
20
21.411212
70
0
0
VERTEX
8
Layer 1
10
200.630290
20
20.485862
70
0
0
SEQEND
8
Layer 1
0
POLYLINE
8
Layer 1
62
7
70
0
10
0.000000
20
0.000000
66
1
0
VERTEX
8
Layer 1
10
194.741737
20
20.485862
70
0
0
VERTEX
8
Layer 1
10
195.017388
20
19.019941
70
0
0
VERTEX
8
Layer 1
10
195.803684
20
17.804316
70
0
0
VERTEX
8
Layer 1
10
196.369265
20
17.332903
70
0
0
VERTEX
8
Layer 1
10
197.039638
20
16.975113
70
0
0
VERTEX
8
Layer 1
10
197.807179
20
16.747961
70
0
0
VERTEX
8
Layer 1
10
198.664264
20
16.668462
70
0
0
VERTEX
8
Layer 1
10
199.502006
20
16.744937
70
0
0
VERTEX
8
Layer 1
10
200.258497
20
16.964745
70
0
0
VERTEX
8
Layer 1
10
200.924351
20
17.313463
70
0
0
VERTEX
8
Layer 1
10
201.490184
20
17.776667
70
0
0
VERTEX
8
Layer 1
10
202.284252
20
18.988836
70
0
0
VERTEX
8
Layer 1
10
202.565625
20
20.485862
70
0
0
VERTEX
8
Layer 1
10
202.285741
20
21.978627
70
0
0
VERTEX
8
Layer 1
10
201.494153
20
23.191397
70
0
0
VERTEX
8
Layer 1
10
200.929002
20
23.655804
70
0
0
VERTEX
8
Layer 1
10
200.262961
20
24.005838
70
0
0
VERTEX
8
Layer 1
10
199.505045
20
24.226705
70
0
0
VERTEX
8
Layer 1
10
198.664264
20
24.303614
70
0
0
VERTEX
8
Layer 1
10
197.807179
20
24.226705
70
0
0
VERTEX
8
Layer 1
10
197.039638
20
24.005838
70
0
0
VERTEX
8
Layer 1
10
196.369265
20
23.655804
70
0
0
VERTEX
8
Layer 1
10
195.803684
20
23.191397
70
0
0
VERTEX
8
Layer 1
10
195.017388
20
21.978627
70
0
0
VERTEX
8
Layer 1
10
194.741737
20
20.485862
70
0
0
SEQEND
8
Layer 1
0
POLYLINE
8
Layer 1
62
7
70
1
10
0.000000
20
0.000000
66
1
0
VERTEX
8
Layer 1
10
192.998666
20
18.351208
70
0
0
VERTEX
8
Layer 1
10
214.148000
20
21.211877
70
0
0
VERTEX
8
Layer 1
10
209.384452
20
21.211877
70
0
0
VERTEX
8
Layer 1
10
209.384452
20
28.573274
70
0
0
VERTEX
8
Layer 1
10
211.203723
20
28.573274
70
0
0
VERTEX
8
Layer 1
10
211.203723
20
18.351208
70
0
0
VERTEX
8
Layer 1
10
192.998666
20
18.351208
70
0
0
SEQEND
8
Layer 1
 0 
ENDSEC
 0 
EOF